<svg xmlns="http://www.w3.org/2000/svg">
<defs>
<font id="UTMSwissCondensed" horiz-adv-x="1200" >
  <font-face 
    font-family="UTM Swiss Condensed"
    font-weight="400"
    font-stretch="normal"
    units-per-em="2048"
    panose-1="2 0 5 0 0 0 0 0 0 0"
    ascent="1638"
    descent="-410"
    x-height="1151"
    cap-height="1540"
    bbox="-78 -483 6029 2283"
    underline-thickness="150"
    underline-position="-292"
    unicode-range="U+0020-2026"
  />
<missing-glyph horiz-adv-x="6492" 
d="M4507 1700h9q36 -9 36 -45q0 -10 -32 -49h-27q0 21 27 47l3 9q-5 10 -10 12h-9q-7 0 -9 -17h-29q6 43 41 43zM3232 1675l28 -27q0 -13 -39 -26h-18l-56 11l-11 -11l-27 22q11 25 42 25h10l40 -9h2q9 0 29 15zM1747 1644h136v-51h-89v-65h85v-51h-85v-111l-5 -5h-47v278z
M2405 1644h42l5 -5v-67h28v-44h-28v-162l-5 -5h-48v167h-24v44h24v67zM2851 1644h40l4 -5v-81h3q22 22 51 22h3q55 0 78 -62l3 -33v-124h-50v99q0 70 -40 70h-7q-41 0 -41 -75v-94h-49v278zM3405 1644h47l5 -5v-190q9 -45 43 -45q42 7 42 51v184l4 5h48v-186q0 -73 -63 -97
q-15 -6 -34 -6q-45 0 -79 47q-13 20 -13 49v193zM3630 1644h152v-51h-54v-232h-51v232h-52v46zM3808 1644h68q7 -4 79 -216h2l76 216h70v-283h-52v209h-1l-71 -209h-42q-4 0 -56 157l-18 52h-2v-209h-53v283zM4897 1644h50v-283h-43l-4 5v9l2 2l-2 12q-28 -34 -75 -34
q-64 0 -96 78l-5 34v2q0 81 88 108l22 3q34 0 61 -28h2v92zM3268 1599h34l4 -5v-42h-42v-191h-47v21q-22 -27 -56 -27q-86 12 -86 83v134h50v-89q0 -68 24 -74l18 -5h5q25 0 38 32l2 22v114h52v22zM4626 1599v-47h-29v-191h-45v22h-3q-14 -28 -54 -28q-65 0 -83 67l-2 25
v125h49v-103q0 -43 19 -58l20 -7h9q40 0 40 60v108h25q4 0 4 25l3 2h47zM2025 1580q65 0 99 -67q8 -15 12 -46q0 -76 -86 -110l-32 -2q-59 0 -96 63q-12 18 -12 45v8q0 81 97 109h18zM2267 1580h3q71 0 80 -88v-131h-49v103q0 66 -40 66h-5q-42 0 -42 -66v-103h-50v211h44
v-18q28 26 59 26zM2703 1580h6q69 0 101 -77h-58q-15 27 -40 27h-16q-51 -13 -51 -53l-3 -13q12 -60 58 -60h9q22 0 45 24h39l2 3h2l2 -3l2 3l3 -3l2 3l2 -7q-31 -69 -105 -69q-73 0 -106 81l-4 31v2q0 73 74 103q15 8 36 8zM4305 1580h2q47 0 67 -52v-12h-49q0 14 -16 14

<glyph glyph-name=".notdef" horiz-adv-x="6492" 
d="M4507 1700h9q36 -9 36 -45q0 -10 -32 -49h-27q0 21 27 47l3 9q-5 10 -10 12h-9q-7 0 -9 -17h-29q6 43 41 43zM3232 1675l28 -27q0 -13 -39 -26h-18l-56 11l-11 -11l-27 22q11 25 42 25h10l40 -9h2q9 0 29 15zM1747 1644h136v-51h-89v-65h85v-51h-85v-111l-5 -5h-47v278z
M2405 1644h42l5 -5v-67h28v-44h-28v-162l-5 -5h-48v167h-24v44h24v67zM2851 1644h40l4 -5v-81h3q22 22 51 22h3q55 0 78 -62l3 -33v-124h-50v99q0 70 -40 70h-7q-41 0 -41 -75v-94h-49v278zM3405 1644h47l5 -5v-190q9 -45 43 -45q42 7 42 51v184l4 5h48v-186q0 -73 -63 -97
q-15 -6 -34 -6q-45 0 -79 47q-13 20 -13 49v193zM3630 1644h152v-51h-54v-232h-51v232h-52v46zM3808 1644h68q7 -4 79 -216h2l76 216h70v-283h-52v209h-1l-71 -209h-42q-4 0 -56 157l-18 52h-2v-209h-53v283zM4897 1644h50v-283h-43l-4 5v9l2 2l-2 12q-28 -34 -75 -34
q-64 0 -96 78l-5 34v2q0 81 88 108l22 3q34 0 61 -28h2v92zM3268 1599h34l4 -5v-42h-42v-191h-47v21q-22 -27 -56 -27q-86 12 -86 83v134h50v-89q0 -68 24 -74l18 -5h5q25 0 38 32l2 22v114h52v22zM4626 1599v-47h-29v-191h-45v22h-3q-14 -28 -54 -28q-65 0 -83 67l-2 25
v125h49v-103q0 -43 19 -58l20 -7h9q40 0 40 60v108h25q4 0 4 25l3 2h47zM2025 1580q65 0 99 -67q8 -15 12 -46q0 -76 -86 -110l-32 -2q-59 0 -96 63q-12 18 -12 45v8q0 81 97 109h18zM2267 1580h3q71 0 80 -88v-131h-49v103q0 66 -40 66h-5q-42 0 -42 -66v-103h-50v211h44
v-18q28 26 59 26zM2703 1580h6q69 0 101 -77h-58q-15 27 -40 27h-16q-51 -13 -51 -53l-3 -13q12 -60 58 -60h9q22 0 45 24h39l2 3h2l2 -3l2 3l3 -3l2 3l2 -7q-31 -69 -105 -69q-73 0 -106 81l-4 31v2q0 73 74 103q15 8 36 8zM4305 1580h2q47 0 67 -52v-12h-49q0 14 -16 14
h-4q-13 0 -18 -12v-11q0 -8 65 -30q29 -16 29 -51q0 -50 -59 -69l-22 -2q-72 10 -72 71h52q0 -17 25 -22h4q18 0 23 20q0 19 -65 39q-32 22 -32 50q0 57 70 67zM5321 1580q53 0 74 -55q6 -16 6 -56v-108h-49v97q0 72 -38 72h-11q-31 0 -38 -47v-122h-49v5h-3l3 2v204h45v-18
q23 26 60 26zM5541 1580h4q39 0 66 -35v16l-2 2l2 9h45v-179q0 -84 -81 -113l-32 -4h-7q-66 0 -99 69h57q23 -19 42 -20h14q20 0 41 19q13 11 20 45h-2q-32 -34 -70 -34q-55 0 -93 60q-9 16 -13 54q0 76 84 108zM4985 1572h50v-117q6 -51 39 -51h6q44 0 44 81v87h49v-211
h-45l-3 9h3l-3 3v4l3 2v3h-4q0 -20 -54 -27h-3q-56 0 -81 64l-1 73v80zM1960 1464q10 -60 60 -60h7q57 13 57 56v13q-13 57 -57 57h-4q-56 0 -63 -66zM4773 1467q13 -63 59 -63h4q56 0 64 65q0 43 -50 61h-20q-36 0 -54 -49zM5485 1467q7 -63 62 -63h5q57 11 57 63t-57 63
h-13q-54 -14 -54 -54v-9zM5058 1334h50v-49h-50v49zM2308 1146q42 -9 42 -42v-3q0 -15 -31 -52h-27q0 21 29 49v6q0 11 -6 13h-12q-9 -4 -9 -16h-27v5q0 27 31 37zM4504 1092q88 0 133 -85h-58q-36 36 -77 36q-52 0 -83 -59q-9 -18 -9 -40q0 -68 77 -95l17 -1q34 0 72 33h58
q-42 -83 -132 -83q-89 0 -135 96q-9 27 -9 54q0 84 86 131q27 13 60 13zM4805 1092q55 0 99 -40q45 -45 45 -99v-18q0 -77 -88 -126q-31 -11 -61 -11q-84 0 -131 87q-13 28 -13 52v16q0 84 95 130q27 9 54 9zM3463 1090h2l45 -9h3q10 0 25 9l17 -31q-17 -16 -33 -16h-3
l-51 9l-20 -7l-19 31q17 14 34 14zM1985 1088h18q113 0 124 -23q23 -22 23 -54q-9 -49 -28 -49v-5q45 -19 45 -56v-16q0 -54 -66 -76l-51 -4h-65v283zM3739 1088h52v-187q5 -53 43 -53q27 0 42 33l3 26v176l4 5h42l5 -5v-148q0 -101 -38 -114q-23 -23 -61 -23q-53 0 -88 65
l-4 47v178zM3984 1088h56q4 0 117 -204h4v204h48l4 -5v-278h-56q-28 41 -120 205h-2v-205h-51v283zM4267 1088h51v-283h-51v283zM4992 1088h8q148 0 166 -35q23 -10 45 -64l5 -32v-9l2 -2q0 -81 -79 -128q-33 -13 -94 -13h-53v283zM5262 1088h147v-52h-99v-65h96v-49h-96
v-64l4 -4h95v-49h-151v278zM4709 951v-9q0 -66 76 -93l18 -1q65 0 92 74l2 17v14q0 52 -56 81q-12 6 -38 9q-63 0 -92 -72zM2036 1036v-58h9q52 0 52 24l2 12q-9 22 -27 22h-36zM5043 1036v-178l2 -2v-2q99 0 117 66l2 13v24q0 30 -31 59q-24 20 -75 20h-15zM2296 1023h5
q36 0 68 -34v27h47v-211h-47v27q-35 -34 -77 -34q-71 0 -97 83l-4 31q0 77 81 108zM2557 1023h3q71 0 80 -88v-130h-49v110q0 58 -40 58h-10q-33 0 -38 -53v-115h-49v211h45v-18q26 25 58 25zM2777 1023h4q43 0 68 -34v27h45v-189q0 -82 -99 -108h-16q-70 0 -103 71h56
q25 -22 42 -22h14q50 0 61 67q-31 -37 -72 -37q-59 0 -97 70l-7 38v14q0 68 81 100zM3129 1023h2q41 0 58 -32h3q30 32 65 32h4q55 0 76 -48q8 -21 8 -38v-132h-50v119q0 38 -22 47l-12 2h-14q-31 0 -35 -56v-112h-49v117q0 51 -41 51h-8q-30 0 -34 -49v-119h-52v211h47v-18
h3q6 21 51 25zM3483 1023q45 0 72 -36v29h45v-211h-45v27q-34 -34 -74 -34q-72 0 -99 79l-4 35q0 78 81 108zM2243 901q0 -42 58 -53h4q43 0 59 40l2 13v19q-11 53 -54 53h-14q-38 0 -55 -49v-23zM2723 910q0 -41 40 -58l18 -4h5q45 0 60 49v20q-10 56 -56 56h-11
q-47 0 -56 -63zM3429 912v-11q14 -53 54 -53h14q56 10 56 55v9q0 40 -36 57l-17 4h-10q-61 -7 -61 -61zM2036 929v-71q0 -4 7 -4q74 0 74 39q0 29 -45 36h-36zM4138 587l23 -24l-49 -48q-17 11 -25 23zM2759 564l81 -46q0 -13 -21 -36l-83 46q18 36 23 36zM4027 535h36
l53 -52h-52l-20 23l-22 -23h-52q52 52 57 52zM4574 535h38l54 -52h-51l-23 23h-2q0 -5 -18 -23h-52zM1895 528h50q7 -3 45 -117l33 -95q8 7 31 86l47 126h52v-1l-108 -281h-42zM2409 528h49v-46h-49v46zM2596 528h44l5 -4v-278h-49v282zM3517 528h43l4 -4v-67h30v-45h-30
v-166h-51v166h-25v45h25v67zM3620 528h50v-84h1q23 20 53 20h2q55 0 78 -61l3 -33v-124h-50v99q0 70 -37 70h-10q-40 0 -40 -75v-94h-50v282zM3849 528h49v-46h-49v46zM4197 528h43l5 -4v-67h28v-45h-28v-166h-52v166h-25v45h25v67zM4394 528h50v-282h-50v282zM5086 528h49
v-282h-49v282zM5429 528h49v-46h-49v46zM2788 464h5q79 0 105 -88l2 -20v-9q0 -72 -81 -103l-33 -5q-73 0 -106 84l-4 27q0 83 89 112zM3033 464h4q50 0 74 -52q7 -21 7 -69v-97h-52v126q-7 43 -36 43h-9q-36 0 -40 -50v-119h-51v211h46v-18q25 25 57 25zM3257 464h4
q44 0 61 -34h2v27h47v-177q0 -88 -85 -117l-26 -2h-5q-70 0 -102 69h50l35 -17l15 -2h13q48 0 58 62q-31 -34 -69 -34q-59 0 -94 66q-10 20 -12 51q0 73 83 106zM4042 464h2q79 0 106 -90l2 -22l-2 -23h-164q14 -38 42 -38l14 -2q28 0 47 18h55v-2q-34 -66 -104 -66
q-73 0 -106 84l-1 24v7q0 42 31 76q32 34 78 34zM4581 464h4q39 0 67 -34h3v27h45v-211h-45v27h-3q-32 -34 -73 -34q-68 0 -97 77l-4 31v12q0 74 80 103zM4850 464h7q84 0 103 -110l-2 -2v-12q0 -56 -63 -92q-20 -9 -45 -9q-32 0 -61 27v-85l-4 -4h-48v280h48v-24
q29 31 65 31zM5272 464q42 0 71 -34v27h48v-211h-48v27q-33 -34 -73 -34q-88 0 -104 113q0 73 70 105q15 7 36 7zM2182 457h48v-117q3 -51 40 -51h5q42 0 42 74v94h49v-211h-45v20h-4q0 -19 -54 -27h-2q-53 0 -79 59q-4 30 -4 85v70zM2409 457h49v-211h-49v211zM3849 457h49
v-211h-49v211zM5429 457h49v-211h-49v211zM2727 359v-14q13 -56 57 -56h4q57 0 63 65q-12 61 -56 61h-11q-57 -14 -57 -56zM3201 345q14 -56 56 -56h11q46 0 56 63v2q-12 61 -56 61h-13q-38 0 -54 -50v-20zM3984 374h116v2q-15 39 -56 39h-7q-33 0 -53 -41zM4527 347
q12 -58 58 -58h5q50 0 62 54v9q-9 63 -54 63h-15q-54 -13 -54 -54zM4785 350q11 -61 58 -61h2q49 0 64 51v19q0 37 -48 56h-20q-45 0 -56 -63v-2zM5218 345q10 -56 63 -56q41 0 58 40l3 14v13q0 47 -50 59h-18q-40 0 -56 -52v-18zM4568 215h49v-45h-49v45zM5258 215h49v-45
h-49v45zM3915 53h4q33 0 41 -43v-1q0 -14 -23 -36l-9 -14h-27q0 21 27 47l2 3v1q-3 17 -9 17h-9q-7 0 -9 -17h-29q6 43 41 43zM2779 38l50 -52l-25 -16l-50 45zM1637 6h4q71 -41 81 -52l-20 -31q-83 42 -83 50zM4639 6l83 -49l-18 -34q-9 0 -87 47q15 31 22 36zM5680 4
l19 -36l-88 -45l-19 34l88 49v-2zM2452 -16h49v-16l5 -5h13v-31h-13l-5 -4v-240h-45v27q-31 -35 -77 -35q-68 0 -98 90l-2 23q0 88 96 112h14q31 0 63 -27v50l-5 4h-42v31h47v21zM2716 -23h38l54 -52h-51l-22 23l-21 -23h-52zM3827 -23h31q12 0 61 -52h-52l-22 23
q-18 -18 -18 -23h-56v3zM1347 -30h153v-52h-54v-230h-47l-4 5v210l2 2v2l-2 2l2 3l-2 2l2 2l-2 2h-52v47zM1969 -30h45v-63l2 -2l-2 -2v-3l2 -1l-2 -3v-2l2 -2v-2l-2 -3l2 -2h2q17 20 50 20h2q51 0 74 -50q6 -14 6 -36v-131h-49v109q0 58 -38 58h-9q-40 0 -40 -73v-94h-50
v277zM2541 -30h45l5 -5v-42h-50v47zM3201 -30h50v-170l67 99h60l-76 -102l87 -108v-1h-67q-10 18 -71 99v-99h-50v282zM3472 -30v-85q23 20 51 20q55 0 77 -47q9 -17 9 -67v-103h-51v114q0 53 -39 53h-10q-31 0 -37 -46v-121h-49v271l-2 2v2l2 2l-2 3l2 2h49zM3652 -30h49
v-47h-49v47zM4312 -30h49v-92q26 27 65 27h3q72 0 100 -81l5 -31q0 -64 -61 -104q-29 -9 -47 -9q-39 0 -69 35v-27h-45v282zM5391 -30h49v-85h2q22 20 52 20h2q58 0 79 -63l2 -36v-118h-50v95q0 71 -31 71l-9 1h-11q-36 0 -36 -68v-99h-49v282zM1615 -95h2v-50h-5
q-40 0 -40 -49v-118h-50v211h45v-18q17 24 48 24zM1839 -95q69 0 83 -74v-143h-49v117q-5 50 -39 50h-6q-43 0 -43 -72v-95h-50v211h48v-18q24 24 56 24zM2739 -95q69 0 101 -81l5 -33q-3 -21 -8 -21h-161q16 -40 59 -40q24 0 46 18h55q-32 -68 -104 -68q-78 0 -108 90v32
q0 70 85 101zM3843 -95h4q73 0 103 -83l2 -22v-18l-2 -12h-163q17 -40 51 -40h11q20 0 40 18h57q-33 -68 -101 -68q-80 0 -110 88l-2 25q0 80 87 110zM4089 -95h4q52 0 75 -51q6 -21 6 -71v-95h-51v118q0 42 -34 49h-11q-36 0 -41 -49v-118h-51v211h47v-18q24 24 56 24z
M4656 -95h6q39 0 67 -34h2v28h45v-211h-45v27h-2q-33 -35 -74 -35q-68 0 -97 77l-4 32v11q0 70 74 100q10 5 28 5zM4918 -95h4q59 0 78 -67l3 -72v-78h-52v118q0 42 -36 49h-9q-36 0 -40 -44v-123h-52v211h47v-18q25 24 57 24zM5254 -95h2q70 0 99 -79l4 -35q0 -76 -80 -108
l-25 -3q-39 0 -65 30v-92h-50v281h45v-26q29 32 70 32zM5810 -95h5q33 0 60 -32q26 32 66 32h6q54 0 76 -56l6 -44v-117h-50v105q0 62 -38 62h-7q-33 0 -38 -42v-120l-5 -5h-47v121q0 36 -29 46h-16q-38 0 -38 -66v-101h-49v211h45v-18q21 24 53 24zM1643 -101h47l5 -5v-201
l-5 -5h-47v211zM2541 -101h50v-211h-50v211zM2878 -101h49v-117q4 -52 41 -52h4q43 0 43 70v99h49v-211h-44v20h-5q-12 -28 -57 -28q-50 0 -76 54q-4 11 -4 30v135zM3652 -101h49v-211h-49v211zM5620 -101h49v-211h-49v211zM2330 -207q0 -46 49 -63h12q52 0 63 57v9
q0 46 -52 59h-16q-37 0 -56 -49v-13zM2676 -185h117q-18 40 -52 40h-6q-41 0 -59 -37v-3zM3787 -185h116q-20 40 -51 40h-7q-44 0 -58 -40zM4358 -198v-9q9 -63 58 -63h5q61 7 61 61v5q0 38 -36 55l-17 4h-14q-57 -11 -57 -53zM4603 -211q13 -59 59 -59h11q39 0 56 52v11
q-8 62 -54 62h-16q-44 0 -56 -62v-4zM5187 -198v-19q0 -40 56 -53h9q47 0 58 66q-13 59 -56 59h-14q-53 -13 -53 -53z" />
    <glyph glyph-name=".null" horiz-adv-x="0" 
 />
    <glyph glyph-name="nonmarkingreturn" horiz-adv-x="508" 
 />
    <glyph glyph-name="space" unicode=" " horiz-adv-x="549" 
 />
    <glyph glyph-name="space" unicode="&#xa0;" horiz-adv-x="549" 
 />
    <glyph glyph-name="exclam" unicode="!" horiz-adv-x="530" 
d="M180 0v211h170v-211h-170zM215 379l-43 723v438h186v-438l-43 -723h-100z" />
    <glyph glyph-name="quotedbl" unicode="&#x22;" horiz-adv-x="614" 
d="M524 1436v-555h-139v555h139zM229 1436v-555h-139v555h139z" />
    <glyph glyph-name="numbersign" unicode="#" horiz-adv-x="1575" 
d="M969 858h-260l-93 -264h261zM924 1458l-162 -454h256l164 454h164l-160 -454h301l-51 -146h-303l-93 -262h322l-51 -147h-322l-162 -453h-165l161 453h-258l-162 -453h-165l159 453h-309l53 147h310l92 262h-330l51 146h332l162 454h166z" />
    <glyph glyph-name="dollar" unicode="$" horiz-adv-x="1020" 
d="M457 897l-1 489q-86 -9 -139 -76t-53 -169q0 -92 45 -150t148 -94zM457 -199v197q-92 0 -164.5 31t-122.5 87q-94 108 -94 316v36q0 16 2 24h168l-1 -25l-1 -23q0 -155 50 -229t155 -74h8v578q-191 66 -276 165t-85 257q0 168 97 272q50 53 116 82t148 29v139h88v-137
q173 -17 261.5 -112t88.5 -265v-23h-164v9q0 113 -45.5 174.5t-140.5 74.5v-518q219 -78 306 -175.5t87 -260.5q0 -198 -103 -310q-53 -58 -125 -89t-165 -31v-199h-88zM545 139q50 0 90.5 20.5t71.5 59.5q59 73 59 197q0 99 -54 165t-167 103v-545z" />
    <glyph glyph-name="percent" unicode="%" horiz-adv-x="1430" 
d="M1053 629q-75 0 -107.5 -60.5t-32.5 -210.5q0 -121 33.5 -178t106.5 -57q71 0 106 64t35 200q0 122 -35 182t-106 60zM774 383q0 184 69 276.5t208 92.5q144 0 214 -91t70 -278q0 -186 -72 -284.5t-208 -98.5q-144 0 -212.5 93.5t-68.5 289.5zM373 1399
q-74 0 -105.5 -59.5t-31.5 -211.5q0 -124 32.5 -179.5t104.5 -55.5q71 0 106 64t35 200q0 122 -35 182t-106 60zM94 1153q0 184 69 276.5t208 92.5q144 0 214 -91t70 -276q0 -186 -72.5 -285.5t-209.5 -99.5q-142 0 -210.5 93.5t-68.5 289.5zM305 -29l694 1579h117
l-692 -1579h-119z" />
    <glyph glyph-name="ampersand" unicode="&#x26;" horiz-adv-x="1253" 
d="M553 973q79 52 123.5 122.5t44.5 145.5q0 74 -38.5 118t-104.5 44q-67 0 -104.5 -43.5t-37.5 -120.5q0 -49 30.5 -119.5t86.5 -146.5zM836 276l-338 492q-106 -69 -157.5 -151t-51.5 -185q0 -128 80 -217q41 -44 90 -66t110 -22q74 0 144 39t123 110zM1026 0l-106 150
q-73 -86 -170.5 -131.5t-210.5 -45.5q-188 0 -306 125q-58 63 -88 144.5t-30 181.5q0 144 72 252.5t235 206.5q-68 90 -108 182.5t-40 165.5q0 138 84.5 225.5t223.5 87.5q130 0 215.5 -83.5t85.5 -213.5q0 -113 -63 -209t-193 -176l295 -430q5 15 13.5 52t15.5 73t13 93
q3 27 7 67h164q0 -59 -12 -126q-8 -47 -27 -114q-30 -104 -78 -178l207 -299h-199z" />
    <glyph glyph-name="quotesingle" unicode="'" horiz-adv-x="317" 
d="M229 1436v-555h-139v555h139z" />
    <glyph glyph-name="parenleft" unicode="(" horiz-adv-x="653" 
d="M504 -449q-167 274 -242.5 511t-75.5 491q0 268 78.5 512t239.5 475h117q-134 -207 -195 -439q-29 -113 -45 -251.5t-16 -290.5q0 -211 21.5 -364.5t70.5 -282.5q30 -81 72 -175q17 -39 42.5 -90.5t49.5 -95.5h-117z" />
    <glyph glyph-name="parenright" unicode=")" horiz-adv-x="653" 
d="M172 -449h-117q50 97 87 179q19 43 38 89.5t37 92.5q47 128 70.5 287t23.5 360q0 310 -60.5 541t-195.5 440h117q159 -231 238 -476.5t79 -510.5q0 -251 -75.5 -490.5t-241.5 -511.5z" />
    <glyph glyph-name="asterisk" unicode="*" horiz-adv-x="1024" 
d="M510 1057l-178 -260l-117 84l201 245l-295 80l45 137l283 -102v299h122v-299l281 98l51 -131l-297 -82l201 -245l-117 -84z" />
    <glyph glyph-name="plus" unicode="+" horiz-adv-x="1706" 
d="M924 1221v-541h528v-139h-528v-541h-142v541h-528v139h528v541h142z" />
    <glyph glyph-name="comma" unicode="," horiz-adv-x="512" 
d="M160 -295v96q41 7 63.5 56.5t22.5 132.5v10h-86v211h182v-211q0 -116 -48.5 -194.5t-133.5 -100.5z" />
    <glyph glyph-name="hyphen" unicode="-" horiz-adv-x="676" 
d="M90 485v181h494v-181h-494z" />
    <glyph glyph-name="hyphen" unicode="&#xad;" horiz-adv-x="676" 
d="M90 485v181h494v-181h-494z" />
    <glyph glyph-name="period" unicode="." horiz-adv-x="512" 
d="M164 0v211h182v-211h-182z" />
    <glyph glyph-name="slash" unicode="/" horiz-adv-x="569" 
d="M582 1577l-549 -1767h-111l549 1767h111z" />
    <glyph glyph-name="zero" unicode="0" horiz-adv-x="1020" 
d="M272 766q0 -186 13 -314t40 -197q54 -136 187 -136q131 0 183.5 124t52.5 521q0 185 -13 310.5t-40 192.5q-53 132 -185 132q-134 0 -186 -127q-26 -64 -39 -188.5t-13 -317.5zM94 762q0 432 96 609t320 177q114 0 194 -49t138 -153q43 -78 64 -214q10 -67 15 -157.5
t5 -214.5q0 -430 -95 -610.5t-315 -180.5q-227 0 -324.5 177t-97.5 616z" />
    <glyph glyph-name="one" unicode="1" horiz-adv-x="1020" 
d="M481 0v1133h-327v131h20q164 0 247 70q43 36 67 90t24 126h135v-1550h-166z" />
    <glyph glyph-name="two" unicode="2" horiz-adv-x="1020" 
d="M100 1l-2 22v36q0 149 66.5 283.5t202.5 255.5l75 67q159 141 207 197q41 47 60.5 113t19.5 149q0 133 -59 204t-168 71q-111 0 -167 -79t-56 -239l1 -17l1 -34h-166l-1 27l-1 28q0 224 103.5 345.5t293.5 121.5q185 0 291 -110.5t106 -308.5q0 -100 -20.5 -177.5
t-65 -144t-201.5 -194.5l-59 -48q-158 -130 -222 -224q-32 -47 -49.5 -94.5t-17.5 -92.5h648v-158z" />
    <glyph glyph-name="three" unicode="3" horiz-adv-x="1020" 
d="M82 459h170v-25q0 -160 57.5 -237.5t177.5 -77.5q125 0 190.5 79.5t65.5 233.5q0 153 -74 227t-231 74l-33 -1l-19 -1l-1 141h35q147 0 213.5 66t66.5 207q0 120 -57.5 188t-163.5 68q-101 0 -154 -72t-53 -213v-24h-163v22q0 203 99.5 318.5t274.5 115.5q179 0 283 -103
t104 -282q0 -141 -58 -234t-159 -112q135 -24 201 -117t66 -260q0 -223 -113.5 -347t-319.5 -124q-197 0 -301 122t-104 353v15z" />
    <glyph glyph-name="four" unicode="4" horiz-adv-x="1020" 
d="M205 541h416l18 788zM621 0v393h-558v150l572 1005h149v-1007h144v-148h-144v-393h-163z" />
    <glyph glyph-name="five" unicode="5" horiz-adv-x="1020" 
d="M88 405l168 1v-13q0 -129 60 -200.5t169 -71.5q119 0 183.5 97t64.5 278q0 182 -63 274t-189 92q-82 0 -138 -37t-79 -106l-145 12l84 791h649v-156h-516l-55 -459q21 49 88.5 80t152.5 31q180 0 284.5 -133t104.5 -367q0 -259 -111 -404t-313 -145q-192 0 -295.5 112.5
t-103.5 323.5z" />
    <glyph glyph-name="six" unicode="6" horiz-adv-x="1020" 
d="M279 500q0 -184 65.5 -283.5t185.5 -99.5q112 0 173 98t61 279q0 169 -62.5 258.5t-183.5 89.5q-123 0 -181 -82t-58 -260zM258 797q36 92 111.5 142t177.5 50q183 0 288 -129t105 -358q0 -246 -111 -389.5t-299 -143.5q-226 0 -330 175.5t-104 562.5q0 451 105 647
t340 196q162 0 259 -100t97 -268h-170v10q0 97 -51.5 153t-140.5 56q-137 0 -198 -124q-33 -68 -54 -181q-25 -135 -25 -299z" />
    <glyph glyph-name="seven" unicode="7" horiz-adv-x="1020" 
d="M240 0q24 197 68.5 376.5t113.5 350.5q136 339 358 627h-688v168h836v-148q-223 -295 -348 -644q-70 -194 -105 -356q-43 -196 -43 -374h-192z" />
    <glyph glyph-name="eight" unicode="8" horiz-adv-x="1020" 
d="M508 1405q-96 0 -146.5 -65.5t-50.5 -190.5q0 -112 53.5 -178t143.5 -66q100 0 153.5 65.5t53.5 186.5q0 115 -54.5 181.5t-152.5 66.5zM270 459q0 -169 61.5 -254.5t182.5 -85.5q109 0 172.5 83.5t63.5 229.5q0 167 -60.5 246.5t-185.5 79.5q-110 0 -172 -78.5
t-62 -220.5zM362 831q-107 30 -162 111t-55 213q0 186 98.5 290.5t272.5 104.5q168 0 267.5 -102.5t99.5 -280.5q0 -133 -54.5 -215t-166.5 -114q135 -30 199.5 -124.5t64.5 -262.5q0 -229 -108.5 -355.5t-307.5 -126.5q-189 0 -302.5 124.5t-113.5 334.5q0 168 70.5 274.5
t197.5 128.5z" />
    <glyph glyph-name="nine" unicode="9" horiz-adv-x="1020" 
d="M741 1020q0 183 -65.5 282t-186.5 99q-111 0 -172 -97t-61 -280q0 -172 62.5 -259t183.5 -87q123 0 181 83t58 259zM762 721q-36 -92 -111 -142.5t-178 -50.5q-183 0 -288 130t-105 360q0 245 111 388.5t298 143.5q228 0 331.5 -175t103.5 -562q0 -450 -104.5 -647
t-340.5 -197q-162 0 -260 101t-98 268h172v-10q0 -96 51 -152.5t141 -56.5q135 0 197 123q34 70 55 181q25 133 25 298z" />
    <glyph glyph-name="colon" unicode=":" horiz-adv-x="512" 
d="M164 926v211h182v-211h-182zM164 0v211h182v-211h-182z" />
    <glyph glyph-name="semicolon" unicode=";" horiz-adv-x="512" 
d="M164 926v211h182v-211h-182zM164 -295v96q40 7 64 56.5t24 132.5v10h-88v211h182v-211q0 -116 -48.5 -194.5t-133.5 -100.5z" />
    <glyph glyph-name="semicolon" unicode="&#x37e;" horiz-adv-x="512" 
d="M164 926v211h182v-211h-182zM164 -295v96q40 7 64 56.5t24 132.5v10h-88v211h182v-211q0 -116 -48.5 -194.5t-133.5 -100.5z" />
    <glyph glyph-name="less" unicode="&#x3c;" horiz-adv-x="1706" 
d="M1442 1006l-969 -396l969 -393v-154l-1178 484v129l1178 483v-153z" />
    <glyph glyph-name="equal" unicode="=" horiz-adv-x="1706" 
d="M1452 481v-139h-1198v139h1198zM1452 879v-140h-1198v140h1198z" />
    <glyph glyph-name="greater" unicode="&#x3e;" horiz-adv-x="1706" 
d="M1442 676v-129l-1178 -484v154l971 393l-971 396v153z" />
    <glyph glyph-name="question" unicode="?" horiz-adv-x="1018" 
d="M430 388v12q0 6 -2 22v43q0 104 30.5 185.5t133.5 203.5l16 19q131 155 131 311q0 112 -54.5 177.5t-147.5 65.5q-105 0 -161.5 -78.5t-56.5 -226.5v-30h-165v26q0 222 97.5 340.5t283.5 118.5q177 0 281 -107t104 -290q0 -185 -180 -397l-3 -3l-2 -2
q-149 -175 -149 -329v-36q0 -17 2 -25h-158zM422 0v211h170v-211h-170z" />
    <glyph glyph-name="at" unicode="@" horiz-adv-x="2048" 
d="M1284 854l57 115h132l-146 -576l-6 -31l-2 -28q0 -45 25.5 -69.5t74.5 -24.5q25 0 50 6t52 20q53 27 107 76q78 73 124 185t46 235q0 259 -190.5 420t-499.5 161q-134 0 -247 -27.5t-210 -86.5q-189 -113 -295 -299t-106 -410q0 -177 61 -307.5t193 -230.5
q99 -76 236 -118t288 -42q169 0 327 48t294 142l55 -82q-145 -109 -313 -166t-351 -57q-192 0 -349.5 47t-278.5 140q-152 116 -229 274t-77 354q0 166 51.5 312.5t151.5 269.5q146 177 352 269.5t455 92.5q161 0 309 -45t254 -127q127 -98 196 -230t69 -284
q0 -175 -63.5 -314.5t-184.5 -236.5q-31 -25 -70 -46.5t-80 -36.5q-82 -29 -166 -29q-99 0 -149.5 39t-50.5 118v19q-54 -88 -128.5 -131t-172.5 -43q-153 0 -233.5 85t-80.5 247q0 233 138 393t339 160q43 0 78.5 -9t66.5 -29q60 -36 97 -112zM1190 475l59 236
q-16 86 -68 135t-130 49q-138 0 -232 -130t-94 -319q0 -105 48 -162t138 -57q96 0 174 69t105 179z" />
    <glyph glyph-name="A" unicode="A" horiz-adv-x="1126" 
d="M356 600h410l-205 807zM31 0l420 1540h219l426 -1540h-174l-117 444h-488l-112 -444h-174z" />
    <glyph glyph-name="B" unicode="B" horiz-adv-x="1108" 
d="M303 885h180q161 0 227 60t66 206q0 138 -66.5 195t-236.5 57h-170v-518zM303 152h219q155 0 225 66t70 216q0 168 -73.5 238.5t-251.5 70.5h-189v-591zM137 0v1540h402q217 0 314 -91t97 -294q0 -140 -52 -222.5t-161 -113.5q133 -27 197.5 -120t64.5 -257
q0 -211 -116.5 -326.5t-327.5 -115.5h-418z" />
    <glyph glyph-name="C" unicode="C" horiz-adv-x="1157" 
d="M866 565h170q0 -145 -31 -257t-91 -191q-118 -154 -341 -154q-236 0 -351.5 196.5t-115.5 606.5q0 429 113.5 620t366.5 191q209 0 324.5 -123t115.5 -348v-19h-166q0 158 -74 248t-202 90q-155 0 -225 -152.5t-70 -506.5q0 -175 17 -296t54 -197q71 -146 234 -146
q131 0 201.5 108t70.5 306v24z" />
    <glyph glyph-name="D" unicode="D" horiz-adv-x="1192" 
d="M309 147h223q108 0 167.5 21.5t93.5 71.5q54 78 78 196t24 332q0 372 -78 497.5t-291 125.5h-217v-1244zM137 0v1540h436q260 0 385 -175t125 -544q0 -261 -42.5 -429.5t-133.5 -266.5q-61 -67 -141 -96t-231 -29h-398z" />
    <glyph glyph-name="E" unicode="E" horiz-adv-x="1004" 
d="M137 0v1540h764v-160h-594v-495h555v-156h-555v-567h600v-162h-770z" />
    <glyph glyph-name="F" unicode="F" horiz-adv-x="885" 
d="M137 0v1540h711v-156h-535v-495h498v-160h-498v-729h-176z" />
    <glyph glyph-name="G" unicode="G" horiz-adv-x="1214" 
d="M954 0l-10 213q-42 -121 -133.5 -185.5t-220.5 -64.5q-248 0 -366 198t-118 619q0 417 123 607t396 190q207 0 326 -126q59 -62 89.5 -150.5t30.5 -200.5h-170q0 79 -20 138.5t-59 105.5q-74 86 -206 86q-179 0 -255 -157.5t-76 -541.5q0 -308 81 -458q41 -74 102 -111
t146 -37q150 0 230 116t80 337l-1 41l-1 28h-349v156h514v-803h-133z" />
    <glyph glyph-name="H" unicode="H" 
d="M137 0v1540h176v-635h574v635h176v-1540h-176v750h-574v-750h-176z" />
    <glyph glyph-name="I" unicode="I" horiz-adv-x="451" 
d="M137 0v1540h176v-1540h-176z" />
    <glyph glyph-name="J" unicode="J" horiz-adv-x="862" 
d="M35 477h166v-149q0 -109 44 -163t130 -54q104 0 144 64q20 32 30 102t10 184v1079h166v-1196q0 -192 -87.5 -285.5t-270.5 -93.5q-163 0 -247.5 98t-84.5 289v125z" />
    <glyph glyph-name="K" unicode="K" horiz-adv-x="1110" 
d="M137 0v1540h170v-741l557 741h199l-479 -622l514 -918h-209l-420 768l-162 -211v-557h-170z" />
    <glyph glyph-name="L" unicode="L" horiz-adv-x="975" 
d="M137 0v1540h172v-1374h615v-166h-787z" />
    <glyph glyph-name="M" unicode="M" horiz-adv-x="1511" 
d="M1204 0v1452l-375 -1452h-167l-359 1452v-1452h-168v1540h289l324 -1313l339 1313h285v-1540h-168z" />
    <glyph glyph-name="N" unicode="N" horiz-adv-x="1188" 
d="M137 0v1540h230l534 -1321l-16 1321h166v-1540h-220l-542 1360l14 -1360h-166z" />
    <glyph glyph-name="O" unicode="O" 
d="M285 770q0 -372 70.5 -513.5t244.5 -141.5t244.5 139t70.5 516q0 376 -69.5 514.5t-245.5 138.5q-173 0 -244 -142.5t-71 -510.5zM106 770q0 431 116.5 619t377.5 188q263 0 378.5 -187t115.5 -620q0 -434 -114.5 -620.5t-379.5 -186.5q-259 0 -376.5 189.5t-117.5 617.5
z" />
    <glyph glyph-name="P" unicode="P" horiz-adv-x="1085" 
d="M309 803h226q156 0 229.5 75t73.5 234q0 148 -74 213.5t-240 65.5h-215v-588zM137 0v1540h395q252 0 368 -103t116 -327q0 -228 -120.5 -345.5t-356.5 -117.5h-230v-647h-172z" />
    <glyph glyph-name="Q" unicode="Q" 
d="M780 170l-162 137l99 115l145 -123q26 92 39.5 209t13.5 242q0 394 -69.5 533.5t-245.5 139.5q-172 0 -242.5 -141.5t-70.5 -511.5q0 -373 69.5 -514t243.5 -141q65 0 105 13q42 12 75 42zM907 61q-43 -48 -122.5 -73t-184.5 -25q-259 0 -376.5 189.5t-117.5 617.5
q0 431 116.5 619t377.5 188q263 0 378.5 -187t115.5 -620q0 -107 -6 -193.5t-20 -164.5q-25 -148 -75 -228l174 -141l-92 -117z" />
    <glyph glyph-name="R" unicode="R" horiz-adv-x="1196" 
d="M305 834h209q179 0 264.5 69.5t85.5 216.5q0 140 -75.5 204.5t-241.5 64.5h-242v-555zM137 0v1540h432q239 0 355 -97t116 -298q0 -154 -69.5 -246.5t-216.5 -130.5q62 0 110 -22t82 -61q63 -72 78 -223l11 -155q0 -118 23 -197.5t58 -109.5h-213q-17 28 -29 93.5
t-12 157.5q0 49 -4 93.5t-6 63.5q-14 159 -82.5 217.5t-245.5 58.5h-219v-684h-168z" />
    <glyph glyph-name="S" unicode="S" horiz-adv-x="1098" 
d="M104 489h164v-55q0 -156 72 -236.5t215 -80.5q128 0 201 77.5t73 211.5q0 107 -44 165.5t-201 118.5l-104 39q-185 67 -226 102q-63 57 -95 136.5t-32 181.5q0 200 111 314t309 114q187 0 294 -105t107 -290l-1 -20l-1 -19h-158v16q0 129 -63.5 200t-179.5 71
q-121 0 -189.5 -67t-68.5 -183q0 -109 46.5 -169t205.5 -118l56 -21q241 -89 288 -133q57 -52 84 -129q14 -39 21 -82.5t7 -99.5q0 -219 -120.5 -341t-337.5 -122q-214 0 -324.5 120.5t-110.5 352.5l1 25z" />
    <glyph glyph-name="T" unicode="T" horiz-adv-x="995" 
d="M422 0v1382h-393v158h938v-158h-369v-1382h-176z" />
    <glyph glyph-name="U" unicode="U" horiz-adv-x="1180" 
d="M139 1540h172v-1036q0 -216 61.5 -300.5t209.5 -84.5q149 0 220.5 93.5t71.5 291.5v1036h168v-1005q0 -197 -21.5 -276.5t-74.5 -141.5q-63 -75 -156 -113.5t-210 -38.5q-122 0 -217.5 41.5t-151.5 118.5q-38 49 -56 133q-8 43 -12 108.5t-4 168.5v1005z" />
    <glyph glyph-name="V" unicode="V" horiz-adv-x="1075" 
d="M436 0l-430 1540h187l346 -1327l356 1327h172l-424 -1540h-207z" />
    <glyph glyph-name="W" unicode="W" horiz-adv-x="1620" 
d="M350 0l-325 1540h178l241 -1302l273 1302h196l267 -1292l245 1292h168l-325 -1540h-185l-270 1257l-274 -1257h-189z" />
    <glyph glyph-name="X" unicode="X" horiz-adv-x="1012" 
d="M-25 0l428 797l-407 743h209l305 -584l309 584h197l-412 -739l432 -801h-207l-325 645l-330 -645h-199z" />
    <glyph glyph-name="Y" unicode="Y" horiz-adv-x="1028" 
d="M424 0v596l-455 944h205l340 -758l356 758h187l-459 -944v-596h-174z" />
    <glyph glyph-name="Z" unicode="Z" horiz-adv-x="905" 
d="M47 0v160l621 1220h-586v160h768v-158l-617 -1216h625v-166h-811z" />
    <glyph glyph-name="bracketleft" unicode="[" horiz-adv-x="653" 
d="M233 -434v1974h363v-123h-197v-1726h197v-125h-363z" />
    <glyph glyph-name="backslash" unicode="\" horiz-adv-x="569" 
d="M549 -190l-549 1767h111l548 -1767h-110z" />
    <glyph glyph-name="bracketright" unicode="]" horiz-adv-x="653" 
d="M420 -434h-363v125h197v1726h-197v123h363v-1974z" />
    <glyph glyph-name="asciicircum" unicode="^" horiz-adv-x="2048" 
d="M1116 1458l510 -557h-180l-422 420l-424 -420h-180l510 557h186z" />
    <glyph glyph-name="underscore" unicode="_" horiz-adv-x="1024" 
d="M1024 -340v-143h-1024v143h1024z" />
    <glyph glyph-name="grave" unicode="`" horiz-adv-x="1024" 
d="M633 1276h-101l-247 270h178z" />
    <glyph glyph-name="a" unicode="a" horiz-adv-x="913" 
d="M616 621q-36 -41 -168 -89l-16 -6q-110 -39 -145 -88t-35 -145q0 -86 38 -133t107 -47q99 0 159 75.5t60 204.5v228zM871 -2l-54 -7l-41 -3q-67 0 -107 43q-20 22 -31 51.5t-11 70.5q-36 -88 -106.5 -135t-166.5 -47q-124 0 -194 84t-70 236q0 148 64.5 226.5
t278.5 150.5l3 1q176 59 176 138v106q0 71 -40 103.5t-130 32.5q-84 0 -127 -45t-43 -138v-20h-151q0 171 84 257q81 81 256 81q162 0 238.5 -74.5t76.5 -235.5v-673q0 -45 16 -64.5t52 -19.5l22 3l4 1z" />
    <glyph glyph-name="b" unicode="b" horiz-adv-x="981" 
d="M274 584q0 -251 53 -357t173 -106q111 0 162 111t51 364q0 224 -53.5 331t-165.5 107q-118 0 -169 -100t-51 -350zM125 0v1540h160v-508q21 65 90.5 105.5t159.5 40.5q168 0 261 -147.5t93 -418.5q0 -309 -92.5 -472t-270.5 -163q-91 0 -160.5 45.5t-91.5 122.5v-145
h-149z" />
    <glyph glyph-name="c" unicode="c" horiz-adv-x="942" 
d="M680 406h158q0 -207 -96 -322t-271 -115q-192 0 -284.5 151t-92.5 464q0 299 96 448.5t291 149.5q159 0 253.5 -99t94.5 -268v-24h-157q0 58 -13.5 104t-38.5 80q-47 63 -133 63q-116 0 -167.5 -105t-51.5 -355q0 -253 51 -359t170 -106q89 0 139 75q25 39 38.5 93
t13.5 125z" />
    <glyph glyph-name="d" unicode="d" horiz-adv-x="975" 
d="M705 584q0 254 -49 352t-169 98q-112 0 -166.5 -107t-54.5 -331q0 -249 51 -362t164 -113q119 0 171.5 106t52.5 357zM856 0h-151v145q-21 -74 -90 -121t-160 -47q-176 0 -270.5 162t-94.5 473q0 269 93.5 417.5t262.5 148.5q91 0 159.5 -40.5t88.5 -105.5v508h162v-1540
z" />
    <glyph glyph-name="e" unicode="e" horiz-adv-x="901" 
d="M256 700h391v31q0 82 -11 139.5t-36 99.5q-45 81 -139 81q-102 0 -153.5 -86.5t-51.5 -264.5zM649 389h158q0 -203 -92 -311.5t-262 -108.5q-185 0 -274 145.5t-89 448.5q0 322 88.5 471.5t278.5 149.5q178 0 266 -127t88 -387l-1 -62l-1 -38l-553 -1v-51q0 -218 50 -316
t159 -98q84 0 134 75t50 202v8z" />
    <glyph glyph-name="f" unicode="f" horiz-adv-x="532" 
d="M166 0v1020h-162v131h162v156q0 125 66 183t206 58q18 0 29 -2q15 0 39 -6l-1 -143l-33 4l-32 2q-58 0 -83 -23.5t-25 -79.5v-149h174v-131h-174v-1020h-166z" />
    <glyph glyph-name="g" unicode="g" horiz-adv-x="973" 
d="M262 573q0 -121 12 -206.5t38 -139.5q51 -104 165 -104q118 0 169.5 105.5t51.5 359.5q0 237 -53.5 344.5t-171.5 107.5q-110 0 -160.5 -109t-50.5 -358zM127 -106h160q0 -67 52 -106q48 -36 136 -36q117 0 170 77t53 249l-1 25l-1 36q-34 -78 -98.5 -117.5t-157.5 -39.5
q-174 0 -261 156t-87 472q0 281 90 424.5t271 143.5q90 0 154 -42.5t91 -119.5v135h156v-1098q0 -211 -102.5 -326.5t-288.5 -115.5q-146 0 -241 77.5t-95 198.5v7z" />
    <glyph glyph-name="h" unicode="h" horiz-adv-x="963" 
d="M123 0v1540h162v-514q45 74 113 113q71 37 165 37q132 0 206.5 -68.5t74.5 -192.5v-915h-162v838q0 101 -38.5 147.5t-123.5 46.5q-107 0 -171 -68.5t-64 -183.5v-780h-162z" />
    <glyph glyph-name="i" unicode="i" horiz-adv-x="408" 
d="M121 1331v209h166v-209h-166zM121 0v1151h166v-1151h-166z" />
    <glyph glyph-name="j" unicode="j" horiz-adv-x="426" 
d="M147 1333v207h160v-209zM20 -387v137h9q69 0 93.5 27.5t24.5 124.5v1249h160v-1262q0 -145 -62.5 -210.5t-203.5 -65.5h-21z" />
    <glyph glyph-name="k" unicode="k" horiz-adv-x="868" 
d="M123 0v1540h156v-911l393 522h188l-344 -436l371 -715h-197l-284 567l-127 -157v-410h-156z" />
    <glyph glyph-name="l" unicode="l" horiz-adv-x="401" 
d="M121 0v1540h160v-1540h-160z" />
    <glyph glyph-name="m" unicode="m" horiz-adv-x="1528" 
d="M123 0v1151h149v-139q46 80 123 123t180 43q96 0 159.5 -42.5t88.5 -125.5q26 42 56.5 73.5t68.5 52.5q74 42 174 42q140 0 214.5 -72.5t74.5 -210.5v-895h-166v795q0 139 -36 189t-126 50q-103 0 -168 -65t-65 -168v-801h-166v801q0 126 -38.5 179.5t-127.5 53.5
q-105 0 -171 -63t-66 -162v-809h-158z" />
    <glyph glyph-name="n" unicode="n" horiz-adv-x="963" 
d="M123 0v1151h151v-143q42 84 114 126t175 42q152 0 216.5 -77t64.5 -265v-834h-162v846q0 93 -40 139.5t-122 46.5q-108 0 -171.5 -68t-63.5 -184v-780h-162z" />
    <glyph glyph-name="o" unicode="o" horiz-adv-x="989" 
d="M90 575q0 309 99 459t305 150q207 0 306 -147.5t99 -461.5q0 -313 -98 -459.5t-307 -146.5q-210 0 -307 146t-97 460zM262 575q0 -259 53 -364t179 -105q123 0 177 107.5t54 361.5t-53.5 360.5t-177.5 106.5q-123 0 -177.5 -104.5t-54.5 -362.5z" />
    <glyph glyph-name="p" unicode="p" horiz-adv-x="975" 
d="M279 580q0 -237 56 -350t173 -113q107 0 156 109q23 53 36 144t13 212q0 120 -12 205.5t-38 139.5q-50 107 -161 107q-119 0 -171 -104.5t-52 -349.5zM123 -389v1540h156v-145q18 76 87 124t156 48q182 0 273.5 -151t91.5 -449q0 -311 -84.5 -457t-265.5 -146
q-83 0 -146 38.5t-102 109.5v-512h-166z" />
    <glyph glyph-name="q" unicode="q" horiz-adv-x="975" 
d="M696 580q0 245 -51.5 349.5t-171.5 104.5q-110 0 -160.5 -106.5t-50.5 -345.5q0 -245 48 -355t157 -110q115 0 172 113.5t57 349.5zM852 -389h-166v512q-35 -69 -100.5 -108.5t-147.5 -39.5q-180 0 -265 146.5t-85 456.5q0 298 91.5 449t273.5 151q88 0 156.5 -48.5
t86.5 -123.5v145h156v-1540z" />
    <glyph glyph-name="r" unicode="r" horiz-adv-x="596" 
d="M123 0v1151h149v-188q34 99 105 157t162 58l41 -1l28 -3v-172l-29 10l-34 4q-123 0 -192.5 -81.5t-69.5 -229.5v-705h-160z" />
    <glyph glyph-name="s" unicode="s" horiz-adv-x="909" 
d="M92 346h160l-1 -6l-3 -33q0 -93 54 -142.5t155 -49.5q93 0 146.5 50t53.5 136q0 135 -209 208l-4 1q-208 72 -270.5 145t-62.5 209q0 150 89 235t246 85q167 0 252.5 -81.5t85.5 -238.5v-16h-153q0 52 -12 88.5t-35 62.5q-42 48 -131 48q-92 0 -140.5 -44.5t-48.5 -132.5
q0 -38 12 -68.5t37 -51.5q42 -36 175 -80q73 -22 108 -37q117 -44 169 -115t52 -188q0 -173 -100 -267t-283 -94q-168 0 -255 90t-87 263v24z" />
    <glyph glyph-name="t" unicode="t" horiz-adv-x="504" 
d="M307 238q0 -72 26.5 -94.5t123.5 -22.5h21q11 0 15 2l1 -141l-40 -2l-79 -3q-113 0 -169 45.5t-56 137.5v858h-160v133h160v307h157v-307h187v-133h-187v-780z" />
    <glyph glyph-name="u" unicode="u" horiz-adv-x="963" 
d="M682 0v150q-33 -86 -108 -133.5t-179 -47.5q-145 0 -210.5 71t-65.5 226v885h168v-889q0 -71 35.5 -110t99.5 -39q115 0 180.5 72.5t65.5 201.5v764h163v-1151h-149z" />
    <glyph glyph-name="v" unicode="v" horiz-adv-x="872" 
d="M344 0l-311 1151h176l225 -903l236 903h168l-320 -1151h-174z" />
    <glyph glyph-name="w" unicode="w" horiz-adv-x="1364" 
d="M338 0l-295 1151h166l213 -920l178 920h164l199 -922l198 922h160l-279 -1151h-159l-201 893l-176 -893h-168z" />
    <glyph glyph-name="x" unicode="x" horiz-adv-x="825" 
d="M-18 0l327 596l-305 555h184l222 -414l225 414h180l-307 -543l334 -608h-189l-247 467l-242 -467h-182z" />
    <glyph glyph-name="y" unicode="y" horiz-adv-x="909" 
d="M78 -369v146q23 -10 50 -16q16 -3 24 -4t26 -1q70 0 112 48q20 23 41 70t42 116l-338 1161h174l246 -928l254 928h165l-354 -1202q-55 -194 -128.5 -265t-207.5 -71q-9 0 -21.5 1t-26.5 4q-28 3 -58 13z" />
    <glyph glyph-name="z" unicode="z" horiz-adv-x="793" 
d="M47 0v147l494 859h-473v145h665v-129l-504 -868h514v-154h-696z" />
    <glyph glyph-name="braceleft" unicode="{" horiz-adv-x="1024" 
d="M866 1327h-41q-119 0 -160.5 -44.5t-41.5 -184.5v-242q0 -159 -44 -226.5t-157 -99.5q112 -27 156.5 -95.5t44.5 -229.5v-242q0 -141 41.5 -185t162.5 -44h39v-148h-43q-107 0 -168 11.5t-104 37.5q-54 33 -78 97q-22 66 -22 211v245q0 149 -55 210t-185 61l-22 -1
l-21 -1v149l23 -1l22 -1q128 0 183 60t55 208v246q0 148 22 210t78 97q44 26 107.5 39t170.5 13h37v-150z" />
    <glyph glyph-name="bar" unicode="|" horiz-adv-x="1024" 
d="M588 1565v-2048h-150v2048h150z" />
    <glyph glyph-name="braceright" unicode="}" horiz-adv-x="1024" 
d="M575 1118v-246q0 -146 54 -207t184 -61l22 1l23 1v-149l-22 1l-21 1q-132 0 -186 -60.5t-54 -210.5v-245q0 -149 -22 -211.5t-78 -96.5q-41 -25 -102 -37t-170 -12h-43v148h39q120 0 162 45t42 186v240q0 161 44.5 228t156.5 97q-111 30 -156 98t-45 228v242
q0 139 -42 184t-162 45h-39v150h37q53 0 95 -3t76 -10q62 -12 107 -39q53 -32 76.5 -96t23.5 -211z" />
    <glyph glyph-name="asciitilde" unicode="~" horiz-adv-x="1706" 
d="M1530 614q-101 -70 -199 -107q-46 -16 -94.5 -25t-95.5 -9t-109 14t-147 44l-34 12l-15 5q-176 60 -273 60q-41 0 -85 -9t-90 -28q-90 -36 -210 -120v155q106 72 202 108t185 36q33 0 62.5 -3t64.5 -11q64 -12 164 -48l47 -17q159 -57 240 -57q87 0 179.5 37t207.5 119
v-156z" />
    <glyph glyph-name="sterling" unicode="&#xa3;" horiz-adv-x="1020" 
d="M147 -37l-88 133q111 71 175.5 180.5t64.5 227.5q0 55 -11 99q-10 48 -34 95h-195v93h150q-50 69 -77.5 153t-27.5 172q0 196 117 315t309 119q200 0 308 -113.5t108 -324.5v-33h-164v19q0 143 -66.5 223t-187.5 80q-113 0 -178 -73t-65 -206q0 -88 27 -173t79 -158h326
v-93h-287q20 -65 27.5 -99t7.5 -56q0 -102 -60.5 -209.5t-177.5 -208.5q59 34 118.5 52t115.5 18q62 0 161 -26t144 -26q24 0 44.5 3t41.5 11q38 15 82 48l55 -139q-54 -43 -118 -67t-130 -24q-56 0 -174 39t-188 39q-34 0 -62.5 -5t-60.5 -18q-57 -21 -109 -67z" />
    <glyph glyph-name="currency" unicode="&#xa4;" horiz-adv-x="1014" 
 />
    <glyph glyph-name="yen" unicode="&#xa5;" horiz-adv-x="1262" 
 />
    <glyph glyph-name="brokenbar" unicode="&#xa6;" horiz-adv-x="1014" 
 />
    <glyph glyph-name="section" unicode="&#xa7;" horiz-adv-x="1024" 
d="M643 418q55 33 82 81t27 113q0 128 -266 292l-107 67q-54 -33 -81.5 -78.5t-27.5 -108.5q0 -58 22.5 -103t67.5 -77l112 -74q47 -30 90 -58q51 -33 81 -54zM172 145h160v-24q0 -97 38.5 -138.5t127.5 -41.5q82 0 124 41.5t42 123.5q0 118 -188 225q-38 21 -59 34
q-33 19 -46 28q-151 94 -198.5 166.5t-47.5 179.5q0 111 41 183.5t125 113.5q-49 41 -72.5 95.5t-23.5 125.5q0 156 82 238t239 82q150 0 228.5 -80t78.5 -233v-29h-157v10q0 99 -35.5 144t-114.5 45q-81 0 -120.5 -40t-39.5 -124q0 -107 179 -202l104 -58
q156 -93 208 -169.5t52 -191.5q0 -109 -39 -178.5t-129 -122.5q48 -36 73 -94.5t25 -130.5q0 -156 -84 -241t-241 -85q-168 0 -251 75.5t-83 229.5v27q0 11 2 16z" />
    <glyph glyph-name="copyright" unicode="&#xa9;" horiz-adv-x="1706" 
d="M1053 907q-12 76 -65.5 118t-139.5 42q-105 0 -165 -90.5t-60 -249.5q0 -156 62 -244t173 -88q82 0 136 47t69 129h145q0 -62 -28 -115t-80 -96q-98 -81 -248 -81q-181 0 -285 120.5t-104 333.5q0 200 108.5 322.5t286.5 122.5q140 0 235 -75t107 -196h-147zM1493 727
q0 129 -47.5 246.5t-138 207t-207 138.5t-246.5 49q-131 0 -245.5 -47t-204.5 -138t-140.5 -210t-50.5 -246q0 -126 48 -241t142 -210q90 -88 206.5 -138t244.5 -50q125 0 242.5 48.5t212.5 142.5q89 86 136.5 201.5t47.5 246.5zM852 1464q153 0 285.5 -54.5t237.5 -159
t160.5 -240.5t55.5 -283q0 -150 -55 -282q-27 -66 -66.5 -124.5t-91.5 -109.5q-108 -105 -244.5 -163t-281.5 -58q-146 0 -278 55.5t-238.5 162t-163.5 239.5q-27 67 -41 136.5t-14 143.5q0 148 56 282.5t163 241.5q103 103 236.5 158t279.5 55z" />
    <glyph glyph-name="registered" unicode="&#xae;" horiz-adv-x="1706" 
d="M844 1057h-129v-277h133q113 0 162 31.5t49 101.5q0 74 -51 110q-53 34 -164 34zM872 1159q175 0 262 -58t87 -171q0 -89 -49 -147t-142 -78l187 -381h-177l-170 356h-155v-356h-158v835h315zM1493 721q0 135 -45.5 250.5t-137 208t-208.5 139.5q-56 23 -119.5 36
t-128.5 13q-130 0 -244.5 -46.5t-201.5 -135.5q-92 -94 -143.5 -214t-51.5 -245q0 -124 48.5 -240.5t139 -207.5t208 -141t239.5 -50q129 0 247 48.5t212 139.5q90 87 138 201.5t48 243.5zM852 1464q78 0 146.5 -13t139.5 -43q136 -56 240 -163q101 -102 158 -238
q27 -67 41 -136.5t14 -143.5q0 -150 -54.5 -283.5t-161.5 -236.5t-243.5 -160t-279.5 -57q-148 0 -279.5 56t-240.5 165q-104 105 -159.5 238.5t-55.5 277.5q0 145 57 282t166 246q101 102 232 155.5t280 53.5z" />
    <glyph glyph-name="paragraph" unicode="&#xb6;" horiz-adv-x="1024" 
d="M949 1439v-78h-127v-1365h-102v1365h-146v-1365h-104v738q-170 8 -273.5 104.5t-103.5 247.5q0 157 109.5 255t293.5 98h453z" />
    <glyph glyph-name="periodcentered" unicode="&#xb7;" horiz-adv-x="508" 
d="M146 741l82 84q18 17 38 17q19 0 40 -19l81 -87q12 -16 12 -29q0 -15 -15 -31l-80 -89q-23 -23 -38 -23q-22 0 -38 18l-89 101q-10 13 -10 26q0 15 17 32z" />
    <glyph glyph-name="periodcentered" unicode="&#x2219;" horiz-adv-x="508" 
d="M146 741l82 84q18 17 38 17q19 0 40 -19l81 -87q12 -16 12 -29q0 -15 -15 -31l-80 -89q-23 -23 -38 -23q-22 0 -38 18l-89 101q-10 13 -10 26q0 15 17 32z" />
    <glyph glyph-name="uni00B9" unicode="&#xb9;" horiz-adv-x="421" 
d="M237 815h-122v599l-33 -33l-82 83l180 178h57v-827z" />
    <glyph glyph-name="ordmasculine" unicode="&#xba;" horiz-adv-x="718" 
 />
    <glyph glyph-name="guillemotright" unicode="&#xbb;" horiz-adv-x="944" 
 />
    <glyph glyph-name="onequarter" unicode="&#xbc;" horiz-adv-x="1628" 
d="M1114 303h262l13 440zM1376 0v221h-350v82l358 563h95v-563h90v-82h-90v-221h-103zM426 -31h-125l899 1581h125zM303 668v635h-207v73h13q103 0 156 39q27 20 42 50.5t15 70.5h86v-868h-105z" />
    <glyph glyph-name="onehalf" unicode="&#xbd;" horiz-adv-x="1628" 
d="M1048 1l-1 12v20q0 86 41.5 159.5t128.5 143.5l61 48q87 69 117 99q24 27 36.5 62.5t12.5 83.5q0 73 -37 113t-107 40t-104.5 -43.5t-34.5 -132.5v-28h-104v30q0 126 64.5 193t185.5 67q118 0 183.5 -61t65.5 -172q0 -57 -12.5 -99t-39 -79.5t-119.5 -104.5l-45 -32
q-103 -75 -142 -128q-19 -25 -30 -51.5t-11 -51.5l408 -1v-88zM426 -31h-125l899 1581h125zM303 668v635h-207v73h13q103 0 156 39q27 20 42 50.5t15 70.5h86v-868h-105z" />
    <glyph glyph-name="threequarters" unicode="&#xbe;" horiz-adv-x="1626" 
d="M1114 303h262l13 440zM1376 0v221h-350v82l358 563h95v-563h90v-82h-90v-221h-103zM426 -31h-125l899 1581h125zM51 924h107v-13q0 -88 36.5 -133t112.5 -45q79 0 120.5 45.5t41.5 130.5q0 86 -47 127t-146 41h-34v80h22q92 0 134 36t42 116q0 67 -36 105t-103 38
q-63 0 -96 -40t-33 -120v-14h-104v14q0 113 63.5 177.5t173.5 64.5q113 0 178.5 -57.5t65.5 -157.5q0 -79 -37 -131t-100 -64q84 -13 126 -65t42 -146q0 -122 -72 -192t-201 -70q-124 0 -190 68t-66 199v6z" />
    <glyph glyph-name="ellipsis" unicode="&#x2026;" horiz-adv-x="2048" 
d="M250 0v211h182v-211h-182zM932 0v211h182v-211h-182zM1616 0v211h182v-211h-182z" />
    <glyph glyph-name="Ahuyen" unicode="&#xc0;" horiz-adv-x="1126" 
d="M356 600h410l-205 807zM31 0l420 1540h219l426 -1540h-174l-117 444h-488l-112 -444h-174zM684 1688h-101l-247 270h178z" />
    <glyph glyph-name="Asac" unicode="&#xc1;" horiz-adv-x="1126" 
d="M356 600h410l-205 807zM31 0l420 1540h219l426 -1540h-174l-117 444h-488l-112 -444h-174zM442 1686l170 272h178l-247 -272h-101z" />
    <glyph glyph-name="Ahoi" unicode="&#x1ea2;" horiz-adv-x="1126" 
d="M356 600h410l-205 807zM31 0l420 1540h219l426 -1540h-174l-117 444h-488l-112 -444h-174zM512 1606v10q0 3 -1 8v14q0 34 10.5 61.5t45.5 68.5l5 7q43 51 43 103q0 38 -15.5 56.5t-35.5 18.5q-24 0 -40.5 -23t-16.5 -73v-16h-87v15q0 74 35.5 116.5t107.5 42.5
q69 0 106.5 -38.5t37.5 -99.5q0 -62 -62 -135l-17 -17q-32 -41 -32 -92v-12q0 -6 2 -15h-86z" />
    <glyph glyph-name="Anga" unicode="&#xc3;" horiz-adv-x="1126" 
d="M356 600h410l-205 807zM31 0l420 1540h219l426 -1540h-174l-117 444h-488l-112 -444h-174zM809 1930q-13 -99 -56 -150t-110 -51q-18 0 -28 2l-31 8l-87 31l-12 3l-22 1q-22 0 -43 -18q-16 -15 -29 -48h-76q21 95 65.5 145t110.5 50q15 0 21 -2q9 0 20 -4l107 -33l4 -1
l24 -3q26 0 44 18t24 52h74z" />
    <glyph glyph-name="Anang" unicode="&#x1ea0;" horiz-adv-x="1126" 
d="M356 600h410l-205 807zM31 0l420 1540h219l426 -1540h-174l-117 444h-488l-112 -444h-174zM486 -312v170h156v-170h-156z" />
    <glyph glyph-name="AA" unicode="&#xc2;" horiz-adv-x="1126" 
d="M356 600h410l-205 807zM31 0l420 1540h219l426 -1540h-174l-117 444h-488l-112 -444h-174zM307 1688l172 270h168l172 -270h-98l-158 166l-158 -166h-98z" />
    <glyph glyph-name="AAhuyen" unicode="&#x1ea6;" horiz-adv-x="1126" 
d="M356 600h410l-205 807zM31 0l420 1540h219l426 -1540h-174l-117 444h-488l-112 -444h-174zM307 1688l172 270h168l172 -270h-98l-158 166l-158 -166h-98zM868 1892h-101l-247 270h178z" />
    <glyph glyph-name="AAsac" unicode="&#x1ea4;" horiz-adv-x="1126" 
d="M356 600h410l-205 807zM31 0l420 1540h219l426 -1540h-174l-117 444h-488l-112 -444h-174zM307 1688l172 270h168l172 -270h-98l-158 166l-158 -166h-98zM903 2162h178l-247 -270h-101z" />
    <glyph glyph-name="AAhoi" unicode="&#x1ea8;" horiz-adv-x="1126" 
d="M356 600h410l-205 807zM31 0l420 1540h219l426 -1540h-174l-117 444h-488l-112 -444h-174zM307 1688l172 270h168l172 -270h-98l-158 166l-158 -166h-98zM745 1874v10q0 3 -1 8v14q0 34 10.5 61.5t45.5 68.5l5 7q43 51 43 103q0 38 -15.5 56.5t-35.5 18.5
q-24 0 -40.5 -23t-16.5 -73v-16h-87v15q0 74 35.5 116.5t107.5 42.5q69 0 106.5 -38.5t37.5 -99.5q0 -62 -62 -135l-17 -17q-32 -41 -32 -92v-12q0 -6 2 -15h-86z" />
    <glyph glyph-name="AAnga" unicode="&#x1eaa;" horiz-adv-x="1126" 
d="M356 600h410l-205 807zM31 0l420 1540h219l426 -1540h-174l-117 444h-488l-112 -444h-174zM307 1688l172 270h168l172 -270h-98l-158 166l-158 -166h-98zM858 2231q-13 -99 -56 -150t-110 -51q-18 0 -28 2l-31 8l-87 31l-12 3l-22 1q-22 0 -43 -18q-16 -15 -29 -48h-76
q21 95 65.5 145t110.5 50q15 0 21 -2q9 0 20 -4l107 -33l4 -1l24 -3q26 0 44 18t24 52h74z" />
    <glyph glyph-name="AAnang" unicode="&#x1eac;" horiz-adv-x="1126" 
d="M356 600h410l-205 807zM31 0l420 1540h219l426 -1540h-174l-117 444h-488l-112 -444h-174zM307 1688l172 270h168l172 -270h-98l-158 166l-158 -166h-98zM486 -312v170h156v-170h-156z" />
    <glyph glyph-name="A(" unicode="&#x102;" horiz-adv-x="1126" 
d="M356 600h410l-205 807zM31 0l420 1540h219l426 -1540h-174l-117 444h-488l-112 -444h-174zM307 1864h94q9 -64 47 -93q20 -14 46.5 -21t66.5 -7q75 0 111.5 28.5t46.5 92.5h94q-12 -133 -73 -194.5t-179 -61.5q-119 0 -179.5 61t-74.5 195z" />
    <glyph glyph-name="A(huyen" unicode="&#x1eb0;" horiz-adv-x="1126" 
d="M356 600h410l-205 807zM31 0l420 1540h219l426 -1540h-174l-117 444h-488l-112 -444h-174zM307 1864h94q9 -64 47 -93q20 -14 46.5 -21t66.5 -7q75 0 111.5 28.5t46.5 92.5h94q-12 -133 -73 -194.5t-179 -61.5q-119 0 -179.5 61t-74.5 195zM627 1862h-101l-247 270h178z
" />
    <glyph glyph-name="A(sac" unicode="&#x1eae;" horiz-adv-x="1126" 
d="M356 600h410l-205 807zM31 0l420 1540h219l426 -1540h-174l-117 444h-488l-112 -444h-174zM307 1864h94q9 -64 47 -93q20 -14 46.5 -21t66.5 -7q75 0 111.5 28.5t46.5 92.5h94q-12 -133 -73 -194.5t-179 -61.5q-119 0 -179.5 61t-74.5 195zM652 2132h178l-247 -270h-101z
" />
    <glyph glyph-name="A(hoi" unicode="&#x1eb2;" horiz-adv-x="1126" 
d="M356 600h410l-205 807zM31 0l420 1540h219l426 -1540h-174l-117 444h-488l-112 -444h-174zM307 1864h94q9 -64 47 -93q20 -14 46.5 -21t66.5 -7q75 0 111.5 28.5t46.5 92.5h94q-12 -133 -73 -194.5t-179 -61.5q-119 0 -179.5 61t-74.5 195zM512 1874v10q0 3 -1 8v14
q0 34 10.5 61.5t45.5 68.5l5 7q43 51 43 103q0 38 -15.5 56.5t-35.5 18.5q-24 0 -40.5 -23t-16.5 -73v-16h-87v15q0 74 35.5 116.5t107.5 42.5q69 0 106.5 -38.5t37.5 -99.5q0 -62 -62 -135l-17 -17q-32 -41 -32 -92v-12q0 -6 2 -15h-86z" />
    <glyph glyph-name="A(nga" unicode="&#x1eb4;" horiz-adv-x="1126" 
d="M356 600h410l-205 807zM31 0l420 1540h219l426 -1540h-174l-117 444h-488l-112 -444h-174zM307 1864h94q9 -64 47 -93q20 -14 46.5 -21t66.5 -7q75 0 111.5 28.5t46.5 92.5h94q-12 -133 -73 -194.5t-179 -61.5q-119 0 -179.5 61t-74.5 195zM848 2123q-13 -99 -56 -150
t-110 -51q-18 0 -28 2l-31 8l-87 31l-12 3l-22 1q-22 0 -43 -18q-16 -15 -29 -48h-76q21 95 65.5 145t110.5 50q15 0 21 -2q9 0 20 -4l107 -33l4 -1l24 -3q26 0 44 18t24 52h74z" />
    <glyph glyph-name="A(nang" unicode="&#x1eb6;" horiz-adv-x="1126" 
d="M356 600h410l-205 807zM31 0l420 1540h219l426 -1540h-174l-117 444h-488l-112 -444h-174zM307 1864h94q9 -64 47 -93q20 -14 46.5 -21t66.5 -7q75 0 111.5 28.5t46.5 92.5h94q-12 -133 -73 -194.5t-179 -61.5q-119 0 -179.5 61t-74.5 195zM486 -312v170h156v-170h-156z
" />
    <glyph glyph-name="Ehuyen" unicode="&#xc8;" horiz-adv-x="1004" 
d="M137 0v1540h764v-160h-594v-495h555v-156h-555v-567h600v-162h-770zM656 1688h-101l-247 270h178z" />
    <glyph glyph-name="Esac" unicode="&#xc9;" horiz-adv-x="1004" 
d="M137 0v1540h764v-160h-594v-495h555v-156h-555v-567h600v-162h-770zM414 1686l170 272h178l-247 -272h-101z" />
    <glyph glyph-name="Ehoi" unicode="&#x1eba;" horiz-adv-x="1004" 
d="M137 0v1540h764v-160h-594v-495h555v-156h-555v-567h600v-162h-770zM512 1606v10q0 3 -1 8v14q0 34 10.5 61.5t45.5 68.5l5 7q43 51 43 103q0 38 -15.5 56.5t-35.5 18.5q-24 0 -40.5 -23t-16.5 -73v-16h-87v15q0 74 35.5 116.5t107.5 42.5q69 0 106.5 -38.5t37.5 -99.5
q0 -62 -62 -135l-17 -17q-32 -41 -32 -92v-12q0 -6 2 -15h-86z" />
    <glyph glyph-name="Enga" unicode="&#x1ebc;" horiz-adv-x="1004" 
d="M137 0v1540h764v-160h-594v-495h555v-156h-555v-567h600v-162h-770zM809 1930q-13 -99 -56 -150t-110 -51q-18 0 -28 2l-31 8l-87 31l-12 3l-22 1q-22 0 -43 -18q-16 -15 -29 -48h-76q21 95 65.5 145t110.5 50q15 0 21 -2q9 0 20 -4l107 -33l4 -1l24 -3q26 0 44 18t24 52
h74z" />
    <glyph glyph-name="Enang" unicode="&#x1eb8;" horiz-adv-x="1004" 
d="M137 0v1540h764v-160h-594v-495h555v-156h-555v-567h600v-162h-770zM486 -312v170h156v-170h-156z" />
    <glyph glyph-name="Ê" unicode="&#xca;" horiz-adv-x="1004" 
d="M137 0v1540h764v-160h-594v-495h555v-156h-555v-567h600v-162h-770zM279 1688l172 270h168l172 -270h-98l-158 166l-158 -166h-98z" />
    <glyph glyph-name="EEhuyen" unicode="&#x1ec0;" horiz-adv-x="1004" 
d="M137 0v1540h764v-160h-594v-495h555v-156h-555v-567h600v-162h-770zM279 1688l172 270h168l172 -270h-98l-158 166l-158 -166h-98zM858 1892h-101l-247 270h178z" />
    <glyph glyph-name="EEsac" unicode="&#x1ebe;" horiz-adv-x="1004" 
d="M137 0v1540h764v-160h-594v-495h555v-156h-555v-567h600v-162h-770zM279 1688l172 270h168l172 -270h-98l-158 166l-158 -166h-98zM874 2162h178l-247 -270h-101z" />
    <glyph glyph-name="EEhoi" unicode="&#x1ec2;" horiz-adv-x="1004" 
d="M137 0v1540h764v-160h-594v-495h555v-156h-555v-567h600v-162h-770zM279 1688l172 270h168l172 -270h-98l-158 166l-158 -166h-98zM726 1874v10q0 3 -1 8v14q0 34 10.5 61.5t45.5 68.5l5 7q43 51 43 103q0 38 -15.5 56.5t-35.5 18.5q-24 0 -40.5 -23t-16.5 -73v-16h-87
v15q0 74 35.5 116.5t107.5 42.5q69 0 106.5 -38.5t37.5 -99.5q0 -62 -62 -135l-17 -17q-32 -41 -32 -92v-12q0 -6 2 -15h-86z" />
    <glyph glyph-name="EEnga" unicode="&#x1ec4;" horiz-adv-x="1004" 
d="M137 0v1540h764v-160h-594v-495h555v-156h-555v-567h600v-162h-770zM279 1688l172 270h168l172 -270h-98l-158 166l-158 -166h-98zM819 2202q-13 -99 -56 -150t-110 -51q-18 0 -28 2l-31 8l-87 31l-12 3l-22 1q-22 0 -43 -18q-16 -15 -29 -48h-76q21 95 65.5 145
t110.5 50q15 0 21 -2q9 0 20 -4l107 -33l4 -1l24 -3q26 0 44 18t24 52h74z" />
    <glyph glyph-name="EEnang" unicode="&#x1ec6;" horiz-adv-x="1004" 
d="M137 0v1540h764v-160h-594v-495h555v-156h-555v-567h600v-162h-770zM279 1688l172 270h168l172 -270h-98l-158 166l-158 -166h-98zM486 -312v170h156v-170h-156z" />
    <glyph glyph-name="Ohuyen" unicode="&#xd2;" 
d="M285 770q0 -372 70.5 -513.5t244.5 -141.5t244.5 139t70.5 516q0 376 -69.5 514.5t-245.5 138.5q-173 0 -244 -142.5t-71 -510.5zM106 770q0 431 116.5 619t377.5 188q263 0 378.5 -187t115.5 -620q0 -434 -114.5 -620.5t-379.5 -186.5q-259 0 -376.5 189.5t-117.5 617.5
zM721 1688h-101l-247 270h178z" />
    <glyph glyph-name="Osac" unicode="&#xd3;" 
d="M285 770q0 -372 70.5 -513.5t244.5 -141.5t244.5 139t70.5 516q0 376 -69.5 514.5t-245.5 138.5q-173 0 -244 -142.5t-71 -510.5zM106 770q0 431 116.5 619t377.5 188q263 0 378.5 -187t115.5 -620q0 -434 -114.5 -620.5t-379.5 -186.5q-259 0 -376.5 189.5t-117.5 617.5
zM479 1686l170 272h178l-247 -272h-101z" />
    <glyph glyph-name="Ohoi" unicode="&#x1ece;" 
d="M285 770q0 -372 70.5 -513.5t244.5 -141.5t244.5 139t70.5 516q0 376 -69.5 514.5t-245.5 138.5q-173 0 -244 -142.5t-71 -510.5zM106 770q0 431 116.5 619t377.5 188q263 0 378.5 -187t115.5 -620q0 -434 -114.5 -620.5t-379.5 -186.5q-259 0 -376.5 189.5t-117.5 617.5
zM548 1635v10v8v14q0 34 10 61.5t45 68.5l5 7q43 51 43 103q0 38 -15 56.5t-36 18.5q-24 0 -40.5 -23t-16.5 -73v-16h-87v15q0 74 35.5 116.5t107.5 42.5q69 0 107 -38.5t38 -99.5q0 -62 -63 -135l-16 -17q-33 -41 -33 -92v-12q0 -6 2 -15h-86z" />
    <glyph glyph-name="Onga" unicode="&#xd5;" 
d="M285 770q0 -372 70.5 -513.5t244.5 -141.5t244.5 139t70.5 516q0 376 -69.5 514.5t-245.5 138.5q-173 0 -244 -142.5t-71 -510.5zM106 770q0 431 116.5 619t377.5 188q263 0 378.5 -187t115.5 -620q0 -434 -114.5 -620.5t-379.5 -186.5q-259 0 -376.5 189.5t-117.5 617.5
zM846 1930q-13 -99 -56 -150t-110 -51q-18 0 -28 2l-31 8l-87 31l-12 3l-22 1q-22 0 -43 -18q-16 -15 -29 -48h-76q21 95 65.5 145t110.5 50q15 0 21 -2q9 0 20 -4l107 -33l4 -1l24 -3q26 0 44 18t24 52h74z" />
    <glyph glyph-name="Onang" unicode="&#x1ecc;" 
d="M285 770q0 -372 70.5 -513.5t244.5 -141.5t244.5 139t70.5 516q0 376 -69.5 514.5t-245.5 138.5q-173 0 -244 -142.5t-71 -510.5zM106 770q0 431 116.5 619t377.5 188q263 0 378.5 -187t115.5 -620q0 -434 -114.5 -620.5t-379.5 -186.5q-259 0 -376.5 189.5t-117.5 617.5
zM522 -312v170h156v-170h-156z" />
    <glyph glyph-name="Ô" unicode="&#xd4;" 
d="M285 770q0 -372 70.5 -513.5t244.5 -141.5t244.5 139t70.5 516q0 376 -69.5 514.5t-245.5 138.5q-173 0 -244 -142.5t-71 -510.5zM106 770q0 431 116.5 619t377.5 188q263 0 378.5 -187t115.5 -620q0 -434 -114.5 -620.5t-379.5 -186.5q-259 0 -376.5 189.5t-117.5 617.5
zM344 1688l172 270h168l172 -270h-98l-158 166l-158 -166h-98z" />
    <glyph glyph-name="OOhuyen" unicode="&#x1ed2;" 
d="M285 770q0 -372 70.5 -513.5t244.5 -141.5t244.5 139t70.5 516q0 376 -69.5 514.5t-245.5 138.5q-173 0 -244 -142.5t-71 -510.5zM106 770q0 431 116.5 619t377.5 188q263 0 378.5 -187t115.5 -620q0 -434 -114.5 -620.5t-379.5 -186.5q-259 0 -376.5 189.5t-117.5 617.5
zM344 1688l172 270h168l172 -270h-98l-158 166l-158 -166h-98zM916 1892h-101l-247 270h178z" />
    <glyph glyph-name="OOsac" unicode="&#x1ed0;" 
d="M285 770q0 -372 70.5 -513.5t244.5 -141.5t244.5 139t70.5 516q0 376 -69.5 514.5t-245.5 138.5q-173 0 -244 -142.5t-71 -510.5zM106 770q0 431 116.5 619t377.5 188q263 0 378.5 -187t115.5 -620q0 -434 -114.5 -620.5t-379.5 -186.5q-259 0 -376.5 189.5t-117.5 617.5
zM344 1688l172 270h168l172 -270h-98l-158 166l-158 -166h-98zM942 2162h178l-247 -270h-101z" />
    <glyph glyph-name="OOhoi" unicode="&#x1ed4;" 
d="M285 770q0 -372 70.5 -513.5t244.5 -141.5t244.5 139t70.5 516q0 376 -69.5 514.5t-245.5 138.5q-173 0 -244 -142.5t-71 -510.5zM106 770q0 431 116.5 619t377.5 188q263 0 378.5 -187t115.5 -620q0 -434 -114.5 -620.5t-379.5 -186.5q-259 0 -376.5 189.5t-117.5 617.5
zM344 1688l172 270h168l172 -270h-98l-158 166l-158 -166h-98zM774 1874v10q0 3 -1 8v14q0 34 10.5 61.5t45.5 68.5l5 7q43 51 43 103q0 38 -15.5 56.5t-35.5 18.5q-24 0 -40.5 -23t-16.5 -73v-16h-87v15q0 74 35.5 116.5t107.5 42.5q69 0 106.5 -38.5t37.5 -99.5
q0 -62 -62 -135l-17 -17q-32 -41 -32 -92v-12q0 -6 2 -15h-86z" />
    <glyph glyph-name="OOnga" unicode="&#x1ed6;" 
d="M285 770q0 -372 70.5 -513.5t244.5 -141.5t244.5 139t70.5 516q0 376 -69.5 514.5t-245.5 138.5q-173 0 -244 -142.5t-71 -510.5zM106 770q0 431 116.5 619t377.5 188q263 0 378.5 -187t115.5 -620q0 -434 -114.5 -620.5t-379.5 -186.5q-259 0 -376.5 189.5t-117.5 617.5
zM344 1688l172 270h168l172 -270h-98l-158 166l-158 -166h-98zM877 2202q-13 -99 -56 -150t-110 -51q-18 0 -28 2l-31 8l-87 31l-12 3l-22 1q-22 0 -43 -18q-16 -15 -29 -48h-76q21 95 65.5 145t110.5 50q15 0 21 -2q9 0 20 -4l107 -33l4 -1l24 -3q26 0 44 18t24 52h74z" />
    <glyph glyph-name="OOnang" unicode="&#x1ed8;" 
d="M285 770q0 -372 70.5 -513.5t244.5 -141.5t244.5 139t70.5 516q0 376 -69.5 514.5t-245.5 138.5q-173 0 -244 -142.5t-71 -510.5zM106 770q0 431 116.5 619t377.5 188q263 0 378.5 -187t115.5 -620q0 -434 -114.5 -620.5t-379.5 -186.5q-259 0 -376.5 189.5t-117.5 617.5
zM344 1688l172 270h168l172 -270h-98l-158 166l-158 -166h-98zM522 -312v170h156v-170h-156z" />
    <glyph glyph-name="Ihuyen" unicode="&#xcc;" horiz-adv-x="451" 
d="M137 0v1540h176v-1540h-176zM346 1688h-101l-247 270h178z" />
    <glyph glyph-name="Isac" unicode="&#xcd;" horiz-adv-x="451" 
d="M137 0v1540h176v-1540h-176zM104 1686l170 272h178l-247 -272h-101z" />
    <glyph glyph-name="Ihoi" unicode="&#x1ec8;" horiz-adv-x="451" 
d="M137 0v1540h176v-1540h-176zM170 1635v10q0 3 -1 8v14q0 34 10.5 61.5t45.5 68.5l5 7q43 51 43 103q0 38 -15.5 56.5t-35.5 18.5q-24 0 -40.5 -23t-16.5 -73v-16h-87v15q0 74 35.5 116.5t107.5 42.5q69 0 106.5 -38.5t37.5 -99.5q0 -62 -62 -135l-17 -17q-32 -41 -32 -92
v-12q0 -6 2 -15h-86z" />
    <glyph glyph-name="Inga" unicode="&#x128;" horiz-adv-x="451" 
d="M137 0v1540h176v-1540h-176zM507 1930q-13 -99 -56 -150t-110 -51q-18 0 -28 2l-31 8l-87 31l-12 3l-22 1q-22 0 -43 -18q-16 -15 -29 -48h-76q21 95 65.5 145t110.5 50q15 0 21 -2q9 0 20 -4l107 -33l4 -1l24 -3q26 0 44 18t24 52h74z" />
    <glyph glyph-name="Inang" unicode="&#x1eca;" horiz-adv-x="451" 
d="M137 0v1540h176v-1540h-176zM145 -312v170h156v-170h-156z" />
    <glyph glyph-name="Uhuyen" unicode="&#xd9;" horiz-adv-x="1180" 
d="M139 1540h172v-1036q0 -216 61.5 -300.5t209.5 -84.5q149 0 220.5 93.5t71.5 291.5v1036h168v-1005q0 -197 -21.5 -276.5t-74.5 -141.5q-63 -75 -156 -113.5t-210 -38.5q-122 0 -217.5 41.5t-151.5 118.5q-38 49 -56 133q-8 43 -12 108.5t-4 168.5v1005zM711 1688h-101
l-247 270h178z" />
    <glyph glyph-name="Usac" unicode="&#xda;" horiz-adv-x="1180" 
d="M139 1540h172v-1036q0 -216 61.5 -300.5t209.5 -84.5q149 0 220.5 93.5t71.5 291.5v1036h168v-1005q0 -197 -21.5 -276.5t-74.5 -141.5q-63 -75 -156 -113.5t-210 -38.5q-122 0 -217.5 41.5t-151.5 118.5q-38 49 -56 133q-8 43 -12 108.5t-4 168.5v1005zM469 1686
l170 272h178l-247 -272h-101z" />
    <glyph glyph-name="Uhoi" unicode="&#x1ee6;" horiz-adv-x="1180" 
d="M139 1540h172v-1036q0 -216 61.5 -300.5t209.5 -84.5q149 0 220.5 93.5t71.5 291.5v1036h168v-1005q0 -197 -21.5 -276.5t-74.5 -141.5q-63 -75 -156 -113.5t-210 -38.5q-122 0 -217.5 41.5t-151.5 118.5q-38 49 -56 133q-8 43 -12 108.5t-4 168.5v1005zM539 1635v10
q0 3 -1 8v14q0 34 10.5 61.5t45.5 68.5l5 7q43 51 43 103q0 38 -15.5 56.5t-35.5 18.5q-25 0 -41 -23t-16 -73v-16h-87v15q0 74 35 116.5t108 42.5q68 0 106 -38.5t38 -99.5q0 -62 -62 -135l-17 -17q-32 -41 -32 -92v-12q0 -6 2 -15h-86z" />
    <glyph glyph-name="Unga" unicode="&#x168;" horiz-adv-x="1180" 
d="M139 1540h172v-1036q0 -216 61.5 -300.5t209.5 -84.5q149 0 220.5 93.5t71.5 291.5v1036h168v-1005q0 -197 -21.5 -276.5t-74.5 -141.5q-63 -75 -156 -113.5t-210 -38.5q-122 0 -217.5 41.5t-151.5 118.5q-38 49 -56 133q-8 43 -12 108.5t-4 168.5v1005zM838 1930
q-13 -99 -56 -150t-110 -51q-18 0 -28 2l-31 8l-87 31l-12 3l-22 1q-22 0 -43 -18q-16 -15 -29 -48h-76q21 95 65.5 145t110.5 50q15 0 21 -2q9 0 20 -4l107 -33l4 -1l24 -3q26 0 44 18t24 52h74z" />
    <glyph glyph-name="Unang" unicode="&#x1ee4;" horiz-adv-x="1180" 
d="M139 1540h172v-1036q0 -216 61.5 -300.5t209.5 -84.5q149 0 220.5 93.5t71.5 291.5v1036h168v-1005q0 -197 -21.5 -276.5t-74.5 -141.5q-63 -75 -156 -113.5t-210 -38.5q-122 0 -217.5 41.5t-151.5 118.5q-38 49 -56 133q-8 43 -12 108.5t-4 168.5v1005zM513 -312v170
h156v-170h-156z" />
    <glyph glyph-name="U)" unicode="&#x1af;" horiz-adv-x="1180" 
d="M1042 1345v-810q0 -197 -21.5 -276.5t-74.5 -141.5q-63 -75 -156 -113.5t-210 -38.5q-122 0 -217.5 41.5t-151.5 118.5q-38 49 -56 133q-8 43 -12 108.5t-4 168.5v1005h172v-1036q0 -216 61.5 -300.5t209.5 -84.5q149 0 220.5 93.5t71.5 291.5v1036h168v-102q12 12 22 32
q22 45 22 120v9h-80v192h165v-192q0 -105 -44 -176q-33 -53 -85 -78z" />
    <glyph glyph-name="U)huyen" unicode="&#x1eea;" horiz-adv-x="1180" 
d="M711 1688h-101l-247 270h178zM1042 1345v-810q0 -197 -21.5 -276.5t-74.5 -141.5q-63 -75 -156 -113.5t-210 -38.5q-122 0 -217.5 41.5t-151.5 118.5q-38 49 -56 133q-8 43 -12 108.5t-4 168.5v1005h172v-1036q0 -216 61.5 -300.5t209.5 -84.5q149 0 220.5 93.5
t71.5 291.5v1036h168v-102q12 12 22 32q22 45 22 120v9h-80v192h165v-192q0 -105 -44 -176q-33 -53 -85 -78z" />
    <glyph glyph-name="U)sac" unicode="&#x1ee8;" horiz-adv-x="1180" 
d="M469 1686l170 272h178l-247 -272h-101zM1042 1345v-810q0 -197 -21.5 -276.5t-74.5 -141.5q-63 -75 -156 -113.5t-210 -38.5q-122 0 -217.5 41.5t-151.5 118.5q-38 49 -56 133q-8 43 -12 108.5t-4 168.5v1005h172v-1036q0 -216 61.5 -300.5t209.5 -84.5q149 0 220.5 93.5
t71.5 291.5v1036h168v-102q12 12 22 32q22 45 22 120v9h-80v192h165v-192q0 -105 -44 -176q-33 -53 -85 -78z" />
    <glyph glyph-name="U)hoi" unicode="&#x1eec;" horiz-adv-x="1180" 
d="M539 1635v10q0 3 -1 8v14q0 34 10.5 61.5t45.5 68.5l5 7q43 51 43 103q0 38 -15.5 56.5t-35.5 18.5q-25 0 -41 -23t-16 -73v-16h-87v15q0 74 35 116.5t108 42.5q68 0 106 -38.5t38 -99.5q0 -62 -62 -135l-17 -17q-32 -41 -32 -92v-12q0 -6 2 -15h-86zM1042 1345v-810
q0 -197 -21.5 -276.5t-74.5 -141.5q-63 -75 -156 -113.5t-210 -38.5q-122 0 -217.5 41.5t-151.5 118.5q-38 49 -56 133q-8 43 -12 108.5t-4 168.5v1005h172v-1036q0 -216 61.5 -300.5t209.5 -84.5q149 0 220.5 93.5t71.5 291.5v1036h168v-102q12 12 22 32q22 45 22 120v9
h-80v192h165v-192q0 -105 -44 -176q-33 -53 -85 -78z" />
    <glyph glyph-name="U)nga" unicode="&#x1eee;" horiz-adv-x="1180" 
d="M838 1930q-13 -99 -56 -150t-110 -51q-18 0 -28 2l-31 8l-87 31l-12 3l-22 1q-22 0 -43 -18q-16 -15 -29 -48h-76q21 95 65.5 145t110.5 50q15 0 21 -2q9 0 20 -4l107 -33l4 -1l24 -3q26 0 44 18t24 52h74zM1042 1345v-810q0 -197 -21.5 -276.5t-74.5 -141.5
q-63 -75 -156 -113.5t-210 -38.5q-122 0 -217.5 41.5t-151.5 118.5q-38 49 -56 133q-8 43 -12 108.5t-4 168.5v1005h172v-1036q0 -216 61.5 -300.5t209.5 -84.5q149 0 220.5 93.5t71.5 291.5v1036h168v-102q12 12 22 32q22 45 22 120v9h-80v192h165v-192q0 -105 -44 -176
q-33 -53 -85 -78z" />
    <glyph glyph-name="U)nang" unicode="&#x1ef0;" horiz-adv-x="1180" 
d="M513 -312v170h156v-170h-156zM1042 1345v-810q0 -197 -21.5 -276.5t-74.5 -141.5q-63 -75 -156 -113.5t-210 -38.5q-122 0 -217.5 41.5t-151.5 118.5q-38 49 -56 133q-8 43 -12 108.5t-4 168.5v1005h172v-1036q0 -216 61.5 -300.5t209.5 -84.5q149 0 220.5 93.5
t71.5 291.5v1036h168v-102q12 12 22 32q22 45 22 120v9h-80v192h165v-192q0 -105 -44 -176q-33 -53 -85 -78z" />
    <glyph glyph-name="O)" unicode="&#x1a0;" 
d="M285 770q0 -372 70.5 -513.5t244.5 -141.5t244.5 139t70.5 516q0 376 -69.5 514.5t-245.5 138.5q-173 0 -244 -142.5t-71 -510.5zM991 1368q103 -190 103 -598q0 -434 -114.5 -620.5t-379.5 -186.5q-259 0 -376.5 189.5t-117.5 617.5q0 431 116.5 619t377.5 188
q231 0 349 -145q16 13 28 38q22 45 22 120v9h-80v192h165v-192q0 -105 -44 -176q-21 -33 -49 -55z" />
    <glyph glyph-name="O)huyen" unicode="&#x1edc;" 
d="M285 770q0 -372 70.5 -513.5t244.5 -141.5t244.5 139t70.5 516q0 376 -69.5 514.5t-245.5 138.5q-173 0 -244 -142.5t-71 -510.5zM721 1688h-101l-247 270h178zM991 1368q103 -190 103 -598q0 -434 -114.5 -620.5t-379.5 -186.5q-259 0 -376.5 189.5t-117.5 617.5
q0 431 116.5 619t377.5 188q231 0 349 -145q16 13 28 38q22 45 22 120v9h-80v192h165v-192q0 -105 -44 -176q-21 -33 -49 -55z" />
    <glyph glyph-name="O)sac" unicode="&#x1eda;" 
d="M285 770q0 -372 70.5 -513.5t244.5 -141.5t244.5 139t70.5 516q0 376 -69.5 514.5t-245.5 138.5q-173 0 -244 -142.5t-71 -510.5zM479 1686l170 272h178l-247 -272h-101zM991 1368q103 -190 103 -598q0 -434 -114.5 -620.5t-379.5 -186.5q-259 0 -376.5 189.5
t-117.5 617.5q0 431 116.5 619t377.5 188q231 0 349 -145q16 13 28 38q22 45 22 120v9h-80v192h165v-192q0 -105 -44 -176q-21 -33 -49 -55z" />
    <glyph glyph-name="O)hoi" unicode="&#x1ede;" 
d="M285 770q0 -372 70.5 -513.5t244.5 -141.5t244.5 139t70.5 516q0 376 -69.5 514.5t-245.5 138.5q-173 0 -244 -142.5t-71 -510.5zM548 1635v10v8v14q0 34 10 61.5t45 68.5l5 7q43 51 43 103q0 38 -15 56.5t-36 18.5q-24 0 -40.5 -23t-16.5 -73v-16h-87v15
q0 74 35.5 116.5t107.5 42.5q69 0 107 -38.5t38 -99.5q0 -62 -63 -135l-16 -17q-33 -41 -33 -92v-12q0 -6 2 -15h-86zM991 1368q103 -190 103 -598q0 -434 -114.5 -620.5t-379.5 -186.5q-259 0 -376.5 189.5t-117.5 617.5q0 431 116.5 619t377.5 188q231 0 349 -145
q16 13 28 38q22 45 22 120v9h-80v192h165v-192q0 -105 -44 -176q-21 -33 -49 -55z" />
    <glyph glyph-name="O)nga" unicode="&#x1ee0;" 
d="M285 770q0 -372 70.5 -513.5t244.5 -141.5t244.5 139t70.5 516q0 376 -69.5 514.5t-245.5 138.5q-173 0 -244 -142.5t-71 -510.5zM846 1930q-13 -99 -56 -150t-110 -51q-18 0 -28 2l-31 8l-87 31l-12 3l-22 1q-22 0 -43 -18q-16 -15 -29 -48h-76q21 95 65.5 145t110.5 50
q15 0 21 -2q9 0 20 -4l107 -33l4 -1l24 -3q26 0 44 18t24 52h74zM991 1368q103 -190 103 -598q0 -434 -114.5 -620.5t-379.5 -186.5q-259 0 -376.5 189.5t-117.5 617.5q0 431 116.5 619t377.5 188q231 0 349 -145q16 13 28 38q22 45 22 120v9h-80v192h165v-192
q0 -105 -44 -176q-21 -33 -49 -55z" />
    <glyph glyph-name="O)nang" unicode="&#x1ee2;" 
d="M285 770q0 -372 70.5 -513.5t244.5 -141.5t244.5 139t70.5 516q0 376 -69.5 514.5t-245.5 138.5q-173 0 -244 -142.5t-71 -510.5zM522 -312v170h156v-170h-156zM991 1368q103 -190 103 -598q0 -434 -114.5 -620.5t-379.5 -186.5q-259 0 -376.5 189.5t-117.5 617.5
q0 431 116.5 619t377.5 188q231 0 349 -145q16 13 28 38q22 45 22 120v9h-80v192h165v-192q0 -105 -44 -176q-21 -33 -49 -55z" />
    <glyph glyph-name="Yhuyen" unicode="&#x1ef2;" horiz-adv-x="1028" 
d="M424 0v596l-455 944h205l340 -758l356 758h187l-459 -944v-596h-174zM643 1688h-101l-247 270h178z" />
    <glyph glyph-name="Ysac" unicode="&#xdd;" horiz-adv-x="1028" 
d="M424 0v596l-455 944h205l340 -758l356 758h187l-459 -944v-596h-174zM421 1686l170 272h178l-247 -272h-101z" />
    <glyph glyph-name="Yhoi" unicode="&#x1ef6;" horiz-adv-x="1028" 
d="M424 0v596l-455 944h205l340 -758l356 758h187l-459 -944v-596h-174zM491 1635v10q0 3 -1 8v14q0 34 10.5 61.5t45.5 68.5l5 7q43 51 43 103q0 38 -15.5 56.5t-35.5 18.5q-25 0 -41 -23t-16 -73v-16h-87v15q0 74 35 116.5t108 42.5q68 0 106 -38.5t38 -99.5
q0 -62 -62 -135l-17 -17q-32 -41 -32 -92v-12q0 -6 2 -15h-86z" />
    <glyph glyph-name="Ynga" unicode="&#x1ef8;" horiz-adv-x="1028" 
d="M424 0v596l-455 944h205l340 -758l356 758h187l-459 -944v-596h-174zM807 1930q-13 -99 -56 -150t-110 -51q-18 0 -28 2l-31 8l-87 31l-12 3l-22 1q-22 0 -43 -18q-16 -15 -29 -48h-76q21 95 65.5 145t110.5 50q15 0 21 -2q9 0 20 -4l107 -33l4 -1l24 -3q26 0 44 18
t24 52h74z" />
    <glyph glyph-name="Ynang" unicode="&#x1ef4;" horiz-adv-x="1028" 
d="M424 0v596l-455 944h205l340 -758l356 758h187l-459 -944v-596h-174zM435 -312v170h156v-170h-156z" />
    <glyph glyph-name="Ð" unicode="&#x110;" horiz-adv-x="1192" 
d="M309 739v-592h223q108 0 167.5 21.5t93.5 71.5q54 78 78 196t24 332q0 372 -78 497.5t-291 125.5h-217v-512h179v-140h-179zM137 879v661h436q260 0 385 -175t125 -544q0 -261 -42.5 -429.5t-133.5 -266.5q-61 -67 -141 -96t-231 -29h-398v739h-143v140h143z" />
    <glyph glyph-name="dd" unicode="&#x111;" horiz-adv-x="993" 
d="M705 0v145q-18 -74 -88.5 -121t-161.5 -47q-177 0 -271 164t-94 471q0 269 93.5 417.5t262.5 148.5q89 0 159.5 -42t88.5 -104v248h-248v100h248v160h162v-160h160v-100h-160v-1280h-151zM705 584q0 254 -50 352t-168 98q-112 0 -166.5 -107t-54.5 -331q0 -251 51 -363
t164 -112q119 0 171.5 106t52.5 357z" />
    <glyph glyph-name="quoteleft" unicode="&#x2018;" horiz-adv-x="502" 
d="M342 1577v-98q-41 -7 -65 -57q-11 -23 -17 -55.5t-6 -74.5v-10h88v-211h-182v211q0 116 48.5 194.5t133.5 100.5z" />
    <glyph glyph-name="quoteright" unicode="&#x2019;" horiz-adv-x="502" 
d="M160 1036v97q40 7 64 57t24 131v10h-88v209h182v-211q0 -115 -48.5 -193.5t-133.5 -99.5z" />
    <glyph glyph-name="quotedblleft" unicode="&#x201c;" horiz-adv-x="795" 
d="M342 1575v-96q-41 -7 -64.5 -57t-23.5 -132v-10h88v-209h-182v211q0 115 48.5 193.5t133.5 99.5zM633 1575v-96q-41 -7 -64.5 -57t-23.5 -132v-10h88v-209h-182v211q0 114 48 193t134 100z" />
    <glyph glyph-name="quotedblright" unicode="&#x201d;" horiz-adv-x="795" 
d="M160 1036v97q40 7 64 57t24 131v10h-88v209h182v-211q0 -115 -48.5 -193.5t-133.5 -99.5zM451 1036v97q40 7 64 57t24 131v10h-88v209h182v-211q0 -115 -48.5 -193.5t-133.5 -99.5z" />
    <glyph glyph-name="ahuyen" unicode="&#xe0;" horiz-adv-x="913" 
d="M616 621q-36 -41 -168 -89l-16 -6q-110 -39 -145 -88t-35 -145q0 -86 38 -133t107 -47q99 0 159 75.5t60 204.5v228zM871 -2l-54 -7l-41 -3q-67 0 -107 43q-20 22 -31 51.5t-11 70.5q-36 -88 -106.5 -135t-166.5 -47q-124 0 -194 84t-70 236q0 148 64.5 226.5
t278.5 150.5l3 1q176 59 176 138v106q0 71 -40 103.5t-130 32.5q-84 0 -127 -45t-43 -138v-20h-151q0 171 84 257q81 81 256 81q162 0 238.5 -74.5t76.5 -235.5v-673q0 -45 16 -64.5t52 -19.5l22 3l4 1zM594 1276h-101l-247 270h178z" />
    <glyph glyph-name="asac" unicode="&#xe1;" horiz-adv-x="913" 
d="M616 621q-36 -41 -168 -89l-16 -6q-110 -39 -145 -88t-35 -145q0 -86 38 -133t107 -47q99 0 159 75.5t60 204.5v228zM871 -2l-54 -7l-41 -3q-67 0 -107 43q-20 22 -31 51.5t-11 70.5q-36 -88 -106.5 -135t-166.5 -47q-124 0 -194 84t-70 236q0 148 64.5 226.5
t278.5 150.5l3 1q176 59 176 138v106q0 71 -40 103.5t-130 32.5q-84 0 -127 -45t-43 -138v-20h-151q0 171 84 257q81 81 256 81q162 0 238.5 -74.5t76.5 -235.5v-673q0 -45 16 -64.5t52 -19.5l22 3l4 1zM352 1274l170 272h178l-247 -272h-101z" />
    <glyph glyph-name="ahoi" unicode="&#x1ea3;" horiz-adv-x="913" 
d="M616 621q-36 -41 -168 -89l-16 -6q-110 -39 -145 -88t-35 -145q0 -86 38 -133t107 -47q99 0 159 75.5t60 204.5v228zM871 -2l-54 -7l-41 -3q-67 0 -107 43q-20 22 -31 51.5t-11 70.5q-36 -88 -106.5 -135t-166.5 -47q-124 0 -194 84t-70 236q0 148 64.5 226.5
t278.5 150.5l3 1q176 59 176 138v106q0 71 -40 103.5t-130 32.5q-84 0 -127 -45t-43 -138v-20h-151q0 171 84 257q81 81 256 81q162 0 238.5 -74.5t76.5 -235.5v-673q0 -45 16 -64.5t52 -19.5l22 3l4 1zM404 1267v10q0 3 -1 8v14q0 34 10.5 61.5t45.5 68.5l5 7q43 51 43 103
q0 38 -15.5 56.5t-35.5 18.5q-25 0 -41 -23t-16 -73v-16h-87v15q0 74 35 116.5t108 42.5q68 0 106 -38.5t38 -99.5q0 -62 -62 -135l-17 -17q-32 -41 -32 -92v-12q0 -6 2 -15h-86z" />
    <glyph glyph-name="anga" unicode="&#xe3;" horiz-adv-x="913" 
d="M616 621q-36 -41 -168 -89l-16 -6q-110 -39 -145 -88t-35 -145q0 -86 38 -133t107 -47q99 0 159 75.5t60 204.5v228zM871 -2l-54 -7l-41 -3q-67 0 -107 43q-20 22 -31 51.5t-11 70.5q-36 -88 -106.5 -135t-166.5 -47q-124 0 -194 84t-70 236q0 148 64.5 226.5
t278.5 150.5l3 1q176 59 176 138v106q0 71 -40 103.5t-130 32.5q-84 0 -127 -45t-43 -138v-20h-151q0 171 84 257q81 81 256 81q162 0 238.5 -74.5t76.5 -235.5v-673q0 -45 16 -64.5t52 -19.5l22 3l4 1zM719 1518q-13 -99 -56 -150t-110 -51q-18 0 -28 2l-31 8l-87 31l-12 3
l-22 1q-22 0 -43 -18q-16 -15 -29 -48h-76q21 95 65.5 145t110.5 50q15 0 21 -2q9 0 20 -4l107 -33l4 -1l24 -3q26 0 44 18t24 52h74z" />
    <glyph glyph-name="anang" unicode="&#x1ea1;" horiz-adv-x="913" 
d="M616 621q-36 -41 -168 -89l-16 -6q-110 -39 -145 -88t-35 -145q0 -86 38 -133t107 -47q99 0 159 75.5t60 204.5v228zM871 -2l-54 -7l-41 -3q-67 0 -107 43q-20 22 -31 51.5t-11 70.5q-36 -88 -106.5 -135t-166.5 -47q-124 0 -194 84t-70 236q0 148 64.5 226.5
t278.5 150.5l3 1q176 59 176 138v106q0 71 -40 103.5t-130 32.5q-84 0 -127 -45t-43 -138v-20h-151q0 171 84 257q81 81 256 81q162 0 238.5 -74.5t76.5 -235.5v-673q0 -45 16 -64.5t52 -19.5l22 3l4 1zM397 -312v170h156v-170h-156z" />
    <glyph glyph-name="aa" unicode="&#xe2;" horiz-adv-x="913" 
d="M616 621q-36 -41 -168 -89l-16 -6q-110 -39 -145 -88t-35 -145q0 -86 38 -133t107 -47q99 0 159 75.5t60 204.5v228zM871 -2l-54 -7l-41 -3q-67 0 -107 43q-20 22 -31 51.5t-11 70.5q-36 -88 -106.5 -135t-166.5 -47q-124 0 -194 84t-70 236q0 148 64.5 226.5
t278.5 150.5l3 1q176 59 176 138v106q0 71 -40 103.5t-130 32.5q-84 0 -127 -45t-43 -138v-20h-151q0 171 84 257q81 81 256 81q162 0 238.5 -74.5t76.5 -235.5v-673q0 -45 16 -64.5t52 -19.5l22 3l4 1zM217 1276l172 270h168l172 -270h-98l-158 166l-158 -166h-98z" />
    <glyph glyph-name="aahuyen" unicode="&#x1ea7;" horiz-adv-x="913" 
d="M616 621q-36 -41 -168 -89l-16 -6q-110 -39 -145 -88t-35 -145q0 -86 38 -133t107 -47q99 0 159 75.5t60 204.5v228zM871 -2l-54 -7l-41 -3q-67 0 -107 43q-20 22 -31 51.5t-11 70.5q-36 -88 -106.5 -135t-166.5 -47q-124 0 -194 84t-70 236q0 148 64.5 226.5
t278.5 150.5l3 1q176 59 176 138v106q0 71 -40 103.5t-130 32.5q-84 0 -127 -45t-43 -138v-20h-151q0 171 84 257q81 81 256 81q162 0 238.5 -74.5t76.5 -235.5v-673q0 -45 16 -64.5t52 -19.5l22 3l4 1zM217 1276l172 270h168l172 -270h-98l-158 166l-158 -166h-98z
M792 1466h-101l-247 270h178z" />
    <glyph glyph-name="aasac" unicode="&#x1ea5;" horiz-adv-x="913" 
d="M616 621q-36 -41 -168 -89l-16 -6q-110 -39 -145 -88t-35 -145q0 -86 38 -133t107 -47q99 0 159 75.5t60 204.5v228zM871 -2l-54 -7l-41 -3q-67 0 -107 43q-20 22 -31 51.5t-11 70.5q-36 -88 -106.5 -135t-166.5 -47q-124 0 -194 84t-70 236q0 148 64.5 226.5
t278.5 150.5l3 1q176 59 176 138v106q0 71 -40 103.5t-130 32.5q-84 0 -127 -45t-43 -138v-20h-151q0 171 84 257q81 81 256 81q162 0 238.5 -74.5t76.5 -235.5v-673q0 -45 16 -64.5t52 -19.5l22 3l4 1zM217 1276l172 270h168l172 -270h-98l-158 166l-158 -166h-98z
M821 1736h178l-247 -270h-101z" />
    <glyph glyph-name="aahoi" unicode="&#x1ea9;" horiz-adv-x="913" 
d="M616 621q-36 -41 -168 -89l-16 -6q-110 -39 -145 -88t-35 -145q0 -86 38 -133t107 -47q99 0 159 75.5t60 204.5v228zM871 -2l-54 -7l-41 -3q-67 0 -107 43q-20 22 -31 51.5t-11 70.5q-36 -88 -106.5 -135t-166.5 -47q-124 0 -194 84t-70 236q0 148 64.5 226.5
t278.5 150.5l3 1q176 59 176 138v106q0 71 -40 103.5t-130 32.5q-84 0 -127 -45t-43 -138v-20h-151q0 171 84 257q81 81 256 81q162 0 238.5 -74.5t76.5 -235.5v-673q0 -45 16 -64.5t52 -19.5l22 3l4 1zM217 1276l172 270h168l172 -270h-98l-158 166l-158 -166h-98z
M647 1460v10q0 3 -1 8v14q0 34 10.5 61.5t45.5 68.5l5 7q43 51 43 103q0 38 -15.5 56.5t-35.5 18.5q-25 0 -41 -23t-16 -73v-16h-87v15q0 74 35 116.5t108 42.5q68 0 106 -38.5t38 -99.5q0 -62 -62 -135l-17 -17q-32 -41 -32 -92v-12q0 -6 2 -15h-86z" />
    <glyph glyph-name="aanga" unicode="&#x1eab;" horiz-adv-x="913" 
d="M616 621q-36 -41 -168 -89l-16 -6q-110 -39 -145 -88t-35 -145q0 -86 38 -133t107 -47q99 0 159 75.5t60 204.5v228zM871 -2l-54 -7l-41 -3q-67 0 -107 43q-20 22 -31 51.5t-11 70.5q-36 -88 -106.5 -135t-166.5 -47q-124 0 -194 84t-70 236q0 148 64.5 226.5
t278.5 150.5l3 1q176 59 176 138v106q0 71 -40 103.5t-130 32.5q-84 0 -127 -45t-43 -138v-20h-151q0 171 84 257q81 81 256 81q162 0 238.5 -74.5t76.5 -235.5v-673q0 -45 16 -64.5t52 -19.5l22 3l4 1zM217 1276l172 270h168l172 -270h-98l-158 166l-158 -166h-98z
M777 1799q-13 -99 -56 -150t-110 -51q-18 0 -28 2l-31 8l-87 31l-12 3l-22 1q-22 0 -43 -18q-16 -15 -29 -48h-76q21 95 65.5 145t110.5 50q15 0 21 -2q9 0 20 -4l107 -33l4 -1l24 -3q26 0 44 18t24 52h74z" />
    <glyph glyph-name="aanang" unicode="&#x1ead;" horiz-adv-x="913" 
d="M616 621q-36 -41 -168 -89l-16 -6q-110 -39 -145 -88t-35 -145q0 -86 38 -133t107 -47q99 0 159 75.5t60 204.5v228zM871 -2l-54 -7l-41 -3q-67 0 -107 43q-20 22 -31 51.5t-11 70.5q-36 -88 -106.5 -135t-166.5 -47q-124 0 -194 84t-70 236q0 148 64.5 226.5
t278.5 150.5l3 1q176 59 176 138v106q0 71 -40 103.5t-130 32.5q-84 0 -127 -45t-43 -138v-20h-151q0 171 84 257q81 81 256 81q162 0 238.5 -74.5t76.5 -235.5v-673q0 -45 16 -64.5t52 -19.5l22 3l4 1zM217 1276l172 270h168l172 -270h-98l-158 166l-158 -166h-98z
M397 -312v170h156v-170h-156z" />
    <glyph glyph-name="a(" unicode="&#x103;" horiz-adv-x="913" 
d="M616 621q-36 -41 -168 -89l-16 -6q-110 -39 -145 -88t-35 -145q0 -86 38 -133t107 -47q99 0 159 75.5t60 204.5v228zM871 -2l-54 -7l-41 -3q-67 0 -107 43q-20 22 -31 51.5t-11 70.5q-36 -88 -106.5 -135t-166.5 -47q-124 0 -194 84t-70 236q0 148 64.5 226.5
t278.5 150.5l3 1q176 59 176 138v106q0 71 -40 103.5t-130 32.5q-84 0 -127 -45t-43 -138v-20h-151q0 171 84 257q81 81 256 81q162 0 238.5 -74.5t76.5 -235.5v-673q0 -45 16 -64.5t52 -19.5l22 3l4 1zM176 1538h94q9 -64 47 -93q20 -14 46.5 -21t66.5 -7q75 0 111.5 28.5
t46.5 92.5h94q-12 -133 -73 -194.5t-179 -61.5q-119 0 -179.5 61t-74.5 195z" />
    <glyph glyph-name="a(huyen" unicode="&#x1eb1;" horiz-adv-x="913" 
d="M616 621q-36 -41 -168 -89l-16 -6q-110 -39 -145 -88t-35 -145q0 -86 38 -133t107 -47q99 0 159 75.5t60 204.5v228zM871 -2l-54 -7l-41 -3q-67 0 -107 43q-20 22 -31 51.5t-11 70.5q-36 -88 -106.5 -135t-166.5 -47q-124 0 -194 84t-70 236q0 148 64.5 226.5
t278.5 150.5l3 1q176 59 176 138v106q0 71 -40 103.5t-130 32.5q-84 0 -127 -45t-43 -138v-20h-151q0 171 84 257q81 81 256 81q162 0 238.5 -74.5t76.5 -235.5v-673q0 -45 16 -64.5t52 -19.5l22 3l4 1zM176 1538h94q9 -64 47 -93q20 -14 46.5 -21t66.5 -7q75 0 111.5 28.5
t46.5 92.5h94q-12 -133 -73 -194.5t-179 -61.5q-119 0 -179.5 61t-74.5 195zM510 1523h-101l-247 270h178z" />
    <glyph glyph-name="a(sac" unicode="&#x1eaf;" horiz-adv-x="913" 
d="M616 621q-36 -41 -168 -89l-16 -6q-110 -39 -145 -88t-35 -145q0 -86 38 -133t107 -47q99 0 159 75.5t60 204.5v228zM871 -2l-54 -7l-41 -3q-67 0 -107 43q-20 22 -31 51.5t-11 70.5q-36 -88 -106.5 -135t-166.5 -47q-124 0 -194 84t-70 236q0 148 64.5 226.5
t278.5 150.5l3 1q176 59 176 138v106q0 71 -40 103.5t-130 32.5q-84 0 -127 -45t-43 -138v-20h-151q0 171 84 257q81 81 256 81q162 0 238.5 -74.5t76.5 -235.5v-673q0 -45 16 -64.5t52 -19.5l22 3l4 1zM176 1538h94q9 -64 47 -93q20 -14 46.5 -21t66.5 -7q75 0 111.5 28.5
t46.5 92.5h94q-12 -133 -73 -194.5t-179 -61.5q-119 0 -179.5 61t-74.5 195zM525 1793h178l-247 -270h-101z" />
    <glyph glyph-name="a(hoi" unicode="&#x1eb3;" horiz-adv-x="913" 
d="M616 621q-36 -41 -168 -89l-16 -6q-110 -39 -145 -88t-35 -145q0 -86 38 -133t107 -47q99 0 159 75.5t60 204.5v228zM871 -2l-54 -7l-41 -3q-67 0 -107 43q-20 22 -31 51.5t-11 70.5q-36 -88 -106.5 -135t-166.5 -47q-124 0 -194 84t-70 236q0 148 64.5 226.5
t278.5 150.5l3 1q176 59 176 138v106q0 71 -40 103.5t-130 32.5q-84 0 -127 -45t-43 -138v-20h-151q0 171 84 257q81 81 256 81q162 0 238.5 -74.5t76.5 -235.5v-673q0 -45 16 -64.5t52 -19.5l22 3l4 1zM176 1538h94q9 -64 47 -93q20 -14 46.5 -21t66.5 -7q75 0 111.5 28.5
t46.5 92.5h94q-12 -133 -73 -194.5t-179 -61.5q-119 0 -179.5 61t-74.5 195zM395 1509v10q0 3 -1 8v14q0 34 10.5 61.5t45.5 68.5l5 7q43 51 43 103q0 38 -15.5 56.5t-35.5 18.5q-25 0 -41 -23t-16 -73v-16h-87v15q0 74 35 116.5t108 42.5q68 0 106 -38.5t38 -99.5
q0 -62 -62 -135l-17 -17q-32 -41 -32 -92v-12q0 -6 2 -15h-86z" />
    <glyph glyph-name="a(nga" unicode="&#x1eb5;" horiz-adv-x="913" 
d="M616 621q-36 -41 -168 -89l-16 -6q-110 -39 -145 -88t-35 -145q0 -86 38 -133t107 -47q99 0 159 75.5t60 204.5v228zM871 -2l-54 -7l-41 -3q-67 0 -107 43q-20 22 -31 51.5t-11 70.5q-36 -88 -106.5 -135t-166.5 -47q-124 0 -194 84t-70 236q0 148 64.5 226.5
t278.5 150.5l3 1q176 59 176 138v106q0 71 -40 103.5t-130 32.5q-84 0 -127 -45t-43 -138v-20h-151q0 171 84 257q81 81 256 81q162 0 238.5 -74.5t76.5 -235.5v-673q0 -45 16 -64.5t52 -19.5l22 3l4 1zM176 1538h94q9 -64 47 -93q20 -14 46.5 -21t66.5 -7q75 0 111.5 28.5
t46.5 92.5h94q-12 -133 -73 -194.5t-179 -61.5q-119 0 -179.5 61t-74.5 195zM728 1799q-13 -99 -56 -150t-110 -51q-18 0 -28 2l-31 8l-87 31l-12 3l-22 1q-22 0 -43 -18q-16 -15 -29 -48h-76q21 95 65.5 145t110.5 50q15 0 21 -2q9 0 20 -4l107 -33l4 -1l24 -3q26 0 44 18
t24 52h74z" />
    <glyph glyph-name="a(nang" unicode="&#x1eb7;" horiz-adv-x="913" 
d="M616 621q-36 -41 -168 -89l-16 -6q-110 -39 -145 -88t-35 -145q0 -86 38 -133t107 -47q99 0 159 75.5t60 204.5v228zM871 -2l-54 -7l-41 -3q-67 0 -107 43q-20 22 -31 51.5t-11 70.5q-36 -88 -106.5 -135t-166.5 -47q-124 0 -194 84t-70 236q0 148 64.5 226.5
t278.5 150.5l3 1q176 59 176 138v106q0 71 -40 103.5t-130 32.5q-84 0 -127 -45t-43 -138v-20h-151q0 171 84 257q81 81 256 81q162 0 238.5 -74.5t76.5 -235.5v-673q0 -45 16 -64.5t52 -19.5l22 3l4 1zM176 1538h94q9 -64 47 -93q20 -14 46.5 -21t66.5 -7q75 0 111.5 28.5
t46.5 92.5h94q-12 -133 -73 -194.5t-179 -61.5q-119 0 -179.5 61t-74.5 195zM397 -312v170h156v-170h-156z" />
    <glyph glyph-name="ehuyen" unicode="&#xe8;" horiz-adv-x="901" 
d="M256 700h391v31q0 82 -11 139.5t-36 99.5q-45 81 -139 81q-102 0 -153.5 -86.5t-51.5 -264.5zM649 389h158q0 -203 -92 -311.5t-262 -108.5q-185 0 -274 145.5t-89 448.5q0 322 88.5 471.5t278.5 149.5q178 0 266 -127t88 -387l-1 -62l-1 -38l-553 -1v-51q0 -218 50 -316
t159 -98q84 0 134 75t50 202v8zM598 1276h-101l-247 270h178z" />
    <glyph glyph-name="esac" unicode="&#xe9;" horiz-adv-x="901" 
d="M256 700h391v31q0 82 -11 139.5t-36 99.5q-45 81 -139 81q-102 0 -153.5 -86.5t-51.5 -264.5zM649 389h158q0 -203 -92 -311.5t-262 -108.5q-185 0 -274 145.5t-89 448.5q0 322 88.5 471.5t278.5 149.5q178 0 266 -127t88 -387l-1 -62l-1 -38l-553 -1v-51q0 -218 50 -316
t159 -98q84 0 134 75t50 202v8zM356 1274l170 272h178l-247 -272h-101z" />
    <glyph glyph-name="ehoi" unicode="&#x1ebb;" horiz-adv-x="901" 
d="M256 700h391v31q0 82 -11 139.5t-36 99.5q-45 81 -139 81q-102 0 -153.5 -86.5t-51.5 -264.5zM649 389h158q0 -203 -92 -311.5t-262 -108.5q-185 0 -274 145.5t-89 448.5q0 322 88.5 471.5t278.5 149.5q178 0 266 -127t88 -387l-1 -62l-1 -38l-553 -1v-51q0 -218 50 -316
t159 -98q84 0 134 75t50 202v8zM404 1267v10q0 3 -1 8v14q0 34 10.5 61.5t45.5 68.5l5 7q43 51 43 103q0 38 -15.5 56.5t-35.5 18.5q-25 0 -41 -23t-16 -73v-16h-87v15q0 74 35 116.5t108 42.5q68 0 106 -38.5t38 -99.5q0 -62 -62 -135l-17 -17q-32 -41 -32 -92v-12
q0 -6 2 -15h-86z" />
    <glyph glyph-name="enga" unicode="&#x1ebd;" horiz-adv-x="901" 
d="M256 700h391v31q0 82 -11 139.5t-36 99.5q-45 81 -139 81q-102 0 -153.5 -86.5t-51.5 -264.5zM649 389h158q0 -203 -92 -311.5t-262 -108.5q-185 0 -274 145.5t-89 448.5q0 322 88.5 471.5t278.5 149.5q178 0 266 -127t88 -387l-1 -62l-1 -38l-553 -1v-51q0 -218 50 -316
t159 -98q84 0 134 75t50 202v8zM719 1518q-13 -99 -56 -150t-110 -51q-18 0 -28 2l-31 8l-87 31l-12 3l-22 1q-22 0 -43 -18q-16 -15 -29 -48h-76q21 95 65.5 145t110.5 50q15 0 21 -2q9 0 20 -4l107 -33l4 -1l24 -3q26 0 44 18t24 52h74z" />
    <glyph glyph-name="enang" unicode="&#x1eb9;" horiz-adv-x="901" 
d="M256 700h391v31q0 82 -11 139.5t-36 99.5q-45 81 -139 81q-102 0 -153.5 -86.5t-51.5 -264.5zM649 389h158q0 -203 -92 -311.5t-262 -108.5q-185 0 -274 145.5t-89 448.5q0 322 88.5 471.5t278.5 149.5q178 0 266 -127t88 -387l-1 -62l-1 -38l-553 -1v-51q0 -218 50 -316
t159 -98q84 0 134 75t50 202v8zM373 -312v170h156v-170h-156z" />
    <glyph glyph-name="ê" unicode="&#xea;" horiz-adv-x="901" 
d="M256 700h391v31q0 82 -11 139.5t-36 99.5q-45 81 -139 81q-102 0 -153.5 -86.5t-51.5 -264.5zM649 389h158q0 -203 -92 -311.5t-262 -108.5q-185 0 -274 145.5t-89 448.5q0 322 88.5 471.5t278.5 149.5q178 0 266 -127t88 -387l-1 -62l-1 -38l-553 -1v-51q0 -218 50 -316
t159 -98q84 0 134 75t50 202v8zM221 1276l172 270h168l172 -270h-98l-158 166l-158 -166h-98z" />
    <glyph glyph-name="eehuyen" unicode="&#x1ec1;" horiz-adv-x="901" 
d="M256 700h391v31q0 82 -11 139.5t-36 99.5q-45 81 -139 81q-102 0 -153.5 -86.5t-51.5 -264.5zM649 389h158q0 -203 -92 -311.5t-262 -108.5q-185 0 -274 145.5t-89 448.5q0 322 88.5 471.5t278.5 149.5q178 0 266 -127t88 -387l-1 -62l-1 -38l-553 -1v-51q0 -218 50 -316
t159 -98q84 0 134 75t50 202v8zM221 1276l172 270h168l172 -270h-98l-158 166l-158 -166h-98zM792 1466h-101l-247 270h178z" />
    <glyph glyph-name="eesac" unicode="&#x1ebf;" horiz-adv-x="901" 
d="M256 700h391v31q0 82 -11 139.5t-36 99.5q-45 81 -139 81q-102 0 -153.5 -86.5t-51.5 -264.5zM649 389h158q0 -203 -92 -311.5t-262 -108.5q-185 0 -274 145.5t-89 448.5q0 322 88.5 471.5t278.5 149.5q178 0 266 -127t88 -387l-1 -62l-1 -38l-553 -1v-51q0 -218 50 -316
t159 -98q84 0 134 75t50 202v8zM221 1276l172 270h168l172 -270h-98l-158 166l-158 -166h-98zM821 1736h178l-247 -270h-101z" />
    <glyph glyph-name="eehoi" unicode="&#x1ec3;" horiz-adv-x="901" 
d="M256 700h391v31q0 82 -11 139.5t-36 99.5q-45 81 -139 81q-102 0 -153.5 -86.5t-51.5 -264.5zM649 389h158q0 -203 -92 -311.5t-262 -108.5q-185 0 -274 145.5t-89 448.5q0 322 88.5 471.5t278.5 149.5q178 0 266 -127t88 -387l-1 -62l-1 -38l-553 -1v-51q0 -218 50 -316
t159 -98q84 0 134 75t50 202v8zM221 1276l172 270h168l172 -270h-98l-158 166l-158 -166h-98zM647 1460v10q0 3 -1 8v14q0 34 10.5 61.5t45.5 68.5l5 7q43 51 43 103q0 38 -15.5 56.5t-35.5 18.5q-25 0 -41 -23t-16 -73v-16h-87v15q0 74 35 116.5t108 42.5q68 0 106 -38.5
t38 -99.5q0 -62 -62 -135l-17 -17q-32 -41 -32 -92v-12q0 -6 2 -15h-86z" />
    <glyph glyph-name="eenga" unicode="&#x1ec5;" horiz-adv-x="901" 
d="M256 700h391v31q0 82 -11 139.5t-36 99.5q-45 81 -139 81q-102 0 -153.5 -86.5t-51.5 -264.5zM649 389h158q0 -203 -92 -311.5t-262 -108.5q-185 0 -274 145.5t-89 448.5q0 322 88.5 471.5t278.5 149.5q178 0 266 -127t88 -387l-1 -62l-1 -38l-553 -1v-51q0 -218 50 -316
t159 -98q84 0 134 75t50 202v8zM221 1276l172 270h168l172 -270h-98l-158 166l-158 -166h-98zM777 1799q-13 -99 -56 -150t-110 -51q-18 0 -28 2l-31 8l-87 31l-12 3l-22 1q-22 0 -43 -18q-16 -15 -29 -48h-76q21 95 65.5 145t110.5 50q15 0 21 -2q9 0 20 -4l107 -33l4 -1
l24 -3q26 0 44 18t24 52h74z" />
    <glyph glyph-name="eenang" unicode="&#x1ec7;" horiz-adv-x="901" 
d="M256 700h391v31q0 82 -11 139.5t-36 99.5q-45 81 -139 81q-102 0 -153.5 -86.5t-51.5 -264.5zM649 389h158q0 -203 -92 -311.5t-262 -108.5q-185 0 -274 145.5t-89 448.5q0 322 88.5 471.5t278.5 149.5q178 0 266 -127t88 -387l-1 -62l-1 -38l-553 -1v-51q0 -218 50 -316
t159 -98q84 0 134 75t50 202v8zM221 1276l172 270h168l172 -270h-98l-158 166l-158 -166h-98zM373 -312v170h156v-170h-156z" />
    <glyph glyph-name="igrave" unicode="&#xec;" horiz-adv-x="408" 
d="M121 0v1151h166v-1151h-166zM326 1276h-101l-247 270h178z" />
    <glyph glyph-name="iacute" unicode="&#xed;" horiz-adv-x="408" 
d="M121 0v1151h166v-1151h-166zM84 1274l170 272h178l-247 -272h-101z" />
    <glyph glyph-name="icircumflex" unicode="&#x1ec9;" horiz-adv-x="408" 
d="M121 0v1151h166v-1151h-166zM152 1267v10q0 3 -1 8v14q0 34 10.5 61.5t45.5 68.5l5 7q43 51 43 103q0 38 -15.5 56.5t-35.5 18.5q-24 0 -40.5 -23t-16.5 -73v-16h-87v15q0 74 35.5 116.5t107.5 42.5q69 0 106.5 -38.5t37.5 -99.5q0 -62 -62 -135l-17 -17q-32 -41 -32 -92
v-12q0 -6 2 -15h-86z" />
    <glyph glyph-name="idieresis" unicode="&#x129;" horiz-adv-x="408" 
d="M121 0v1151h166v-1151h-166zM457 1518q-13 -99 -56 -150t-110 -51q-18 0 -28 2l-31 8l-87 31l-12 3l-22 1q-22 0 -43 -18q-16 -15 -29 -48h-76q21 95 65.5 145t110.5 50q15 0 21 -2q9 0 20 -4l107 -33l4 -1l24 -3q26 0 44 18t24 52h74z" />
    <glyph glyph-name="uni1ECB" unicode="&#x1ecb;" horiz-adv-x="408" 
d="M122 1331v209h166v-209h-166zM122 0v1151h166v-1151h-166zM121 -312v170h156v-170h-156z" />
    <glyph glyph-name="ograve" unicode="&#xf2;" horiz-adv-x="989" 
d="M90 575q0 309 99 459t305 150q207 0 306 -147.5t99 -461.5q0 -313 -98 -459.5t-307 -146.5q-210 0 -307 146t-97 460zM262 575q0 -259 53 -364t179 -105q123 0 177 107.5t54 361.5t-53.5 360.5t-177.5 106.5q-123 0 -177.5 -104.5t-54.5 -362.5zM623 1276h-101l-247 270
h178z" />
    <glyph glyph-name="oacute" unicode="&#xf3;" horiz-adv-x="989" 
d="M90 575q0 309 99 459t305 150q207 0 306 -147.5t99 -461.5q0 -313 -98 -459.5t-307 -146.5q-210 0 -307 146t-97 460zM262 575q0 -259 53 -364t179 -105q123 0 177 107.5t54 361.5t-53.5 360.5t-177.5 106.5q-123 0 -177.5 -104.5t-54.5 -362.5zM381 1274l170 272h178
l-247 -272h-101z" />
    <glyph glyph-name="ocircumflex" unicode="&#x1ecf;" horiz-adv-x="989" 
d="M90 575q0 309 99 459t305 150q207 0 306 -147.5t99 -461.5q0 -313 -98 -459.5t-307 -146.5q-210 0 -307 146t-97 460zM262 575q0 -259 53 -364t179 -105q123 0 177 107.5t54 361.5t-53.5 360.5t-177.5 106.5q-123 0 -177.5 -104.5t-54.5 -362.5zM443 1267v10q0 3 -1 8v14
q0 34 10.5 61.5t45.5 68.5l5 7q43 51 43 103q0 38 -15.5 56.5t-35.5 18.5q-25 0 -41 -23t-16 -73v-16h-87v15q0 74 35 116.5t108 42.5q68 0 106 -38.5t38 -99.5q0 -62 -62 -135l-17 -17q-32 -41 -32 -92v-12q0 -6 2 -15h-86z" />
    <glyph glyph-name="otilde" unicode="&#xf5;" horiz-adv-x="989" 
d="M90 575q0 309 99 459t305 150q207 0 306 -147.5t99 -461.5q0 -313 -98 -459.5t-307 -146.5q-210 0 -307 146t-97 460zM262 575q0 -259 53 -364t179 -105q123 0 177 107.5t54 361.5t-53.5 360.5t-177.5 106.5q-123 0 -177.5 -104.5t-54.5 -362.5zM748 1518
q-13 -99 -56 -150t-110 -51q-18 0 -28 2l-31 8l-87 31l-12 3l-22 1q-22 0 -43 -18q-16 -15 -29 -48h-76q21 95 65.5 145t110.5 50q15 0 21 -2q9 0 20 -4l107 -33l4 -1l24 -3q26 0 44 18t24 52h74z" />
    <glyph glyph-name="odieresis" unicode="&#x1ecd;" horiz-adv-x="989" 
d="M90 575q0 309 99 459t305 150q207 0 306 -147.5t99 -461.5q0 -313 -98 -459.5t-307 -146.5q-210 0 -307 146t-97 460zM262 575q0 -259 53 -364t179 -105q123 0 177 107.5t54 361.5t-53.5 360.5t-177.5 106.5q-123 0 -177.5 -104.5t-54.5 -362.5zM417 -312v170h156v-170
h-156z" />
    <glyph glyph-name="ô" unicode="&#xf4;" horiz-adv-x="989" 
d="M90 575q0 309 99 459t305 150q207 0 306 -147.5t99 -461.5q0 -313 -98 -459.5t-307 -146.5q-210 0 -307 146t-97 460zM262 575q0 -259 53 -364t179 -105q123 0 177 107.5t54 361.5t-53.5 360.5t-177.5 106.5q-123 0 -177.5 -104.5t-54.5 -362.5zM246 1276l172 270h168
l172 -270h-98l-158 166l-158 -166h-98z" />
    <glyph glyph-name="uni1ED3" unicode="&#x1ed3;" horiz-adv-x="989" 
d="M90 575q0 309 99 459t305 150q207 0 306 -147.5t99 -461.5q0 -313 -98 -459.5t-307 -146.5q-210 0 -307 146t-97 460zM262 575q0 -259 53 -364t179 -105q123 0 177 107.5t54 361.5t-53.5 360.5t-177.5 106.5q-123 0 -177.5 -104.5t-54.5 -362.5zM246 1276l172 270h168
l172 -270h-98l-158 166l-158 -166h-98zM812 1466h-101l-247 270h178z" />
    <glyph glyph-name="uni1ED1" unicode="&#x1ed1;" horiz-adv-x="989" 
d="M90 575q0 309 99 459t305 150q207 0 306 -147.5t99 -461.5q0 -313 -98 -459.5t-307 -146.5q-210 0 -307 146t-97 460zM262 575q0 -259 53 -364t179 -105q123 0 177 107.5t54 361.5t-53.5 360.5t-177.5 106.5q-123 0 -177.5 -104.5t-54.5 -362.5zM246 1276l172 270h168
l172 -270h-98l-158 166l-158 -166h-98zM850 1736h178l-247 -270h-101z" />
    <glyph glyph-name="uni1ED5" unicode="&#x1ed5;" horiz-adv-x="989" 
d="M90 575q0 309 99 459t305 150q207 0 306 -147.5t99 -461.5q0 -313 -98 -459.5t-307 -146.5q-210 0 -307 146t-97 460zM262 575q0 -259 53 -364t179 -105q123 0 177 107.5t54 361.5t-53.5 360.5t-177.5 106.5q-123 0 -177.5 -104.5t-54.5 -362.5zM246 1276l172 270h168
l172 -270h-98l-158 166l-158 -166h-98zM686 1460v10q0 3 -1 8v14q0 34 10.5 61.5t45.5 68.5l5 7q43 51 43 103q0 38 -15.5 56.5t-35.5 18.5q-25 0 -41 -23t-16 -73v-16h-87v15q0 74 35 116.5t108 42.5q68 0 106 -38.5t38 -99.5q0 -62 -62 -135l-17 -17q-32 -41 -32 -92v-12
q0 -6 2 -15h-86z" />
    <glyph glyph-name="uni1ED7" unicode="&#x1ed7;" horiz-adv-x="989" 
d="M90 575q0 309 99 459t305 150q207 0 306 -147.5t99 -461.5q0 -313 -98 -459.5t-307 -146.5q-210 0 -307 146t-97 460zM262 575q0 -259 53 -364t179 -105q123 0 177 107.5t54 361.5t-53.5 360.5t-177.5 106.5q-123 0 -177.5 -104.5t-54.5 -362.5zM246 1276l172 270h168
l172 -270h-98l-158 166l-158 -166h-98zM777 1799q-13 -99 -56 -150t-110 -51q-18 0 -28 2l-31 8l-87 31l-12 3l-22 1q-22 0 -43 -18q-16 -15 -29 -48h-76q21 95 65.5 145t110.5 50q15 0 21 -2q9 0 20 -4l107 -33l4 -1l24 -3q26 0 44 18t24 52h74z" />
    <glyph glyph-name="ônang" unicode="&#x1ed9;" horiz-adv-x="989" 
d="M90 575q0 309 99 459t305 150q207 0 306 -147.5t99 -461.5q0 -313 -98 -459.5t-307 -146.5q-210 0 -307 146t-97 460zM262 575q0 -259 53 -364t179 -105q123 0 177 107.5t54 361.5t-53.5 360.5t-177.5 106.5q-123 0 -177.5 -104.5t-54.5 -362.5zM246 1276l172 270h168
l172 -270h-98l-158 166l-158 -166h-98zM417 -312v170h156v-170h-156z" />
    <glyph glyph-name="uhuyen" unicode="&#xf9;" horiz-adv-x="963" 
d="M682 0v150q-33 -86 -108 -133.5t-179 -47.5q-145 0 -210.5 71t-65.5 226v885h168v-889q0 -71 35.5 -110t99.5 -39q115 0 180.5 72.5t65.5 201.5v764h163v-1151h-149zM596 1276h-101l-247 270h178z" />
    <glyph glyph-name="uacute" unicode="&#xfa;" horiz-adv-x="963" 
d="M682 0v150q-33 -86 -108 -133.5t-179 -47.5q-145 0 -210.5 71t-65.5 226v885h168v-889q0 -71 35.5 -110t99.5 -39q115 0 180.5 72.5t65.5 201.5v764h163v-1151h-149zM354 1274l170 272h178l-247 -272h-101z" />
    <glyph glyph-name="uni1EE7" unicode="&#x1ee7;" horiz-adv-x="963" 
d="M682 0v150q-33 -86 -108 -133.5t-179 -47.5q-145 0 -210.5 71t-65.5 226v885h168v-889q0 -71 35.5 -110t99.5 -39q115 0 180.5 72.5t65.5 201.5v764h163v-1151h-149zM443 1267v10q0 3 -1 8v14q0 34 10.5 61.5t45.5 68.5l5 7q43 51 43 103q0 38 -15.5 56.5t-35.5 18.5
q-25 0 -41 -23t-16 -73v-16h-87v15q0 74 35 116.5t108 42.5q68 0 106 -38.5t38 -99.5q0 -62 -62 -135l-17 -17q-32 -41 -32 -92v-12q0 -6 2 -15h-86z" />
    <glyph glyph-name="utilde" unicode="&#x169;" horiz-adv-x="963" 
d="M682 0v150q-33 -86 -108 -133.5t-179 -47.5q-145 0 -210.5 71t-65.5 226v885h168v-889q0 -71 35.5 -110t99.5 -39q115 0 180.5 72.5t65.5 201.5v764h163v-1151h-149zM748 1518q-13 -99 -56 -150t-110 -51q-18 0 -28 2l-31 8l-87 31l-12 3l-22 1q-22 0 -43 -18
q-16 -15 -29 -48h-76q21 95 65.5 145t110.5 50q15 0 21 -2q9 0 20 -4l107 -33l4 -1l24 -3q26 0 44 18t24 52h74z" />
    <glyph glyph-name="uni1EE5" unicode="&#x1ee5;" horiz-adv-x="963" 
d="M682 0v150q-33 -86 -108 -133.5t-179 -47.5q-145 0 -210.5 71t-65.5 226v885h168v-889q0 -71 35.5 -110t99.5 -39q115 0 180.5 72.5t65.5 201.5v764h163v-1151h-149zM417 -312v170h156v-170h-156z" />
    <glyph glyph-name="u(" unicode="&#x1b0;" horiz-adv-x="963" 
d="M831 960v-960h-149v150q-33 -86 -108 -133.5t-179 -47.5q-145 0 -210.5 71t-65.5 226v885h168v-889q0 -71 35.5 -110t99.5 -39q115 0 180.5 72.5t65.5 201.5v764h163v-97q11 12 20 30q22 45 22 120v9h-80v192h165v-192q0 -105 -44 -176q-32 -52 -83 -77z" />
    <glyph glyph-name="uni1EEB" unicode="&#x1eeb;" horiz-adv-x="963" 
d="M596 1276h-101l-247 270h178zM831 960v-960h-149v150q-33 -86 -108 -133.5t-179 -47.5q-145 0 -210.5 71t-65.5 226v885h168v-889q0 -71 35.5 -110t99.5 -39q115 0 180.5 72.5t65.5 201.5v764h163v-97q11 12 20 30q22 45 22 120v9h-80v192h165v-192q0 -105 -44 -176
q-32 -52 -83 -77z" />
    <glyph glyph-name="uni1EE9" unicode="&#x1ee9;" horiz-adv-x="963" 
d="M354 1274l170 272h178l-247 -272h-101zM831 960v-960h-149v150q-33 -86 -108 -133.5t-179 -47.5q-145 0 -210.5 71t-65.5 226v885h168v-889q0 -71 35.5 -110t99.5 -39q115 0 180.5 72.5t65.5 201.5v764h163v-97q11 12 20 30q22 45 22 120v9h-80v192h165v-192
q0 -105 -44 -176q-32 -52 -83 -77z" />
    <glyph glyph-name="uni1EED" unicode="&#x1eed;" horiz-adv-x="963" 
d="M443 1267v10q0 3 -1 8v14q0 34 10.5 61.5t45.5 68.5l5 7q43 51 43 103q0 38 -15.5 56.5t-35.5 18.5q-25 0 -41 -23t-16 -73v-16h-87v15q0 74 35 116.5t108 42.5q68 0 106 -38.5t38 -99.5q0 -62 -62 -135l-17 -17q-32 -41 -32 -92v-12q0 -6 2 -15h-86zM831 960v-960h-149
v150q-33 -86 -108 -133.5t-179 -47.5q-145 0 -210.5 71t-65.5 226v885h168v-889q0 -71 35.5 -110t99.5 -39q115 0 180.5 72.5t65.5 201.5v764h163v-97q11 12 20 30q22 45 22 120v9h-80v192h165v-192q0 -105 -44 -176q-32 -52 -83 -77z" />
    <glyph glyph-name="uni1EEF" unicode="&#x1eef;" horiz-adv-x="963" 
d="M748 1518q-13 -99 -56 -150t-110 -51q-18 0 -28 2l-31 8l-87 31l-12 3l-22 1q-22 0 -43 -18q-16 -15 -29 -48h-76q21 95 65.5 145t110.5 50q15 0 21 -2q9 0 20 -4l107 -33l4 -1l24 -3q26 0 44 18t24 52h74zM831 960v-960h-149v150q-33 -86 -108 -133.5t-179 -47.5
q-145 0 -210.5 71t-65.5 226v885h168v-889q0 -71 35.5 -110t99.5 -39q115 0 180.5 72.5t65.5 201.5v764h163v-97q11 12 20 30q22 45 22 120v9h-80v192h165v-192q0 -105 -44 -176q-32 -52 -83 -77z" />
    <glyph glyph-name="uni1EF1" unicode="&#x1ef1;" horiz-adv-x="963" 
d="M417 -312v170h156v-170h-156zM831 960v-960h-149v150q-33 -86 -108 -133.5t-179 -47.5q-145 0 -210.5 71t-65.5 226v885h168v-889q0 -71 35.5 -110t99.5 -39q115 0 180.5 72.5t65.5 201.5v764h163v-97q11 12 20 30q22 45 22 120v9h-80v192h165v-192q0 -105 -44 -176
q-32 -52 -83 -77z" />
    <glyph glyph-name="ow" unicode="&#x1a1;" horiz-adv-x="989" 
d="M262 575q0 -259 53 -364t179 -105q123 0 177 107.5t54 361.5t-53.5 360.5t-177.5 106.5q-123 0 -177.5 -104.5t-54.5 -362.5zM824 996q75 -147 75 -421q0 -313 -98 -459.5t-307 -146.5q-210 0 -307 146t-97 460q0 309 99 459t305 150q188 0 286 -121q7 9 13 21
q22 45 22 120v9h-80v192h165v-192q0 -105 -44 -176q-14 -23 -32 -41z" />
    <glyph glyph-name="uni1EDD" unicode="&#x1edd;" horiz-adv-x="989" 
d="M262 575q0 -259 53 -364t179 -105q123 0 177 107.5t54 361.5t-53.5 360.5t-177.5 106.5q-123 0 -177.5 -104.5t-54.5 -362.5zM623 1276h-101l-247 270h178zM824 996q75 -147 75 -421q0 -313 -98 -459.5t-307 -146.5q-210 0 -307 146t-97 460q0 309 99 459t305 150
q188 0 286 -121q7 9 13 21q22 45 22 120v9h-80v192h165v-192q0 -105 -44 -176q-14 -23 -32 -41z" />
    <glyph glyph-name="uni1EDB" unicode="&#x1edb;" horiz-adv-x="989" 
d="M262 575q0 -259 53 -364t179 -105q123 0 177 107.5t54 361.5t-53.5 360.5t-177.5 106.5q-123 0 -177.5 -104.5t-54.5 -362.5zM381 1274l170 272h178l-247 -272h-101zM824 996q75 -147 75 -421q0 -313 -98 -459.5t-307 -146.5q-210 0 -307 146t-97 460q0 309 99 459
t305 150q188 0 286 -121q7 9 13 21q22 45 22 120v9h-80v192h165v-192q0 -105 -44 -176q-14 -23 -32 -41z" />
    <glyph glyph-name="uni1EDF" unicode="&#x1edf;" horiz-adv-x="989" 
d="M262 575q0 -259 53 -364t179 -105q123 0 177 107.5t54 361.5t-53.5 360.5t-177.5 106.5q-123 0 -177.5 -104.5t-54.5 -362.5zM443 1267v10q0 3 -1 8v14q0 34 10.5 61.5t45.5 68.5l5 7q43 51 43 103q0 38 -15.5 56.5t-35.5 18.5q-25 0 -41 -23t-16 -73v-16h-87v15
q0 74 35 116.5t108 42.5q68 0 106 -38.5t38 -99.5q0 -62 -62 -135l-17 -17q-32 -41 -32 -92v-12q0 -6 2 -15h-86zM824 996q75 -147 75 -421q0 -313 -98 -459.5t-307 -146.5q-210 0 -307 146t-97 460q0 309 99 459t305 150q188 0 286 -121q7 9 13 21q22 45 22 120v9h-80v192
h165v-192q0 -105 -44 -176q-14 -23 -32 -41z" />
    <glyph glyph-name="uni1EE1" unicode="&#x1ee1;" horiz-adv-x="989" 
d="M262 575q0 -259 53 -364t179 -105q123 0 177 107.5t54 361.5t-53.5 360.5t-177.5 106.5q-123 0 -177.5 -104.5t-54.5 -362.5zM748 1518q-13 -99 -56 -150t-110 -51q-18 0 -28 2l-31 8l-87 31l-12 3l-22 1q-22 0 -43 -18q-16 -15 -29 -48h-76q21 95 65.5 145t110.5 50
q15 0 21 -2q9 0 20 -4l107 -33l4 -1l24 -3q26 0 44 18t24 52h74zM824 996q75 -147 75 -421q0 -313 -98 -459.5t-307 -146.5q-210 0 -307 146t-97 460q0 309 99 459t305 150q188 0 286 -121q7 9 13 21q22 45 22 120v9h-80v192h165v-192q0 -105 -44 -176q-14 -23 -32 -41z" />
    <glyph glyph-name="uni1EE3" unicode="&#x1ee3;" horiz-adv-x="989" 
d="M262 575q0 -259 53 -364t179 -105q123 0 177 107.5t54 361.5t-53.5 360.5t-177.5 106.5q-123 0 -177.5 -104.5t-54.5 -362.5zM417 -312v170h156v-170h-156zM824 996q75 -147 75 -421q0 -313 -98 -459.5t-307 -146.5q-210 0 -307 146t-97 460q0 309 99 459t305 150
q188 0 286 -121q7 9 13 21q22 45 22 120v9h-80v192h165v-192q0 -105 -44 -176q-14 -23 -32 -41z" />
    <glyph glyph-name="yhuyen" unicode="&#x1ef3;" horiz-adv-x="909" 
d="M78 -369v146q23 -10 50 -16q16 -3 24 -4t26 -1q70 0 112 48q20 23 41 70t42 116l-338 1161h174l246 -928l254 928h165l-354 -1202q-55 -194 -128.5 -265t-207.5 -71q-9 0 -21.5 1t-26.5 4q-28 3 -58 13zM555 1276h-101l-247 270h178z" />
    <glyph glyph-name="ysac" unicode="&#xfd;" horiz-adv-x="909" 
d="M78 -369v146q23 -10 50 -16q16 -3 24 -4t26 -1q70 0 112 48q20 23 41 70t42 116l-338 1161h174l246 -928l254 928h165l-354 -1202q-55 -194 -128.5 -265t-207.5 -71q-9 0 -21.5 1t-26.5 4q-28 3 -58 13zM381 1274l170 272h178l-247 -272h-101z" />
    <glyph glyph-name="yhoi" unicode="&#x1ef7;" horiz-adv-x="909" 
d="M78 -369v146q23 -10 50 -16q16 -3 24 -4t26 -1q70 0 112 48q20 23 41 70t42 116l-338 1161h174l246 -928l254 928h165l-354 -1202q-55 -194 -128.5 -265t-207.5 -71q-9 0 -21.5 1t-26.5 4q-28 3 -58 13zM424 1267v10q0 3 -1 8v14q0 34 10.5 61.5t45.5 68.5l5 7
q43 51 43 103q0 38 -15.5 56.5t-35.5 18.5q-25 0 -41 -23t-16 -73v-16h-87v15q0 74 35 116.5t108 42.5q68 0 106 -38.5t38 -99.5q0 -62 -62 -135l-17 -17q-32 -41 -32 -92v-12q0 -6 2 -15h-86z" />
    <glyph glyph-name="ynga" unicode="&#x1ef9;" horiz-adv-x="909" 
d="M78 -369v146q23 -10 50 -16q16 -3 24 -4t26 -1q70 0 112 48q20 23 41 70t42 116l-338 1161h174l246 -928l254 928h165l-354 -1202q-55 -194 -128.5 -265t-207.5 -71q-9 0 -21.5 1t-26.5 4q-28 3 -58 13zM748 1518q-13 -99 -56 -150t-110 -51q-18 0 -28 2l-31 8l-87 31
l-12 3l-22 1q-22 0 -43 -18q-16 -15 -29 -48h-76q21 95 65.5 145t110.5 50q15 0 21 -2q9 0 20 -4l107 -33l4 -1l24 -3q26 0 44 18t24 52h74z" />
    <glyph glyph-name="ynang" unicode="&#x1ef5;" horiz-adv-x="909" 
d="M78 -369v146q23 -10 50 -16q16 -3 24 -4t26 -1q70 0 112 48q20 23 41 70t42 116l-338 1161h174l246 -928l254 928h165l-354 -1202q-55 -194 -128.5 -265t-207.5 -71q-9 0 -21.5 1t-26.5 4q-28 3 -58 13zM533 -312v170h156v-170h-156z" />
    <glyph glyph-name="glyph252" horiz-adv-x="1449" 
 />
  </font>
</defs>
</svg>
