<?xml version="1.0" encoding="utf-8"?>
<!-- Generator: Adobe Illustrator 19.2.1, SVG Export Plug-In . SVG Version: 6.00 Build 0)  -->
<svg version="1.1" id="Layer_1" xmlns="http://www.w3.org/2000/svg" xmlns:xlink="http://www.w3.org/1999/xlink" x="0px" y="0px"
	 viewBox="0 0 46 46" style="enable-background:new 0 0 46 46;" xml:space="preserve">
<style type="text/css">
	.st0{fill:#FFFFFF;}
</style>
<g>
	<path class="st0" d="M46,37.9c-0.1-1.1-0.8-2.1-1.8-2.6l-11.3-6.5c-1.4-0.8-3.2-0.6-4.3,0.6l-2.2,2.2c-0.6,0.6-1.5,0.6-2.2,0.1
		c-1.8-1.4-3.5-3-5.2-4.6c-1.7-1.7-3.2-3.4-4.6-5.2c-0.5-0.7-0.5-1.6,0.1-2.2l2.2-2.2c1.1-1.1,1.4-2.9,0.6-4.3L10.8,1.8
		c-0.6-1-1.5-1.6-2.6-1.8C7-0.1,5.9,0.3,5.2,1L1.8,4.4c-2.4,2.4-2.4,6.7-0.1,12.1c2.2,5.2,6.3,11,11.5,16.3
		c5.2,5.2,11,9.3,16.3,11.5c2.7,1.1,5.1,1.7,7.1,1.7c2.1,0,3.8-0.6,5-1.8l3.4-3.4C45.7,40.1,46.1,39,46,37.9L46,37.9z M32.1,30
		l11.3,6.5c0.6,0.3,0.9,0.9,1,1.5c0.1,0.5-0.1,1.1-0.4,1.5L29,30.9l0.6-0.6C30.3,29.7,31.3,29.5,32.1,30L32.1,30z M7.9,1.5
		c0.6,0.1,1.2,0.5,1.5,1L16,13.9c0.5,0.8,0.3,1.8-0.3,2.5l-0.6,0.6l-8.7-15c0.4-0.3,0.8-0.4,1.2-0.4C7.8,1.5,7.9,1.5,7.9,1.5
		L7.9,1.5z M40.5,43.2c-1.9,1.9-5.7,1.8-10.5-0.2c-5.1-2.1-10.7-6.1-15.8-11.2C9.2,26.6,5.2,21,3.1,15.9C1.1,11.2,1,7.3,2.8,5.5
		L5.3,3L14,18l-0.6,0.6c-1.1,1.1-1.2,2.9-0.2,4.2c1.5,1.8,3,3.6,4.7,5.3c1.7,1.7,3.5,3.3,5.3,4.7c1.2,1,3,0.9,4.2-0.2l0.5-0.5
		L43,40.7L40.5,43.2L40.5,43.2z"/>
</g>
</svg>
