<svg xmlns="http://www.w3.org/2000/svg">
<defs>
<font id="UTMClassizismAntiqua" horiz-adv-x="1497" >
  <font-face 
    font-family="UTM ClassizismAntiqua"
    font-weight="400"
    font-stretch="normal"
    units-per-em="2048"
    panose-1="2 4 6 3 5 5 6 2 2 4"
    ascent="1638"
    descent="-410"
    x-height="1440"
    cap-height="1446"
    bbox="-20 -586 4942 2314"
    underline-thickness="109"
    underline-position="-251"
    unicode-range="U+0020-2026"
  />
<missing-glyph horiz-adv-x="5040" 
d="M3351 2045h10q37 -10 37 -52q0 -12 -32 -57h-28q0 24 28 54l2 10q-5 13 -10 15h-9q-8 0 -10 -19h-30q6 49 42 49zM2019 2016l29 -31q0 -16 -40 -30h-19l-59 12l-11 -12l-28 25q11 29 43 29h11l42 -11h2q10 0 30 18zM468 1980h142v-60h-94v-75h89v-59h-89v-129l-5 -5h-49
v323zM1155 1980h43l6 -5v-78h30v-52h-30v-188l-6 -5h-49v193h-25v52h25v78zM1621 1980h42l4 -5v-94h3q23 24 54 24h2q58 0 83 -71l2 -39v-143h-52v115q0 80 -42 80h-7q-43 0 -43 -86v-109h-51v323zM2200 1980h49l5 -5v-222q10 -51 45 -51q44 7 44 59v214l5 5h49v-216
q0 -85 -66 -112q-15 -8 -35 -8q-47 0 -82 55q-14 24 -14 57v224zM2435 1980h159v-60h-56v-268h-53v268h-55v55zM2621 1980h71q7 -4 83 -251h2l80 251h73v-328h-54v242h-2l-74 -242h-44q-4 0 -58 182l-19 60h-3v-242h-55v328zM3760 1980h52v-328h-45l-5 5v11l3 2l-3 14
q-29 -40 -78 -40q-67 0 -100 91l-5 39v3q0 94 92 125l23 3q35 0 63 -32h3v107zM2057 1928h36l4 -6v-49h-45v-221h-48v23q-23 -31 -59 -31q-89 14 -89 97v156h51v-104q0 -79 26 -86l18 -5h6q26 0 39 36l3 26v133h53v25zM3476 1928v-55h-31v-221h-47v25h-2q-15 -33 -57 -33
q-68 0 -86 78l-3 29v146h52v-120q0 -50 19 -68l21 -7h9q42 0 42 69v126h27q4 0 4 28l3 3h49zM758 1905q68 0 103 -77q9 -18 12 -54q0 -88 -90 -127l-32 -3q-63 0 -101 73q-12 22 -12 52v10q0 94 101 126h19zM1011 1905h3q74 0 83 -101v-152h-51v119q0 76 -42 76h-5
q-44 0 -44 -76v-119h-52v245h46v-21q30 29 62 29zM1466 1905h7q72 0 105 -89h-60q-16 31 -42 31h-17q-53 -14 -53 -61l-3 -15q12 -69 61 -69h9q22 0 47 27h40l2 3h3l2 -3l2 3l3 -3l2 3l2 -7q-33 -81 -110 -81q-76 0 -110 94l-4 36v3q0 85 77 120q15 8 37 8zM3141 1905h2

<glyph glyph-name=".notdef" horiz-adv-x="5040" 
d="M3351 2045h10q37 -10 37 -52q0 -12 -32 -57h-28q0 24 28 54l2 10q-5 13 -10 15h-9q-8 0 -10 -19h-30q6 49 42 49zM2019 2016l29 -31q0 -16 -40 -30h-19l-59 12l-11 -12l-28 25q11 29 43 29h11l42 -11h2q10 0 30 18zM468 1980h142v-60h-94v-75h89v-59h-89v-129l-5 -5h-49
v323zM1155 1980h43l6 -5v-78h30v-52h-30v-188l-6 -5h-49v193h-25v52h25v78zM1621 1980h42l4 -5v-94h3q23 24 54 24h2q58 0 83 -71l2 -39v-143h-52v115q0 80 -42 80h-7q-43 0 -43 -86v-109h-51v323zM2200 1980h49l5 -5v-222q10 -51 45 -51q44 7 44 59v214l5 5h49v-216
q0 -85 -66 -112q-15 -8 -35 -8q-47 0 -82 55q-14 24 -14 57v224zM2435 1980h159v-60h-56v-268h-53v268h-55v55zM2621 1980h71q7 -4 83 -251h2l80 251h73v-328h-54v242h-2l-74 -242h-44q-4 0 -58 182l-19 60h-3v-242h-55v328zM3760 1980h52v-328h-45l-5 5v11l3 2l-3 14
q-29 -40 -78 -40q-67 0 -100 91l-5 39v3q0 94 92 125l23 3q35 0 63 -32h3v107zM2057 1928h36l4 -6v-49h-45v-221h-48v23q-23 -31 -59 -31q-89 14 -89 97v156h51v-104q0 -79 26 -86l18 -5h6q26 0 39 36l3 26v133h53v25zM3476 1928v-55h-31v-221h-47v25h-2q-15 -33 -57 -33
q-68 0 -86 78l-3 29v146h52v-120q0 -50 19 -68l21 -7h9q42 0 42 69v126h27q4 0 4 28l3 3h49zM758 1905q68 0 103 -77q9 -18 12 -54q0 -88 -90 -127l-32 -3q-63 0 -101 73q-12 22 -12 52v10q0 94 101 126h19zM1011 1905h3q74 0 83 -101v-152h-51v119q0 76 -42 76h-5
q-44 0 -44 -76v-119h-52v245h46v-21q30 29 62 29zM1466 1905h7q72 0 105 -89h-60q-16 31 -42 31h-17q-53 -14 -53 -61l-3 -15q12 -69 61 -69h9q22 0 47 27h40l2 3h3l2 -3l2 3l3 -3l2 3l2 -7q-33 -81 -110 -81q-76 0 -110 94l-4 36v3q0 85 77 120q15 8 37 8zM3141 1905h2
q49 0 70 -60v-14h-52q0 16 -16 16h-4q-14 0 -19 -13v-13q0 -9 68 -35q30 -19 30 -59q0 -58 -61 -80l-23 -3q-76 12 -76 83h54q0 -20 27 -25h4q19 0 24 23q0 22 -68 44q-34 27 -34 59q0 66 74 77zM4203 1905q55 0 77 -63q7 -18 7 -65v-125h-52v112q0 83 -40 83h-11
q-33 0 -40 -54v-141h-52v5h-2l2 2v238h47v-21q25 29 64 29zM4432 1905h5q40 0 69 -40v18l-3 3l3 11h47v-208q0 -97 -85 -132l-33 -4h-7q-70 0 -104 80h59q24 -22 45 -23h13q22 0 43 22q15 13 22 52h-3q-32 -40 -73 -40q-57 0 -96 70q-10 18 -14 63q0 88 87 125zM3851 1897
h53v-136q6 -59 40 -59h7q46 0 46 93v102h51v-245h-47l-3 10h3l-3 3v5l3 2v3h-4q0 -23 -57 -31h-3q-59 0 -84 75l-2 85v93zM690 1771q10 -69 63 -69h7q59 14 59 65v15q-13 65 -59 65h-5q-58 0 -65 -76zM3630 1774q13 -72 61 -72h5q58 0 66 75q0 49 -51 70h-22q-37 0 -56 -57z
M4374 1774q8 -72 65 -72h5q59 12 59 72q0 61 -59 73h-14q-56 -16 -56 -62v-11zM3928 1620h52v-57h-52v57zM1054 1402q43 -11 43 -49v-4q0 -17 -32 -60h-28q0 25 31 57v7q0 12 -7 15h-12q-10 -4 -10 -19h-28v6q0 32 33 44zM3349 1339q92 0 138 -99h-60q-37 42 -80 42
q-55 0 -87 -68q-10 -22 -10 -47q0 -78 81 -110l18 -1q36 0 75 39h61q-44 -97 -138 -97q-93 0 -141 112q-10 31 -10 62q0 97 90 152q29 15 63 15zM3664 1339q57 0 103 -47q46 -51 46 -115v-20q0 -89 -91 -146q-33 -13 -63 -13q-89 0 -138 101q-13 33 -13 60v18q0 98 98 151
q29 11 58 11zM2261 1337h2l47 -11h3q11 0 26 11l18 -36q-18 -19 -35 -19h-3l-54 10l-20 -7l-20 36q18 16 36 16zM716 1334h19q118 0 129 -26q25 -26 25 -62q-10 -57 -30 -57v-6q47 -23 47 -66v-18q0 -63 -69 -88l-54 -5h-67v328zM2550 1334h53v-217q6 -61 45 -61q29 0 44 39
l3 30v203l4 6h45l5 -6v-171q0 -118 -40 -133q-24 -26 -64 -26q-55 0 -91 76l-4 54v206zM2805 1334h59q4 0 122 -237h4v237h50l4 -6v-322h-58q-29 48 -125 238h-3v-238h-53v328zM3101 1334h54v-328h-54v328zM3859 1334h8q155 0 174 -40q23 -11 47 -75l4 -36v-11l3 -2
q0 -94 -82 -149q-35 -15 -99 -15h-55v328zM4141 1334h153v-60h-103v-75h101v-57h-101v-74l4 -5h99v-57h-157v322zM3563 1175v-10q0 -76 79 -108l19 -1q68 0 96 86l3 20v15q0 61 -60 94q-12 8 -39 11q-66 0 -96 -83zM770 1274v-67h9q54 0 54 28l3 14q-11 25 -29 25h-37z
M3912 1274v-206l2 -3v-2q104 0 122 76l2 15v29q0 34 -32 68q-25 23 -78 23h-16zM1041 1259h5q38 0 71 -40v32h49v-245h-49v32q-36 -40 -80 -40q-75 0 -101 97l-5 36q0 89 85 125zM1314 1259h3q74 0 83 -102v-151h-51v128q0 67 -42 67h-10q-34 0 -39 -62v-133h-52v245h47v-21
q28 29 61 29zM1543 1259h5q45 0 71 -40v32h47v-219q0 -95 -104 -126h-16q-74 0 -108 82h59q26 -25 44 -25h14q52 0 64 77q-33 -42 -76 -42q-60 0 -101 81l-7 44v16q0 79 85 117zM1912 1259h2q43 0 61 -37h2q32 37 69 37h4q57 0 79 -55q8 -25 8 -45v-153h-52v138q0 44 -23 55
l-12 2h-15q-32 0 -36 -65v-130h-52v136q0 59 -43 59h-8q-32 0 -36 -57v-138h-54v245h50v-21h2q6 24 54 29zM2282 1259q47 0 75 -42v34h47v-245h-47v32q-36 -40 -78 -40q-74 0 -102 92l-6 41q0 90 85 125zM985 1117q0 -48 61 -61h4q45 0 62 46l3 15v22q-12 62 -57 62h-14
q-41 0 -59 -57v-27zM1487 1128q0 -48 43 -68l18 -4h5q47 0 63 57v23q-11 65 -58 65h-12q-50 0 -59 -73zM2225 1131v-14q15 -61 57 -61h14q58 12 58 64v11q0 45 -37 65l-18 5h-10q-64 -8 -64 -70zM770 1150v-82q0 -5 7 -5q77 0 77 45q0 34 -47 42h-37zM2966 753l24 -28
l-51 -55q-18 12 -27 26zM1524 727l85 -54q0 -15 -21 -42l-87 54q18 41 23 42zM2850 693h38l55 -60h-54l-21 26l-23 -26h-54q54 60 59 60zM3422 693h40l56 -60h-54l-24 26h-1q0 -5 -19 -26h-54zM622 685h52q8 -4 47 -137l34 -110q9 8 34 100l48 147h54v-2l-112 -326h-44z
M1159 685h51v-54h-51v54zM1354 685h46l6 -5v-323h-52v328zM2317 685h45l4 -5v-78h31v-52h-31v-193h-53v193h-26v52h26v78zM2425 685h52v-98h2q23 23 54 23h3q57 0 81 -71l3 -38v-144h-52v115q0 81 -39 81h-10q-42 0 -42 -87v-109h-52v328zM2664 685h52v-54h-52v54zM3028 685
h44l6 -5v-78h29v-52h-29v-193h-54v193h-27v52h27v78zM3234 685h52v-328h-52v328zM3957 685h52v-328h-52v328zM4316 685h51v-54h-51v54zM1555 610h5q83 0 110 -102l3 -23v-11q0 -83 -85 -120l-35 -5q-76 0 -111 97l-4 32q0 97 93 130zM1811 610h4q53 0 78 -60q7 -25 7 -81
v-112h-54v146q-7 50 -37 50h-10q-38 0 -42 -57v-139h-54v245h49v-21q26 29 59 29zM2046 610h4q45 0 63 -39h3v31h49v-206q0 -102 -89 -135l-28 -3h-5q-73 0 -106 81h52l37 -20l15 -3h14q50 0 61 72q-33 -39 -73 -39q-62 0 -98 76q-11 23 -12 60q0 85 86 123zM2866 610h2
q82 0 111 -104l2 -25l-2 -27h-172q15 -45 45 -45l14 -3q29 0 49 22h57v-3q-35 -76 -108 -76q-77 0 -111 97l-1 28v8q0 49 32 89q34 39 82 39zM3429 610h5q41 0 70 -39h2v31h47v-245h-47v31h-2q-35 -39 -77 -39q-71 0 -101 89l-5 36v14q0 86 84 120zM3711 610h7
q88 0 107 -128l-2 -1v-15q0 -65 -66 -106q-21 -11 -46 -11q-34 0 -64 32v-99l-5 -5h-49v325h49v-28q31 36 69 36zM4151 610q44 0 75 -39v31h49v-245h-49v31q-35 -39 -77 -39q-92 0 -108 132q0 84 73 121q15 8 37 8zM922 602h50v-136q3 -60 42 -60h5q44 0 44 87v109h52v-245
h-47v24h-5q0 -23 -56 -32h-3q-55 0 -82 68q-4 35 -4 99v81zM1159 602h51v-245h-51v245zM2664 602h52v-245h-52v245zM4316 602h51v-245h-51v245zM1492 488v-16q13 -66 59 -66h4q59 0 66 76q-13 71 -59 71h-11q-59 -16 -59 -65zM1987 472q15 -66 59 -66h11q48 0 59 75v1
q-13 71 -59 71h-14q-39 0 -56 -57v-24zM2805 506h122v2q-16 45 -59 45h-7q-35 0 -56 -47zM3373 474q13 -68 61 -68h5q52 0 65 63v12q-10 72 -57 72h-16q-56 -14 -56 -63zM3642 478q12 -72 61 -72h3q50 0 65 60v22q0 43 -49 65h-22q-47 0 -58 -72v-3zM4095 472q10 -66 66 -66
q43 0 61 48l2 15v16q0 54 -52 68h-18q-42 0 -59 -60v-21zM3416 321h51v-52h-51v52zM4137 321h51v-52h-51v52zM2733 133h4q35 0 43 -50v-2q0 -16 -24 -41l-10 -17h-28q0 25 28 56l3 2v2q-3 19 -9 19h-10q-8 0 -9 -19h-30q6 50 42 50zM1546 116l52 -60l-26 -19l-52 52zM352 79
h4q75 -48 85 -60l-20 -37q-88 49 -88 58zM3490 79l86 -58l-18 -39q-10 0 -91 55q15 36 23 42zM4578 76l19 -42l-91 -52l-20 39l92 58v-3zM1204 53h51v-19l5 -5h14v-36h-14l-5 -5v-279h-46v31q-34 -40 -81 -40q-72 0 -102 105l-3 26q0 102 101 131h14q33 0 66 -33v59l-6 5
h-43v36h49v24zM1480 45h40l56 -61h-53l-23 27l-23 -27h-53zM2641 45h33q12 0 63 -61h-54l-23 27q-19 -21 -19 -27h-58v4zM49 37h160v-60h-56v-268h-50l-4 5v245l2 3v2l-2 2l2 3l-2 2l2 3l-2 3h-54v54zM699 37h47v-73l2 -2l-2 -3v-3l2 -2l-2 -3v-3l2 -2v-2l-2 -3l2 -3h3
q17 24 51 24h3q53 0 77 -58q7 -17 7 -42v-153h-52v127q0 68 -40 68h-8q-43 0 -43 -86v-109h-52v322zM1297 37h47l5 -6v-49h-52v55zM1987 37h52v-198l70 115h62l-78 -118l90 -125v-2h-70q-10 22 -74 115v-115h-52v328zM2271 37v-99q24 24 53 24q57 0 80 -56q10 -19 10 -77
v-120h-54v133q0 62 -41 62h-11q-31 0 -37 -55v-140h-53v314l-1 3v3l1 2l-1 3l1 3h53zM2458 37h51v-55h-51v55zM3148 37h51v-108q27 33 68 33h3q75 0 105 -94l5 -37q0 -75 -64 -120q-30 -11 -49 -11q-41 0 -72 40v-31h-47v328zM4275 37h52v-99h2q23 24 54 24h3q60 0 82 -74
l2 -41v-138h-52v111q0 82 -32 82l-10 2h-12q-37 0 -37 -80v-115h-52v328zM329 -38h3v-58h-5q-42 0 -42 -57v-138h-53v245h47v-21q18 29 50 29zM564 -38q71 0 86 -87v-166h-51v136q-6 59 -41 59h-6q-45 0 -45 -84v-111h-52v245h50v-21q25 29 59 29zM1504 -38q72 0 105 -94
l5 -39q-2 -24 -7 -24h-169q17 -47 62 -47q24 0 48 21h57q-33 -79 -108 -79q-82 0 -113 105v37q0 81 89 117zM2657 -38h5q77 0 107 -97l3 -26v-21l-3 -13h-170q18 -47 53 -47h12q21 0 42 21h59q-34 -79 -105 -79q-84 0 -115 102l-2 29q0 93 91 128zM2915 -38h4q54 0 78 -60
q7 -25 7 -82v-111h-54v138q0 48 -35 57h-11q-38 0 -43 -57v-138h-54v245h50v-21q25 29 58 29zM3508 -38h6q40 0 70 -40h2v32h47v-245h-47v31h-2q-34 -40 -78 -40q-71 0 -101 90l-4 37v12q0 82 77 117q11 6 30 6zM3781 -38h4q62 0 82 -78l3 -84v-91h-54v138q0 48 -38 57h-9
q-38 0 -42 -52v-143h-54v245h49v-21q26 29 59 29zM4133 -38h1q74 0 104 -93l4 -40q0 -88 -84 -126l-25 -3q-41 0 -68 34v-106h-52v326h47v-29q30 37 73 37zM4714 -38h5q34 0 63 -37q27 37 69 37h6q56 0 79 -66l6 -51v-136h-52v122q0 73 -39 73h-7q-35 0 -41 -50v-140l-5 -5
h-48v140q0 42 -31 55h-17q-40 0 -40 -77v-118h-51v245h47v-21q22 29 56 29zM359 -46h49l5 -6v-234l-5 -5h-49v245zM1297 -46h52v-245h-52v245zM1649 -46h52v-136q4 -60 43 -60h4q44 0 44 81v115h52v-245h-47v24h-5q-12 -33 -59 -33q-52 0 -79 63q-5 12 -5 34v157zM2458 -46
h51v-245h-51v245zM4515 -46h51v-245h-51v245zM1077 -169q0 -53 51 -73h12q54 0 66 66v10q0 53 -54 70h-17q-38 0 -58 -57v-16zM1438 -143h122q-18 47 -53 47h-7q-43 0 -62 -44v-3zM2599 -143h122q-21 47 -54 47h-7q-46 0 -61 -47zM3196 -158v-11q10 -73 61 -73h5q64 8 64 71
v5q0 45 -38 65l-18 5h-14q-60 -14 -60 -62zM3452 -173q14 -69 62 -69h11q41 0 59 60v13q-8 73 -56 73h-17q-47 0 -59 -73v-4zM4062 -158v-22q0 -47 59 -62h9q50 0 61 76q-13 70 -58 70h-15q-56 -17 -56 -62z" />
    <glyph glyph-name=".null" horiz-adv-x="0" 
 />
    <glyph glyph-name="nonmarkingreturn" horiz-adv-x="571" 
 />
    <glyph glyph-name="space" unicode=" " horiz-adv-x="454" 
 />
    <glyph glyph-name="exclam" unicode="!" horiz-adv-x="567" 
d="M337 260q-57 0 -98 -41t-41 -98q0 -58 41 -98.5t98 -40.5q58 0 99 40.5t41 98.5q0 57 -41 98t-99 41zM466 1290q0 80 -35 127q-32 45 -90 45q-61 0 -98 -45q-35 -47 -35 -133q0 -22 9.5 -104t29.5 -226q19 -143 33 -282.5t24 -276.5h58q12 135 28.5 273.5t36.5 281.5
q19 144 29 225.5t10 104.5v10z" />
    <glyph glyph-name="quotedbl" unicode="&#x22;" horiz-adv-x="770" 
d="M675 1419q0 58 -22 86q-19 29 -68 29q-47 0 -70 -29q-20 -30 -20 -86l70 -508h41zM292 1419q0 58 -22 86q-19 29 -68 29q-47 0 -70 -29q-20 -30 -20 -86l70 -508h41z" />
    <glyph glyph-name="numbersign" unicode="#" horiz-adv-x="1312" 
d="M83 643v-113h326l-72 -530h121l71 530h193l-72 -530h121l72 530h342v113h-326l27 197h344v112h-330l68 498h-121l-68 -498h-192l67 498h-120l-68 -498h-338v-112h324l-27 -197h-342zM546 643l26 197h193l-27 -197h-192z" />
    <glyph glyph-name="dollar" unicode="$" horiz-adv-x="1060" 
d="M569 1622h-74v-209q-149 -8 -249 -106q-113 -109 -113 -273q0 -153 113 -246q108 -90 213 -141q10 -4 18 -8t18 -8v-592q-104 6 -145 45q-47 43 -51 113l8 100q-6 119 -104 119q-99 0 -109 -129q6 -146 119 -226q51 -36 120.5 -55.5t161.5 -23.5v-224h74v226
q152 14 260 122q125 125 125 310q0 182 -100 276q-105 94 -244 160q-10 4 -20.5 10t-20.5 12v486q39 -2 64 -17q32 -18 49 -47q6 -12 12 -36.5t6 -77.5q19 -92 107 -92q41 0 64.5 20t27.5 64l2 24q4 39 -19.5 74t-64.5 67q-86 68 -248 76v207zM495 913q-22 13 -45.5 25
t-46.5 27q-106 61 -106 202q0 88 65 142q51 43 133 51v-447zM569 594q35 -16 67.5 -35.5l67.5 -40.5q123 -78 123 -213q0 -119 -86 -192q-65 -56 -172 -72v553z" />
    <glyph glyph-name="percent" unicode="%" horiz-adv-x="1628" 
d="M1116 1409l-702 -1409h96l704 1409h-98zM362 1425q-149 0 -233 -127q-82 -124 -82 -340q0 -202 84 -335q82 -131 215 -131q137 0 219 131q82 135 82 338q0 188 -86 327q-82 137 -199 137zM346 1372q70 0 94 -112q25 -115 25 -308q0 -202 -21 -303q-18 -104 -96 -104
q-74 0 -100 104q-25 105 -25 293q0 107 5 187.5t16 134.5q18 108 102 108zM1300 915q-149 0 -233 -127q-82 -124 -82 -339q0 -201 84 -334q80 -131 215 -131q137 0 219 131q82 135 82 336q0 188 -86 327q-82 137 -199 137zM1284 862q70 0 94 -112q25 -115 25 -308
q0 -200 -21 -301q-18 -104 -96 -104q-74 0 -100 104q-25 105 -25 291q0 107 5 187.5t16 134.5q18 108 102 108z" />
    <glyph glyph-name="ampersand" unicode="&#x26;" horiz-adv-x="1456" 
d="M1063 735q26 113 80 172q51 58 192 58v49h-598l6 -49q125 0 189 -54q59 -49 59 -166q0 -106 -51 -235q-12 -33 -24.5 -61.5t-22.5 -55.5q-2 6 -10 19q-72 127 -133.5 237.5t-112.5 208.5q-8 16 -20.5 39t-28.5 55q51 41 137 135q92 101 92 203q0 88 -49 131
q-47 43 -129 43q-139 0 -229.5 -84t-90.5 -225q0 -78 37 -184q21 -62 43 -107q-149 -98 -227 -205q-82 -106 -82 -249q0 -164 102 -297q101 -129 301 -129q134 0 236 73q20 15 38.5 33.5t39.5 40.5q51 -65 98 -98q33 -23 65.5 -36t67.5 -13q185 0 279 176q45 86 45 194
q0 115 -49 260l-49 -20q43 -133 43 -221q0 -64 -21 -105q-49 -104 -147 -106q-93 -2 -213 180q10 23 24 58.5t35 82.5q66 166 78 252zM563 1004q-4 10 -11 24t-18 35q-65 137 -65 199q0 71 39 110q39 37 92 37q57 0 82 -45q24 -43 24 -86q0 -66 -47 -154
q-22 -39 -44.5 -68.5t-51.5 -51.5zM424 819q4 -8 7 -15t7 -11q47 -95 93 -183t96 -174q94 -168 151 -260q-26 -33 -45 -49q-61 -57 -135 -57q-115 0 -225 180q-111 178 -111 297q0 88 41 153q20 29 50 60t71 59z" />
    <glyph glyph-name="quotesingle" unicode="'" horiz-adv-x="405" 
d="M302 1419q0 58 -22 86q-19 29 -68 29q-47 0 -70 -29q-20 -30 -20 -86l70 -508h41z" />
    <glyph glyph-name="parenleft" unicode="(" horiz-adv-x="776" 
d="M364 471q0 371 73 592q74 219 324 364l-31 48q-264 -146 -417 -394q-152 -247 -152 -610q0 -365 154 -612q151 -246 415 -391l31 47q-250 145 -324 366q-73 217 -73 590z" />
    <glyph glyph-name="parenright" unicode=")" horiz-adv-x="776" 
d="M413 471q0 -373 -75 -592q-78 -221 -326 -364l31 -47q266 143 420 393q153 245 153 610q0 363 -153 612q-156 248 -420 392l-31 -48q248 -143 326 -366q75 -215 75 -590z" />
    <glyph glyph-name="asterisk" unicode="*" horiz-adv-x="731" 
d="M393 1077q33 -71 43 -141q8 -72 33 -94q32 -33 69 -33q27 0 60 22q43 33 43 76q0 23 -13 51q-16 33 -79 60q-33 14 -63 34.5t-58 49.5q37 6 71 6q21 0 39.5 -2t36.5 -6q33 -6 58 -6q28 0 43 8q55 26 55 80q0 16 -6 39q-23 75 -86 69l-25 -2q-33 -6 -82 -57
q-51 -51 -119 -86q15 76 50 137q28 49 28 86v10q-12 84 -98 84t-98 -84v-10q0 -31 28 -84q35 -65 49 -139q-69 37 -118 88q-49 49 -82 55l-25 2q-63 6 -86 -69q-6 -23 -6 -39q0 -54 55 -80q15 -8 43 -8q23 0 58 6q18 4 36.5 6t38.5 2q35 0 72 -6q-29 -29 -58.5 -49.5
t-62.5 -34.5q-63 -27 -80 -60q-12 -28 -12 -51q0 -43 43 -76q33 -22 60 -22q36 0 69 33q23 22 33 94q8 70 43 141z" />
    <glyph glyph-name="plus" unicode="+" horiz-adv-x="1308" 
d="M598 788h-510v-122h510v-539h123v539h508v122h-508v533h-123v-533z" />
    <glyph glyph-name="comma" unicode="," horiz-adv-x="512" 
d="M229 244q-55 0 -100 -41q-41 -41 -41 -109q0 -53 43 -86q41 -35 96 -35q25 0 49.5 14.5t32.5 24.5q4 -20 4 -37q0 -55 -37 -131q-49 -106 -190 -200l29 -43q127 67 208.5 180t81.5 237q0 105 -51 164q-49 62 -125 62z" />
    <glyph glyph-name="hyphen" unicode="-" horiz-adv-x="737" 
d="M88 932v-119h565v119h-565z" />
    <glyph glyph-name="hyphen" unicode="&#x2010;" horiz-adv-x="737" 
d="M88 932v-119h565v119h-565z" />
    <glyph glyph-name="period" unicode="." horiz-adv-x="485" 
d="M145 260q-53 0 -98 -41q-41 -41 -41 -98q0 -58 41 -98q45 -41 98 -41q58 0 99 41q41 38 41 98q0 59 -41 98q-41 41 -99 41z" />
    <glyph glyph-name="slash" unicode="/" horiz-adv-x="768" 
d="M14 0h127l582 1446h-127z" />
    <glyph glyph-name="zero" unicode="0" horiz-adv-x="1026" 
d="M962 705q0 317 -123 524q-123 203 -327 203q-205 0 -330 -205q-123 -203 -123 -522q0 -320 123 -525q123 -203 328 -203q204 0 329 205q123 203 123 523zM716 653q0 -288 -43 -450t-161 -162q-121 0 -164 162t-43 450v103q0 286 43 450q43 162 162 162q120 0 163 -162
q43 -164 43 -450v-103z" />
    <glyph glyph-name="one" unicode="1" horiz-adv-x="1069" 
d="M722 51v1385h-102q-23 -52 -61 -104t-89 -105q-102 -109 -262 -219l33 -45q59 41 127 96q33 24 64.5 54t60.5 63v-1127h-224v-49h676v51h-223z" />
    <glyph glyph-name="two" unicode="2" horiz-adv-x="1058" 
d="M20 0h795l156 387l-52 23q-43 -107 -96 -160t-262 -53h-293q59 63 109.5 111t91.5 83t94 82t123 109q94 82 172 192q76 117 76 252q0 182 -109 295q-108 111 -291 111q-200 0 -325 -123t-125 -320q0 -119 59 -221q58 -98 178 -178l33 53q-104 66 -158 154q-49 82 -49 196
q0 148 82 248q82 98 205 98q117 0 188 -90q70 -88 70 -237q0 -158 -76 -289q-39 -66 -80 -122t-84 -103q-55 -62 -109 -121.5t-110 -114.5q-110 -108 -225 -225z" />
    <glyph glyph-name="three" unicode="3" horiz-adv-x="1058" 
d="M162 1016l75 192h420l-491 -483l49 -41q61 68 133 123q68 51 154 55q112 2 153 -96t41 -274q0 -224 -51 -332q-49 -111 -186 -111q-121 0 -191 76q-35 37 -62.5 85t-50.5 107l-63 -22q49 -148 143 -232q95 -86 265 -86q202 0 321 138q121 137 121 360t-125 363
q-84 96 -227 96q-64 0 -150 -23l471 453v45h-659l-148 -369z" />
    <glyph glyph-name="four" unicode="4" horiz-adv-x="1062" 
d="M636 1448q-65 -133 -280 -438q-107 -154 -190 -273t-142 -209v-73h492v-455h215v455h174v-181h69v433h-69v-179h-174v920h-95zM516 1145v-617h-404z" />
    <glyph glyph-name="five" unicode="5" horiz-adv-x="1056" 
d="M604 1407h-322l-166 -778l62 -15q26 158 112 226q82 61 174 61q123 0 181 -106q55 -109 55 -301q0 -211 -60 -330q-59 -117 -186 -117t-215 105q-90 104 -111 245l-63 -18q33 -176 139 -291q105 -111 285 -111q190 0 324 146q129 143 129 354q0 234 -109 371
q-109 135 -303 135q-82 0 -162 -31q-78 -30 -139 -104l74 348h206q168 0 256 70q88 67 134 258l-50 22q-26 -76 -77 -108q-50 -31 -168 -31z" />
    <glyph glyph-name="six" unicode="6" horiz-adv-x="1058" 
d="M968 492q0 217 -94 344q-96 127 -262 127q-102 0 -184 -58q-52 -33 -101 -117q6 203 41 342q64 238 244 244q76 2 102 -41q25 -41 25 -139q6 -68 33 -100q24 -35 76 -35q32 0 59 33q27 30 27 79q0 60 -25 107t-70 82q-88 70 -233 70q-230 0 -369 -201
q-137 -195 -137 -578q0 -346 125 -510q127 -164 328 -164q184 0 301 146q114 145 114 369zM333 481q0 234 58 316q55 84 147 84q115 0 158 -107q43 -104 43 -305q0 -217 -39 -322q-39 -106 -149 -106q-103 0 -160.5 106.5t-57.5 333.5z" />
    <glyph glyph-name="seven" unicode="7" horiz-adv-x="1058" 
d="M1073 1409h-809l-160 -418l51 -20l88 231h606q-192 -295 -319 -567q-64 -139 -114 -297t-85 -338h258q4 193 33 367t80 333q102 318 371 709z" />
    <glyph glyph-name="eight" unicode="8" horiz-adv-x="1056" 
d="M395 715q129 -45 276 -140q143 -88 143 -256q0 -120 -79 -200q-78 -78 -197 -78q-133 0 -219 92t-86 234q0 159 47 237q43 76 115 111zM550 1368q101 0 166 -74q62 -71 62 -192q0 -109 -39 -168q-43 -62 -82 -90q-52 20 -108 47t-120 61q-125 64 -125 195q0 98 70 159.5
t176 61.5zM345 745q-116 -40 -194 -133q-78 -96 -78 -229q0 -180 129 -293q125 -113 328 -113q194 0 325 125t131 312q0 141 -75.5 247.5t-212.5 155.5q98 31 163 107q66 77 66 180q0 141 -106 235q-105 93 -265 93q-178 0 -301 -111q-121 -109 -121 -270q0 -90 45 -168
q48 -80 166 -138z" />
    <glyph glyph-name="nine" unicode="9" horiz-adv-x="1058" 
d="M83 918q0 -220 94 -344.5t268 -124.5q101 0 179 55q43 33 96 106q-10 -215 -43 -340q-59 -229 -229 -233q-78 -2 -105 41q-12 20 -17 52t-7 73q-5 78 -31 114q-29 35 -78 35q-41 0 -68 -30q-22 -29 -22 -89q0 -108 94 -180q90 -71 234 -71q235 0 370 204q133 207 133 576
q0 344 -123 508q-122 162 -325 162q-193 0 -305 -142q-115 -143 -115 -372zM716 934q0 -236 -59.5 -320t-145.5 -84q-121 0 -160 117q-39 111 -39 340q0 189 43 287q39 98 146 98q100 0 157.5 -106.5t57.5 -331.5z" />
    <glyph glyph-name="colon" unicode=":" horiz-adv-x="567" 
d="M225 922q-53 0 -98 -41q-41 -41 -41 -99q0 -57 41 -98q45 -41 98 -41q58 0 99 41q41 39 41 98q0 60 -41 99q-41 41 -99 41zM225 260q-53 0 -98 -41q-41 -41 -41 -98q0 -58 41 -98q45 -41 98 -41q58 0 99 41q41 38 41 98q0 59 -41 98q-41 41 -99 41z" />
    <glyph glyph-name="semicolon" unicode=";" horiz-adv-x="567" 
d="M204 922q-53 0 -98 -41q-41 -41 -41 -99q0 -57 41 -98q45 -41 98 -41q58 0 99 41q41 39 41 98q0 60 -41 99q-41 41 -99 41zM296 244q-55 0 -100 -41q-41 -41 -41 -109q0 -53 43 -86q41 -35 96 -35q25 0 49.5 14.5t32.5 24.5q4 -20 4 -37q0 -55 -36 -131
q-50 -106 -191 -200l29 -43q127 67 209 180t82 237q0 105 -52 164q-49 62 -125 62z" />
    <glyph glyph-name="less" unicode="&#x3c;" horiz-adv-x="1308" 
d="M139 723l1174 598v131l-1313 -655v-148l1313 -655v131z" />
    <glyph glyph-name="equal" unicode="=" horiz-adv-x="1298" 
d="M-4 842h1317v123h-1317v-123zM-4 481h1317v123h-1317v-123z" />
    <glyph glyph-name="greater" unicode="&#x3e;" horiz-adv-x="1308" 
d="M-2 125v-131l1313 655v148l-1313 655v-131l1174 -598z" />
    <glyph glyph-name="question" unicode="?" horiz-adv-x="841" 
d="M450 1462q-143 0 -225 -82q-82 -80 -82 -170q0 -73 35 -112q35 -35 86 -35q45 0 76 35q30 32 30 73q0 35 -20 76q-19 39 -19 68q0 41 27 65.5t66 24.5q90 0 120 -90q13 -45 20 -107.5t7 -144.5q0 -133 -20 -209q-19 -76 -97 -117q-67 -32 -106 -71q-35 -39 -35 -131v-160
h66v135q0 68 24 98q12 17 52 37.5t106 48.5q49 23 89 56.5t73 78.5q63 89 63 232q0 156 -84 280q-84 121 -252 121zM358 260q-57 0 -98 -41t-41 -98q0 -58 41 -98.5t98 -40.5t98 40.5t41 98.5q0 57 -41 98t-98 41z" />
    <glyph glyph-name="at" unicode="@" horiz-adv-x="1753" 
d="M917 1468q-325 0 -549 -260q-225 -260 -225 -594q0 -348 221 -608q43 -51 116 -94t148.5 -72.5t147.5 -51t112.5 -32t45.5 -10.5l26 80l-56 13.5t-135 41t-160 68.5t-130 96q-195 219 -195 557q0 330 189 559q186 228 448 228q264 0 443 -181q178 -182 178 -420
q0 -227 -105 -393q-102 -164 -196 -164q-27 0 -51 27q-19 18 -19 64l137 702h-123l-28 -135q-25 92 -86 135q-64 41 -119 41q-176 0 -295 -191q-121 -188 -121 -376q0 -170 74 -262q72 -91 166 -91q90 0 160 64q73 67 106 129q21 -113 68 -156q47 -41 92 -41
q149 0 284.5 190.5t135.5 450.5q0 277 -199 481.5t-506 204.5zM985 985q53 0 94 -53t41 -117q0 -176 -84 -381q-84 -203 -209 -203q-53 0 -100 54q-45 51 -45 155q0 183 90 367q86 178 213 178z" />
    <glyph glyph-name="A" unicode="A" horiz-adv-x="1368" 
d="M743 561h-299l156 516zM1321 49h-185l-434 1413h-41l-438 -1413h-172v-49h457v49h-215l135 455h328l122 -455h-213v-49h656v49z" />
    <glyph glyph-name="B" unicode="B" horiz-adv-x="1316" 
d="M465 750h194q152 0 219.5 -86t67.5 -265q0 -176 -65.5 -260t-215.5 -84h-200v695zM831 0q170 0 266 102q95 101 95 285q0 188 -103 285q-102 94 -313 116q74 15 129 41.5t96 65.5q76 80 76 213q0 186 -96 264q-97 74 -318 74h-608v-49h188v-1348h-188v-49h776zM465 811
v575h170q120 0 161 -79q39 -76 39 -254q0 -138 -51 -189q-53 -53 -182 -53h-137z" />
    <glyph glyph-name="C" unicode="C" horiz-adv-x="1372" 
d="M378 731q0 340 92 510q92 166 326 166q139 0 250 -104q110 -103 119 -330h61v381q-39 20 -88 38.5t-109 37.5q-116 36 -249 36q-314 0 -488 -202q-176 -201 -176 -549q0 -340 168 -539t463 -199q139 0 256 39t223 99v405h-61q-9 -231 -121 -358q-111 -125 -264 -125
q-228 0 -316 172q-86 172 -86 522z" />
    <glyph glyph-name="D" unicode="D" horiz-adv-x="1556" 
d="M1181 719q0 -309 -96 -485.5t-291 -176.5h-321v1332h309q211 0 305 -175q94 -170 94 -495zM245 1397v-1348h-190v-49h776q330 0 469 209q137 205 137 516q0 324 -141 524q-141 197 -491 197h-750v-49h190z" />
    <glyph glyph-name="E" unicode="E" horiz-adv-x="1357" 
d="M1227 0l16 496h-57q-25 -230 -129 -336q-101 -107 -293 -107h-293v660h65q152 0 203 -51q49 -54 49 -195v-80h56v688h-56v-71q0 -82 -39 -158q-37 -78 -223 -78h-55v616h260q209 0 293 -102q80 -100 98 -287h53l-14 451h-1108v-49h190v-1348h-190v-49h1174z" />
    <glyph glyph-name="F" unicode="F" horiz-adv-x="1185" 
d="M471 49v670h61q152 0 205 -53q51 -56 51 -197v-80h55v692h-55v-71q0 -80 -41 -158q-37 -78 -225 -78h-51v610h254q209 0 293 -98q79 -98 98 -276h53l-14 436h-1100v-49h188v-1348h-188v-49h606v49h-190z" />
    <glyph glyph-name="G" unicode="G" horiz-adv-x="1501" 
d="M386 662v61q0 336 86 512q82 172 295 172q152 0 258 -113q111 -112 150 -348h51v410q-53 22 -106.5 41.5t-106.5 36.5q-98 32 -242 32q-299 0 -475 -206q-174 -205 -174 -549q0 -328 172 -531q168 -203 453 -203q188 0 331 54q138 51 201 90v522h164v47h-600v-47h213
v-371q0 -120 -78 -176q-84 -59 -203 -59q-215 0 -303 156q-86 155 -86 469z" />
    <glyph glyph-name="H" unicode="H" horiz-adv-x="1513" 
d="M243 1397v-1348h-188v-49h606v49h-190v670h577v-670h-186v-49h604v49h-190v1348h190v49h-604v-49h186v-631h-577v631h190v49h-606v-49h188z" />
    <glyph glyph-name="I" unicode="I" horiz-adv-x="704" 
d="M483 49v1348h188v49h-606v-49h188v-1348h-188v-49h606v49h-188z" />
    <glyph glyph-name="J" unicode="J" horiz-adv-x="901" 
d="M434 1397v-1104q0 -158 -29 -209q-28 -47 -106 -47q-41 0 -72 12q-29 12 -29 41q0 14 39 51q41 39 39 95q-6 104 -100 104h-14q-105 0 -111 -131q2 -103 82 -168q76 -64 205 -64q157 0 241 78q82 76 82 252v1090h176v49h-593v-49h190z" />
    <glyph glyph-name="K" unicode="K" horiz-adv-x="1433" 
d="M1405 49h-199q-60 111 -116 224.5t-113.5 232.5t-112.5 234.5t-113 232.5q29 53 55.5 104t55.5 105q24 51 54 104t65 111h178v49h-436v-49h178l-293 -574h-133v574h188v49h-604v-49h188v-1348h-188v-49h604v49h-188v717h127q41 -92 84 -180t88 -180q86 -183 159 -357
h-167v-49h639v49z" />
    <glyph glyph-name="L" unicode="L" horiz-adv-x="1314" 
d="M471 1397h188v49h-604v-49h188v-1348h-188v-49h1184v530h-58q-28 -231 -114 -350q-90 -121 -287 -121h-309v1338z" />
    <glyph glyph-name="M" unicode="M" horiz-adv-x="1835" 
d="M1325 1446l-406 -1120l-397 1120h-461v-49h190v-1348h-190v-49h475v49h-225v1305l504 -1381h26l514 1381v-1305h-223v-49h641v49h-188v1348h188v49h-448z" />
    <glyph glyph-name="N" unicode="N" horiz-adv-x="1468" 
d="M1165 414q-164 266 -326 516q-79 125 -160 253t-163 263h-463v-49h190v-1348h-190v-49h473v49h-221v1305l889 -1383l33 11v1415h180v49h-457v-49h215v-983z" />
    <glyph glyph-name="O" unicode="O" 
d="M1111 743v-45q0 -340 -75 -499q-74 -162 -289 -162t-291 162q-76 159 -76 499v45q0 342 76 502q76 162 291 162t291 -162q73 -164 73 -502zM1376 721q0 334 -170 541q-168 204 -457 204t-461 -204q-172 -209 -172 -541t170 -539q168 -205 459 -205q289 0 461 205
q170 207 170 539z" />
    <glyph glyph-name="P" unicode="P" horiz-adv-x="1142" 
d="M469 719v667h170q119 0 172 -86q51 -81 51 -253q0 -181 -49 -254.5t-195 -73.5h-149zM469 662h227q205 0 305 96q97 92 97 297q0 200 -109 297q-107 94 -330 94h-608v-49h190v-1348h-190v-49h606v49h-188v613z" />
    <glyph glyph-name="Q" unicode="Q" 
d="M1111 743v-45q0 -340 -75 -499q-74 -162 -289 -162t-291 162q-76 159 -76 499v45q0 342 76 502q76 162 291 162t291 -162q73 -164 73 -502zM1335 -229q6 57 -27 102q-37 49 -102 57q-52 7 -93 -28q-41 -39 -47 -92q-2 -23 8 -52q9 -20 19 -34q-16 -5 -37 0q-53 8 -125 55
q-92 63 -162 198q271 11 437 205q170 207 170 539q0 334 -170 541q-168 204 -457 204t-461 -204q-172 -209 -172 -541t170 -539q162 -194 436 -205l-10 -4q49 -133 149 -231q103 -100 226 -115q98 -14 168 27q67 39 80 117z" />
    <glyph glyph-name="R" unicode="R" horiz-adv-x="1357" 
d="M473 733h106q189 0 244 -69q51 -70 63 -338q9 -228 99 -279q88 -47 184 -47h150v49q-113 0 -156 47q-45 47 -53 264q-6 181 -62 283q-57 105 -338 125q197 39 265 123q63 86 63 207q0 190 -80 270q-82 78 -276 78h-625v-49h188v-1348h-188v-49h604v49h-188v684zM473 795
v589h84q143 0 194 -69q49 -68 49 -236q0 -145 -51 -215q-49 -69 -164 -69h-112z" />
    <glyph glyph-name="S" unicode="S" horiz-adv-x="1060" 
d="M995 428q0 182 -114 285q-111 100 -271 161q-57 23 -114.5 49.5t-114.5 57.5q-113 61 -113 193q0 104 72 163q70 62 184 62q131 0 213 -88q84 -90 105 -248h63l-8 321q-37 17 -78 30t-86 28q-90 24 -194 24q-187 0 -306 -112q-120 -115 -120 -287q0 -160 96 -250
q94 -90 252 -153q57 -23 119.5 -54.5t132.5 -70.5q135 -78 135 -213q0 -121 -84 -199q-82 -76 -217 -76q-164 0 -271 117q-108 117 -129 309h-61l16 -407q88 -45 195 -70q108 -23 227 -23q197 0 334 131.5t137 319.5z" />
    <glyph glyph-name="T" unicode="T" horiz-adv-x="1366" 
d="M794 49v1337h99q176 0 253 -110q76 -115 95 -293h59v463h-1241v-463h59q13 178 93 293q79 110 256 110h100v-1337h-221v-49h669v49h-221z" />
    <glyph glyph-name="U" unicode="U" horiz-adv-x="1515" 
d="M1210 395q0 -198 -88 -274q-90 -78 -299 -78q-205 0 -285 82q-77 84 -77 291v981h204v49h-610v-49h178v-981q0 -260 121 -350q119 -89 428 -89q272 0 383 99q109 98 109 352v969h182v49h-453v-49h207v-1002z" />
    <glyph glyph-name="V" unicode="V" horiz-adv-x="1251" 
d="M825 1397h207l-317 -1057l-305 1057h206v49h-618v-49h168l446 -1422h39q58 179 113 355t113 356q55 180 112.5 356.5t116.5 354.5h149v49h-430v-49z" />
    <glyph glyph-name="W" unicode="W" horiz-adv-x="1994" 
d="M1755 1397l-313 -1024l-240 1024h205v49h-649v-49h196l-270 -1022l-276 1022h210v49h-618v-49h160l415 -1422h48l366 1313l334 -1313h45l459 1422h164v49h-430v-49h194z" />
    <glyph glyph-name="X" unicode="X" horiz-adv-x="1390" 
d="M814 1397h178l-272 -484l-223 484h213v49h-662v-49h176l361 -707l-381 -641h-166v-49h467v49h-213l326 574l280 -574h-203v-49h656v49h-178l-416 799l315 549h172v49h-430v-49z" />
    <glyph glyph-name="Y" unicode="Y" horiz-adv-x="1220" 
d="M780 1397h209l-268 -588l-289 588h213v49h-647v-49h160l358 -670v-678h-190v-49h608v49h-191v682l314 666h164v49h-441v-49z" />
    <glyph glyph-name="Z" unicode="Z" horiz-adv-x="1361" 
d="M699 51h-315l819 1395h-1007v-440h55q2 186 86 284q84 96 233 96h332l-821 -1386h1159v522h-59q-8 -235 -119 -354q-109 -117 -363 -117z" />
    <glyph glyph-name="bracketleft" unicode="[" horiz-adv-x="649" 
d="M419 1415l-2 -8q-2 0 -4 8h6zM419 1415h207v60h-389v-2007h389v59h-207v1888z" />
    <glyph glyph-name="backslash" unicode="\" horiz-adv-x="768" 
d="M602 0h127l-584 1446h-127z" />
    <glyph glyph-name="bracketright" unicode="]" horiz-adv-x="657" 
d="M239 1415l6 -1888h-211v-59h387v2007h-387v-60h205z" />
    <glyph glyph-name="asciicircum" unicode="^" horiz-adv-x="1433" 
d="M477 717l239 561l242 -561h160l-338 729h-127l-336 -729h160z" />
    <glyph glyph-name="underscore" unicode="_" horiz-adv-x="983" 
d="M994 -586v103h-1014v-103h1014z" />
    <glyph glyph-name="grave" unicode="`" horiz-adv-x="524" 
d="M432 1075q-103 316 -117 340q-16 31 -51 31h-92q-74 0 -74 -51v-9q10 -53 281 -311h53z" />
    <glyph glyph-name="a" unicode="a" horiz-adv-x="1054" 
d="M651 528q0 -186 -61 -333q-60 -146 -160 -146q-70 0 -94 92q-23 97 -23 234q0 174 33 260q16 45 45 62.5t68 39.5q32 21 79.5 34t78 18.5t34.5 5.5v-267zM639 141q16 -71 59 -106q47 -35 156 -35h162v49h-45q-74 0 -96.5 35t-22.5 121v821q0 221 -84 334
q-80 108 -270 108q-158 0 -246 -65q-86 -68 -84 -180q4 -78 92 -78h12q47 0 69.5 24.5t22.5 67.5v14q0 90 35 129q33 37 113 37q78 0 108 -76q31 -77 31 -231v-236q-100 -38 -196 -59q-50 -10 -94 -20.5t-85 -20.5q-90 -22 -139 -123q-49 -102 -49 -266q0 -190 57 -297
q56 -108 191 -108q92 0 170 36q76 37 133 125z" />
    <glyph glyph-name="b" unicode="b" horiz-adv-x="1124" 
d="M419 1303v395l-358 -6v-50h154v-1425l-2 -217h206l-4 141q37 -86 109 -127q76 -41 145 -41q172 0 271 209q96 211 96 543q0 340 -86 543q-86 200 -260 200q-82 0 -158 -41q-72 -41 -113 -124zM413 770q0 317 56 477q59 158 151 158q109 0 152 -178q41 -183 41 -488v-20
q0 -156 -11.5 -280t-33.5 -216q-48 -184 -154 -184q-98 0 -150 162q-51 155 -51 436v133z" />
    <glyph glyph-name="c" unicode="c" horiz-adv-x="962" 
d="M905 514q-15 -88 -41.5 -169t-65.5 -155q-78 -147 -198 -147q-138 0 -201 186q-31 93 -47.5 215.5t-16.5 278.5q0 311 54 506q53 188 174 188q82 0 125 -63q32 -45 32 -123q0 -12 -1 -25.5t-3 -27.5q6 -109 95 -109h12q102 10 98 109q-2 69 -32.5 122.5t-88.5 92.5
q-112 75 -247 75q-191 0 -320 -219t-129 -534q0 -312 123 -522.5t311 -210.5q160 0 260 131q101 129 154 385z" />
    <glyph glyph-name="d" unicode="d" horiz-adv-x="1128" 
d="M720 160v-160h369v49h-164v1649l-407 -6v-50h202v-358q-53 123 -110 154q-55 30 -142 30q-172 0 -268 -219q-94 -215 -94 -528q0 -320 98 -528q95 -209 260 -209q74 0 148 43q72 41 108 133zM720 676q0 -273 -47 -449q-47 -172 -145 -172q-117 0 -156 185
q-18 92 -28.5 217t-10.5 284q0 303 41 486q21 90 42.5 139t76.5 49q53 0 106.5 -49t75.5 -137q45 -172 45 -518v-35z" />
    <glyph glyph-name="e" unicode="e" horiz-adv-x="1003" 
d="M950 512l-53 18q-17 -86 -43.5 -166.5t-65.5 -162.5q-78 -160 -197 -160q-141 0 -198 186q-60 189 -60 508v49h615l4 33q0 279 -112.5 465t-288.5 186q-201 0 -326 -211q-123 -213 -123 -536q0 -330 115 -537q112 -204 315 -204q156 0 254 126q96 127 164 406zM333 842
q7 254 45 399q48 170 148 170q92 0 139 -145q45 -142 45 -389v-35h-377z" />
    <glyph glyph-name="f" unicode="f" horiz-adv-x="595" 
d="M393 51v1444q0 88 24 125q2 2 3 4t4 4h149l2 -4q25 -25 25 -106v-11q0 -80 88 -80q96 0 96 84t-74 140q-76 53 -223 53q-152 0 -223 -70q-76 -71 -76 -225v-440h-156v-58h156v-862h-170v-49h545v51h-170zM536 969h-156v-58h156v58z" />
    <glyph glyph-name="g" unicode="g" horiz-adv-x="1058" 
d="M547 1417q73 0 102 -104.5t29 -278.5q0 -180 -33 -278q-31 -101 -107 -101q-80 0 -106 107q-29 110 -29 295q0 170 31 266q31 94 113 94zM524 113q64 -7 131 -7q150 0 219 -40q68 -41 68 -132q0 -30 -7.5 -69t-21.5 -77t-36.5 -69.5t-51.5 -46.5q-117 -55 -264 -55
q-176 0 -254 59q-18 15 -32.5 44.5t-24 65.5t-14.5 69.5t-5 58.5q0 94 57.5 139t235.5 60zM215 1038q0 -176 74 -293q-23 -14 -56 -50t-63.5 -78t-52 -83.5t-21.5 -68.5q0 -266 182 -313q45 -11 91 -20t94 -13l-117 8q-121 -21 -184 -76q-62 -53 -62 -127q0 -33 7 -75
t22.5 -82.5t37 -75.5t52.5 -53q119 -74 332 -74q211 0 336 88q30 22 52.5 63t38 90.5t23.5 102.5t8 100q0 174 -118 250q-90 55 -234 55q-49 0 -100 -6l-103 -2q-108 -2 -182 17q-96 24 -96 155q0 17 17.5 48.5t42 66.5t49 65.5t38.5 42.5q90 -96 226 -96q139 0 227 125
t88 315q0 201 -92 310q-90 108 -254 108q-131 0 -217 -119q-86 -116 -86 -305zM815 1313q6 22 26 43q23 22 41 22q31 0 31 -67q4 -66 64 -66q30 0 48.5 18.5t18.5 57.5q0 65 -37 96t-82 31q-32 0 -71 -16.5t-72 -79.5z" />
    <glyph glyph-name="h" unicode="h" horiz-adv-x="1218" 
d="M1018 51v905q0 119 -17.5 212.5t-50.5 162.5q-63 137 -200 137q-101 0 -195 -53q-90 -51 -137 -174l2 457l-375 -6v-50h172v-1593h-172v-49h541v51h-168v674q0 362 82 514q82 154 190 154q72 0 96 -113q11 -55 17 -132t6 -177v-922h-160v-49h526v51h-157z" />
    <glyph glyph-name="i" unicode="i" horiz-adv-x="641" 
d="M199 1763q0 -47 36 -84q35 -34 84 -34t86 36q35 35 35 84q0 47 -37 84q-35 35 -84 35t-86 -37q-34 -35 -34 -84zM430 51v1395l-381 -6v-49h176v-1342h-176v-49h545v51h-164z" />
    <glyph glyph-name="j" unicode="j" horiz-adv-x="622" 
d="M190 1763q0 -47 37 -84q35 -34 84 -34t86 36q35 35 35 84q0 47 -37 84q-35 35 -84 35t-86 -37q-35 -35 -35 -84zM217 1391v-1414q0 -122 -37 -204t-176 -154h10l19 -45l-13 -4h15l-2 4q186 76 284 158q105 86 105 293v1421l-383 -6v-49h178z" />
    <glyph glyph-name="k" unicode="k" horiz-adv-x="1142" 
d="M971 1389v51h-435v-51h193l-193 -621h-120v930l-367 -6v-50h162v-1593h-162v-49h526v51h-159v664h84q34 -86 71 -168t72 -164t69.5 -164t67.5 -168h-158v-51h508v51h-90l-407 807l172 531h166z" />
    <glyph glyph-name="l" unicode="l" horiz-adv-x="641" 
d="M49 1642h178v-1593h-178v-49h545v51h-162v1647l-383 -6v-50z" />
    <glyph glyph-name="m" unicode="m" horiz-adv-x="1818" 
d="M1603 51v905q0 119 -16.5 212.5t-45.5 162.5q-57 137 -190 137q-125 0 -211 -67q-84 -64 -125 -170q-14 117 -84 180q-68 57 -180 57q-103 0 -185 -43q-82 -45 -139 -155v176l-387 -6v-49h178v-1342h-176v-49h541v51h-160v725q0 326 80 471q78 146 160 146h16
q68 0 98.5 -108.5t30.5 -287.5v-948h-160v-49h531v51h-166v701q0 331 88 487q86 154 170 154h16q62 0 86.5 -108.5t24.5 -287.5v-948h-164v-49h535v51h-166z" />
    <glyph glyph-name="n" unicode="n" horiz-adv-x="1218" 
d="M1006 51v905q0 119 -16.5 212.5t-45.5 162.5q-57 137 -186 137q-105 0 -187 -43q-84 -43 -141 -155l2 176l-385 -6v-49h178v-1342h-182v-49h549v51h-170v674q0 362 82 514q80 154 186 154q68 0 92 -113q11 -55 16 -132t5 -177v-922h-162v-49h528v51h-163z" />
    <glyph glyph-name="o" unicode="o" horiz-adv-x="1087" 
d="M983 725q0 322 -119 532.5t-316 210.5q-194 0 -319 -211q-125 -215 -125 -532q0 -322 119 -532.5t313 -210.5q195 0 320 211q127 213 127 532zM749 690q0 -309 -43 -483t-164 -174t-164 174q-20 88 -30.5 208t-10.5 275v70q0 307 43 483q39 174 162 174q121 0 164 -174
q43 -176 43 -483v-70z" />
    <glyph glyph-name="p" unicode="p" horiz-adv-x="1124" 
d="M407 119q27 -70 94 -105q64 -32 144 -32q178 0 280 202q99 203 99 529q0 348 -95 551q-92 204 -274 204q-86 0 -146 -38q-61 -39 -106 -142l4 158l-379 -6v-49h174v-1788h-182v-49h563v49h-176v516zM403 633v88q0 332 47 510q43 172 160 172q104 0 145 -178
q37 -176 37 -484v-20q0 -309 -41 -496q-37 -182 -147 -182q-109 0 -154 160q-47 164 -47 430z" />
    <glyph glyph-name="q" unicode="q" horiz-adv-x="1044" 
d="M727 164v-561h-181v-49h559v49h-174v1745l-2 8v74h-215l13 -205q-41 147 -107 194q-65 49 -143 49q-183 0 -277 -202q-94 -201 -94 -541q0 -342 84 -545q82 -198 262 -198q80 0 152 38q71 37 123 144zM731 711q0 -295 -55.5 -481.5t-163.5 -186.5q-113 0 -148 182
q-16 92 -24.5 217t-8.5 291q0 305 41 492q39 180 144 180q104 0 159 -174q56 -176 56 -469v-51z" />
    <glyph glyph-name="r" unicode="r" horiz-adv-x="845" 
d="M415 51v697q0 262 63 454q62 195 131 195q13 0 23 -13q6 -8 10 -41l-10 -112q14 -98 100 -98h13q47 0 70.5 35.5t23.5 99.5q0 90 -43 145t-129 55q-80 0 -144 -61q-63 -57 -110 -195l2 234l-377 -6v-49h172v-1342h-172v-49h547v51h-170z" />
    <glyph glyph-name="s" unicode="s" horiz-adv-x="901" 
d="M806 403q0 185 -82 285q-41 51 -100 93t-137 81q-60 29 -98.5 62.5t-61.5 68.5q-41 70 -41 164q0 103 43 180q43 76 117 76q102 0 153.5 -75.5t69.5 -194.5h59l-4 262q-22 8 -51 18.5t-67 22.5q-80 22 -162 22q-129 0 -217 -110q-86 -111 -86 -295q0 -193 88 -281
q86 -88 176 -135q123 -63 182 -137q59 -76 59 -211q0 -119 -63 -190q-61 -74 -147 -74q-105 0 -183 78q-76 77 -84 258h-55v-326q35 -12 73 -23.5t81 -21.5q82 -20 174 -20q161 0 262 118q102 121 102 305z" />
    <glyph glyph-name="t" unicode="t" horiz-adv-x="604" 
d="M378 244v1138h199v58h-199v270l-199 -61l-2 -209h-141v-58h137v-1146q0 -138 51 -189q54 -53 185 -53q127 0 182 49t82 117l-43 20q-14 -41 -53 -80q-35 -37 -97 -37q-59 0 -79 43q-23 41 -23 138z" />
    <glyph glyph-name="u" unicode="u" horiz-adv-x="1218" 
d="M1001 1448l-390 -8v-49h183l4 -320v-485q0 -234 -72 -389q-72 -152 -182 -152q-90 0 -119 127q-12 64 -19.5 154t-7.5 206v723l2 193l-360 -8v-49h156l4 -320v-600q0 -227 67 -358q66 -133 199 -133q106 0 190 51q86 53 138 145l4 -184l377 8v51h-174v1397z" />
    <glyph glyph-name="v" unicode="v" horiz-adv-x="1089" 
d="M903 1389h150v51h-408v-51h191l-230 -1121l-225 1121h186v51h-569v-51h150l356 -1407h43q45 178 89 352t87 352q41 178 87 352t93 351z" />
    <glyph glyph-name="w" unicode="w" horiz-adv-x="1665" 
d="M1012 1389h164v51l-572 2v-51l180 -9l-221 -993q-24 137 -48 259t-45.5 240t-43 239.5t-41.5 261.5h160v51h-543v-51h152l340 -1401h49l299 1321l264 -1321h51l318 1401h153v51h-399v-51h178l-229 -1000z" />
    <glyph glyph-name="x" unicode="x" horiz-adv-x="1095" 
d="M897 1389h139v51h-368v-51h151l-217 -551l-166 551h187v51h-580v-51h152l278 -699l-295 -639h-135v-51h406v51h-193l240 586l188 -586h-184v-51h563v51h-137l-295 733z" />
    <glyph glyph-name="y" unicode="y" horiz-adv-x="1056" 
d="M627 1389h166l-172 -867l-242 867h172v51h-551v-51h147q54 -166 102 -329t95 -325t94 -321.5t97 -321.5l-60 -289q-39 -100 -78 -143q-37 -39 -71 -39q-35 0 -54 25q-16 26 -16 71q0 56 -20 82q-17 25 -66 29q-45 -2 -69.5 -30.5t-24.5 -80.5q0 -73 53 -120
q51 -43 127 -43q115 0 180 77q62 74 96 185l326 1573h158v51h-389v-51z" />
    <glyph glyph-name="z" unicode="z" horiz-adv-x="983" 
d="M122 1440v-338l53 4q2 158 76 221q70 62 244 62h125l-584 -1389h842v381h-60q0 -176 -71 -254q-70 -76 -219 -76h-226l594 1389h-774z" />
    <glyph glyph-name="braceleft" unicode="{" horiz-adv-x="696" 
d="M124 453q70 -21 100 -84q29 -62 29 -185v-377q0 -161 70 -249q67 -90 295 -90l6 26q-78 12 -135 70q-56 55 -56 198v390q0 157 -36.5 229t-118.5 90q82 18 118 90q37 70 37 230v389q0 143 58 200q55 56 127 68v27q-226 0 -297 -91q-68 -90 -68 -249v-377q0 -125 -31 -187
q-28 -61 -98 -82v-36z" />
    <glyph glyph-name="bar" unicode="|" horiz-adv-x="468" 
d="M174 -512h123v2048h-123v-2048z" />
    <glyph glyph-name="braceright" unicode="}" horiz-adv-x="696" 
d="M579 489q-72 23 -100.5 84.5t-28.5 184.5v377q0 161 -70 249q-68 91 -295 91l-6 -27q78 -12 135 -70q55 -55 55 -198v-389q0 -160 37 -230q37 -72 119 -90q-82 -18 -119 -90t-37 -229v-390q0 -143 -57 -200q-59 -56 -127 -68l-2 -26q227 0 299 90q68 88 68 249v377
q0 123 28 187q29 59 101 82v36z" />
    <glyph glyph-name="asciitilde" unicode="~" horiz-adv-x="1435" 
d="M516 602q78 0 205 -72q124 -71 204 -71q86 0 146 49q57 47 98 115l-68 110q-20 -26 -38.5 -48.5t-38.5 -43.5q-41 -41 -99 -41q-80 0 -204.5 71.5t-204.5 71.5q-88 0 -146 -49q-57 -47 -98 -114l66 -111q38 51 79 92q37 41 99 41z" />
    <glyph glyph-name="dieresis" unicode="&#xa8;" horiz-adv-x="1024" 
 />
    <glyph glyph-name="copyright" unicode="&#xa9;" horiz-adv-x="1628" 
d="M817 1374q-285 0 -487 -203q-201 -200 -201 -485t203 -487q200 -201 485 -201t488 203q200 200 200 485t-202 488q-201 200 -486 200zM817 1315q258 0 447 -185q184 -184 184 -446q0 -260 -186 -444q-185 -185 -445 -185t-446 185q-185 184 -185 446q0 260 187 444
q184 185 444 185zM1151 848l-25 268q-92 0 -192 6q-103 6 -133 6q-209 0 -310 -110q-100 -107 -100 -316q0 -231 105 -350q100 -119 295 -119q43 0 97 3.5t119.5 7.5t103.5 7t50 3l-2 258h-45q-12 -115 -67 -178q-52 -64 -173 -64q-159 0 -221 123q-61 119 -61 336
q0 166 65.5 262t212.5 96q103 0 158 -61q53 -59 78 -178h45z" />
    <glyph glyph-name="registered" unicode="&#xae;" horiz-adv-x="1628" 
d="M819 1374q-285 0 -487 -203q-201 -200 -201 -485t203 -487q200 -201 485 -201t488 203q200 200 200 485t-202 488q-201 200 -486 200zM819 1315q258 0 447 -185q184 -184 184 -446q0 -260 -186 -444q-185 -185 -445 -185t-446 185q-185 184 -185 446q0 260 187 444
q184 185 444 185zM717 772v277h129q73 0 118.5 -33t45.5 -107q0 -57 -50 -96q-51 -41 -163 -41h-80zM817 254v65q-51 3 -78 17q-22 10 -22 41v309h78q108 0 143 -203q37 -215 125 -229h145v63l-30 -2q-54 2 -86 191q-31 184 -136 209q99 6 154 67.5t55 130.5q0 88 -69 150
q-70 59 -226 59h-391v-65q45 -2 70 -17q20 -8 20 -41v-622q0 -31 -20 -43q-10 -4 -27.5 -8t-42.5 -7v-65h338z" />
    <glyph glyph-name="acute" unicode="&#xb4;" horiz-adv-x="524" 
d="M102 1075h53q271 258 281 311l2 13q0 41 -70 47h-92q-41 0 -57 -31q-15 -24 -117 -340z" />
    <glyph glyph-name="paragraph" unicode="&#xb6;" horiz-adv-x="1024" 
d="M929 1435v-70h-127v-1365h-82v1365h-166v-1365h-84v738q-174 8 -275.5 102.5t-101.5 245.5q0 157 107.5 253t285.5 96h443z" />
    <glyph glyph-name="onequarter" unicode="&#xbc;" horiz-adv-x="1619" 
d="M436 537v886h-68q-30 -65 -100 -135q-35 -35 -79 -69.5t-97 -69.5l23 -29q38 27 86 62q22 16 41.5 34.5t39.5 38.5v-720h-149v-31h455v33h-152zM440 0h82l680 1446h-82zM1372 926q-23 -41 -70 -111t-118.5 -168t-127 -175t-96.5 -134v-47h330v-291h145v291h115v-115h47
v277h-47v-115h-115v588h-63zM1290 733v-395h-270z" />
    <glyph glyph-name="onehalf" unicode="&#xbd;" horiz-adv-x="1619" 
d="M434 537v886h-68q-30 -65 -100 -135q-35 -35 -79 -69.5t-97 -69.5l23 -29q38 27 86 62q22 16 41.5 34.5t39.5 38.5v-720h-149v-31h455v33h-152zM440 0h82l680 1446h-82zM964 0h533l104 248l-34 14q-27 -65 -64 -102q-35 -35 -176 -35h-197q41 41 75 71.5t60.5 53
t62.5 52.5t83 71q63 55 115 123q51 69 51 161q0 115 -74 189q-74 69 -192 69q-131 0 -220 -77q-83 -78 -83 -205q0 -76 40 -141q19 -33 48.5 -61t70.5 -54l23 35q-74 45 -107 98q-32 51 -32 125q0 94 55 160q55 63 137 63q80 0 127 -59q45 -62 45 -152q0 -100 -51 -184
q-25 -41 -52.5 -77t-56.5 -67q-39 -40 -74.5 -78t-72.5 -73l-152 -143z" />
    <glyph glyph-name="threequarters" unicode="&#xbe;" horiz-adv-x="1619" 
d="M81 1153l49 125h283l-330 -309l33 -27q22 23 45 42.5t45 35.5q47 35 102 35q74 0 103 -62q26 -55 26 -174q0 -147 -32 -215q-33 -69 -125 -69q-82 0 -127 49q-49 49 -76 123l-43 -15q35 -94 96 -147q64 -56 176 -56q136 0 217 89q80 86 80 229t-84 233q-59 62 -153 62
q-49 0 -99 -15l316 289v29h-443l-98 -236zM462 0h82l680 1446h-82zM1371 926q-22 -41 -69 -111t-119 -168t-127 -175t-96 -134v-47h329v-291h146v291h115v-115h47v277h-47v-115h-115v588h-64zM1289 733v-395h-270z" />
    <glyph glyph-name="Agrave" unicode="&#xc0;" horiz-adv-x="1368" 
d="M743 561h-299l156 516zM1321 49h-185l-434 1413h-41l-438 -1413h-172v-49h457v49h-215l135 455h328l122 -455h-213v-49h656v49zM784 1552q-102 316 -117 340q-16 31 -51 31h-92q-74 0 -74 -51v-8q11 -54 281 -312h53z" />
    <glyph glyph-name="Aacute" unicode="&#xc1;" horiz-adv-x="1368" 
d="M743 561h-299l156 516zM1321 49h-185l-434 1413h-41l-438 -1413h-172v-49h457v49h-215l135 455h328l122 -455h-213v-49h656v49zM588 1552h53q270 258 280 312l2 12q0 41 -69 47h-92q-41 0 -58 -31q-14 -24 -116 -340z" />
    <glyph glyph-name="uni1EA2" unicode="&#x1ea2;" horiz-adv-x="1368" 
d="M743 561h-299l156 516zM1321 49h-185l-434 1413h-41l-438 -1413h-172v-49h457v49h-215l135 455h328l122 -455h-213v-49h656v49zM705 1521v31q0 33 11 48q6 7 24 16t50 23q25 12 45.5 29t37.5 40q31 43 31 113q0 76 -41 137q-44 63 -133 63q-76 0 -119 -43
q-41 -40 -41 -84q0 -36 17 -56q21 -20 52 -20q28 0 46 21q16 16 16 36q0 17 -10 37q-9 19 -9 33q0 20 10.5 30t24.5 10q35 0 49 -40q6 -22 9.5 -52.5t3.5 -70.5q0 -65 -10 -102q-9 -36 -44 -55q-34 -16 -55 -36q-17 -20 -17 -65v-43h52z" />
    <glyph glyph-name="Atilde" unicode="&#xc3;" horiz-adv-x="1368" 
d="M743 561h-299l156 516zM1321 49h-185l-434 1413h-41l-438 -1413h-172v-49h457v49h-215l135 455h328l122 -455h-213v-49h656v49zM993 1837l-51 25q-17 -47 -43 -72q-27 -23 -53 -23q-52 0 -140 45q-90 43 -149 43q-76 0 -115 -67q-41 -70 -74 -156l52 -24q18 47 43 71
q26 23 55 23q49 0 137 -45q88 -43 150 -43q73 0 114 67q41 70 74 156z" />
    <glyph glyph-name="uni1EA0" unicode="&#x1ea0;" horiz-adv-x="1368" 
d="M743 561h-299l156 516zM1321 49h-185l-434 1413h-41l-438 -1413h-172v-49h457v49h-215l135 455h328l122 -455h-213v-49h656v49zM615 -122q-41 0 -73.5 -33t-32.5 -78q0 -47 32 -78q31 -33 76 -33t76 33q33 31 33 78q0 45 -33 78t-78 33z" />
    <glyph glyph-name="Acircumflex" unicode="&#xc2;" horiz-adv-x="1368" 
d="M743 561h-299l156 516zM1321 49h-185l-434 1413h-41l-438 -1413h-172v-49h457v49h-215l135 455h328l122 -455h-213v-49h656v49zM479 1548h117l92 213l94 -213h117l-188 375h-45z" />
    <glyph glyph-name="uni1EA6" unicode="&#x1ea6;" horiz-adv-x="1368" 
d="M743 561h-299l156 516zM1321 49h-185l-434 1413h-41l-438 -1413h-172v-49h457v49h-215l135 455h328l122 -455h-213v-49h656v49zM973 1788q-102 316 -117 340q-16 31 -51 31h-92q-74 0 -74 -51v-8q11 -54 281 -312h53zM479 1548h117l92 213l94 -213h117l-188 375h-45z" />
    <glyph glyph-name="uni1EA4" unicode="&#x1ea4;" horiz-adv-x="1368" 
d="M743 561h-299l156 516zM1321 49h-185l-434 1413h-41l-438 -1413h-172v-49h457v49h-215l135 455h328l122 -455h-213v-49h656v49zM823 1797h53q270 258 280 312l2 12q0 41 -69 47h-92q-41 0 -58 -31q-14 -24 -116 -340zM479 1548h117l92 213l94 -213h117l-188 375h-45z" />
    <glyph glyph-name="uni1EA8" unicode="&#x1ea8;" horiz-adv-x="1368" 
d="M743 561h-299l156 516zM1321 49h-185l-434 1413h-41l-438 -1413h-172v-49h457v49h-215l135 455h328l122 -455h-213v-49h656v49zM865 1767v31q0 33 11 48q6 7 24 16t50 23q25 12 45.5 29t37.5 40q31 43 31 113q0 76 -41 137q-44 63 -133 63q-76 0 -119 -43
q-41 -40 -41 -84q0 -36 17 -56q21 -20 52 -20q28 0 46 21q16 16 16 36q0 17 -10 37q-9 19 -9 33q0 20 10.5 30t24.5 10q35 0 49 -40q6 -22 9.5 -52.5t3.5 -70.5q0 -65 -10 -102q-9 -36 -44 -55q-34 -16 -55 -36q-17 -20 -17 -65v-43h52zM479 1548h117l92 213l94 -213h117
l-188 375h-45z" />
    <glyph glyph-name="uni1EAA" unicode="&#x1eaa;" horiz-adv-x="1368" 
d="M743 561h-299l156 516zM1321 49h-185l-434 1413h-41l-438 -1413h-172v-49h457v49h-215l135 455h328l122 -455h-213v-49h656v49zM1115 2110l-51 25q-17 -47 -43 -72q-27 -23 -53 -23q-52 0 -140 45q-90 43 -149 43q-76 0 -115 -67q-41 -70 -74 -156l52 -24q18 47 43 71
q26 23 55 23q49 0 137 -45q88 -43 150 -43q73 0 114 67q41 70 74 156zM479 1548h117l92 213l94 -213h117l-188 375h-45z" />
    <glyph glyph-name="uni1EAC" unicode="&#x1eac;" horiz-adv-x="1368" 
d="M743 561h-299l156 516zM1321 49h-185l-434 1413h-41l-438 -1413h-172v-49h457v49h-215l135 455h328l122 -455h-213v-49h656v49zM615 -122q-41 0 -73.5 -33t-32.5 -78q0 -47 32 -78q31 -33 76 -33t76 33q33 31 33 78q0 45 -33 78t-78 33zM479 1548h117l92 213l94 -213h117
l-188 375h-45z" />
    <glyph glyph-name="Abreve" unicode="&#x102;" horiz-adv-x="1368" 
d="M743 561h-299l156 516zM1321 49h-185l-434 1413h-41l-438 -1413h-172v-49h457v49h-215l135 455h328l122 -455h-213v-49h656v49zM674 1585q88 0 155 68q66 69 78 211h-68q-24 -72 -65 -101q-39 -26 -100 -26q-58 0 -99 28q-39 25 -65 99h-68q12 -144 80 -211
q64 -68 152 -68z" />
    <glyph glyph-name="uni1EB0" unicode="&#x1eb0;" horiz-adv-x="1368" 
d="M743 561h-299l156 516zM1321 49h-185l-434 1413h-41l-438 -1413h-172v-49h457v49h-215l135 455h328l122 -455h-213v-49h656v49zM737 1826q-102 316 -117 340q-16 31 -51 31h-92q-74 0 -74 -51v-8q11 -54 281 -312h53zM674 1585q88 0 155 68q66 69 78 211h-68
q-24 -72 -65 -101q-39 -26 -100 -26q-58 0 -99 28q-39 25 -65 99h-68q12 -144 80 -211q64 -68 152 -68z" />
    <glyph glyph-name="uni1EAE" unicode="&#x1eae;" horiz-adv-x="1368" 
d="M743 561h-299l156 516zM1321 49h-185l-434 1413h-41l-438 -1413h-172v-49h457v49h-215l135 455h328l122 -455h-213v-49h656v49zM635 1797h53q270 258 280 312l2 12q0 41 -69 47h-92q-41 0 -58 -31q-14 -24 -116 -340zM674 1585q88 0 155 68q66 69 78 211h-68
q-24 -72 -65 -101q-39 -26 -100 -26q-58 0 -99 28q-39 25 -65 99h-68q12 -144 80 -211q64 -68 152 -68z" />
    <glyph glyph-name="uni1EB2" unicode="&#x1eb2;" horiz-adv-x="1368" 
d="M743 561h-299l156 516zM1321 49h-185l-434 1413h-41l-438 -1413h-172v-49h457v49h-215l135 455h328l122 -455h-213v-49h656v49zM695 1795v31q0 33 11 48q6 7 24 16t50 23q25 12 45.5 29t37.5 40q31 43 31 113q0 76 -41 137q-44 63 -133 63q-76 0 -119 -43
q-41 -40 -41 -84q0 -36 17 -56q21 -20 52 -20q28 0 46 21q16 16 16 36q0 17 -10 37q-9 19 -9 33q0 20 10.5 30t24.5 10q35 0 49 -40q6 -22 9.5 -52.5t3.5 -70.5q0 -65 -10 -102q-9 -36 -44 -55q-34 -16 -55 -36q-17 -20 -17 -65v-43h52zM674 1585q88 0 155 68q66 69 78 211
h-68q-24 -72 -65 -101q-39 -26 -100 -26q-58 0 -99 28q-39 25 -65 99h-68q12 -144 80 -211q64 -68 152 -68z" />
    <glyph glyph-name="uni1EB4" unicode="&#x1eb4;" horiz-adv-x="1368" 
d="M743 561h-299l156 516zM1321 49h-185l-434 1413h-41l-438 -1413h-172v-49h457v49h-215l135 455h328l122 -455h-213v-49h656v49zM1115 2110l-51 25q-17 -47 -43 -72q-27 -23 -53 -23q-52 0 -140 45q-90 43 -149 43q-76 0 -115 -67q-41 -70 -74 -156l52 -24q18 47 43 71
q26 23 55 23q49 0 137 -45q88 -43 150 -43q73 0 114 67q41 70 74 156zM674 1585q88 0 155 68q66 69 78 211h-68q-24 -72 -65 -101q-39 -26 -100 -26q-58 0 -99 28q-39 25 -65 99h-68q12 -144 80 -211q64 -68 152 -68z" />
    <glyph glyph-name="uni1EB6" unicode="&#x1eb6;" horiz-adv-x="1368" 
d="M743 561h-299l156 516zM1321 49h-185l-434 1413h-41l-438 -1413h-172v-49h457v49h-215l135 455h328l122 -455h-213v-49h656v49zM615 -122q-41 0 -73.5 -33t-32.5 -78q0 -47 32 -78q31 -33 76 -33t76 33q33 31 33 78q0 45 -33 78t-78 33zM674 1585q88 0 155 68
q66 69 78 211h-68q-24 -72 -65 -101q-39 -26 -100 -26q-58 0 -99 28q-39 25 -65 99h-68q12 -144 80 -211q64 -68 152 -68z" />
    <glyph glyph-name="Egrave" unicode="&#xc8;" horiz-adv-x="1357" 
d="M1227 0l16 496h-57q-25 -230 -129 -336q-101 -107 -293 -107h-293v660h65q152 0 203 -51q49 -54 49 -195v-80h56v688h-56v-71q0 -82 -39 -158q-37 -78 -223 -78h-55v616h260q209 0 293 -102q80 -100 98 -287h53l-14 451h-1108v-49h190v-1348h-190v-49h1174zM780 1552
q-102 316 -117 340q-16 31 -51 31h-92q-74 0 -74 -51v-8q10 -54 281 -312h53z" />
    <glyph glyph-name="Eacute" unicode="&#xc9;" horiz-adv-x="1357" 
d="M1227 0l16 496h-57q-25 -230 -129 -336q-101 -107 -293 -107h-293v660h65q152 0 203 -51q49 -54 49 -195v-80h56v688h-56v-71q0 -82 -39 -158q-37 -78 -223 -78h-55v616h260q209 0 293 -102q80 -100 98 -287h53l-14 451h-1108v-49h190v-1348h-190v-49h1174zM583 1552h54
q270 258 280 312l2 12q0 41 -69 47h-92q-41 0 -58 -31q-14 -24 -117 -340z" />
    <glyph glyph-name="uni1EBA" unicode="&#x1eba;" horiz-adv-x="1357" 
d="M1227 0l16 496h-57q-25 -230 -129 -336q-101 -107 -293 -107h-293v660h65q152 0 203 -51q49 -54 49 -195v-80h56v688h-56v-71q0 -82 -39 -158q-37 -78 -223 -78h-55v616h260q209 0 293 -102q80 -100 98 -287h53l-14 451h-1108v-49h190v-1348h-190v-49h1174zM686 1521v31
q0 33 11 48q5 7 23.5 16t50.5 23q25 12 45.5 29t36.5 40q32 43 32 113q0 76 -42 137q-43 63 -132 63q-76 0 -120 -43q-40 -40 -40 -84q0 -36 17 -56q21 -20 52 -20q28 0 46 21q16 16 16 36q0 17 -10 37q-9 19 -9 33q0 20 10.5 30t24.5 10q35 0 48 -40q7 -22 10.5 -52.5
t3.5 -70.5q0 -65 -10 -102q-9 -36 -44 -55q-35 -16 -55 -36q-17 -20 -17 -65v-43h52z" />
    <glyph glyph-name="uni1EBC" unicode="&#x1ebc;" horiz-adv-x="1357" 
d="M1227 0l16 496h-57q-25 -230 -129 -336q-101 -107 -293 -107h-293v660h65q152 0 203 -51q49 -54 49 -195v-80h56v688h-56v-71q0 -82 -39 -158q-37 -78 -223 -78h-55v616h260q209 0 293 -102q80 -100 98 -287h53l-14 451h-1108v-49h190v-1348h-190v-49h1174zM1059 1837
l-51 25q-17 -47 -43 -72q-27 -23 -54 -23q-51 0 -139 45q-90 43 -149 43q-76 0 -115 -67q-41 -70 -74 -156l51 -24q19 47 43 71q27 23 56 23q49 0 137 -45q88 -43 149 -43q74 0 115 67q41 70 74 156z" />
    <glyph glyph-name="uni1EB8" unicode="&#x1eb8;" horiz-adv-x="1357" 
d="M1227 0l16 496h-57q-25 -230 -129 -336q-101 -107 -293 -107h-293v660h65q152 0 203 -51q49 -54 49 -195v-80h56v688h-56v-71q0 -82 -39 -158q-37 -78 -223 -78h-55v616h260q209 0 293 -102q80 -100 98 -287h53l-14 451h-1108v-49h190v-1348h-190v-49h1174zM653 -122
q-41 0 -74 -33t-33 -78q0 -47 33 -78q31 -33 76 -33t76 33q32 31 32 78q0 45 -32.5 78t-77.5 33z" />
    <glyph glyph-name="Ecircumflex" unicode="&#xca;" horiz-adv-x="1357" 
d="M1227 0l16 496h-57q-25 -230 -129 -336q-101 -107 -293 -107h-293v660h65q152 0 203 -51q49 -54 49 -195v-80h56v688h-56v-71q0 -82 -39 -158q-37 -78 -223 -78h-55v616h260q209 0 293 -102q80 -100 98 -287h53l-14 451h-1108v-49h190v-1348h-190v-49h1174zM485 1548h117
l92 213l94 -213h117l-188 375h-46z" />
    <glyph glyph-name="uni1EC0" unicode="&#x1ec0;" horiz-adv-x="1357" 
d="M1227 0l16 496h-57q-25 -230 -129 -336q-101 -107 -293 -107h-293v660h65q152 0 203 -51q49 -54 49 -195v-80h56v688h-56v-71q0 -82 -39 -158q-37 -78 -223 -78h-55v616h260q209 0 293 -102q80 -100 98 -287h53l-14 451h-1108v-49h190v-1348h-190v-49h1174zM959 1797
q-102 316 -117 340q-16 31 -51 31h-92q-74 0 -74 -51v-8q10 -54 281 -312h53zM485 1548h117l92 213l94 -213h117l-189 375h-45z" />
    <glyph glyph-name="uni1EBE" unicode="&#x1ebe;" horiz-adv-x="1357" 
d="M1227 0l16 496h-57q-25 -230 -129 -336q-101 -107 -293 -107h-293v660h65q152 0 203 -51q49 -54 49 -195v-80h56v688h-56v-71q0 -82 -39 -158q-37 -78 -223 -78h-55v616h260q209 0 293 -102q80 -100 98 -287h53l-14 451h-1108v-49h190v-1348h-190v-49h1174zM828 1787h54
q270 258 280 312l2 12q0 41 -69 47h-92q-41 0 -58 -31q-14 -24 -117 -340zM485 1548h117l92 213l94 -213h117l-188 375h-46z" />
    <glyph glyph-name="uni1EC2" unicode="&#x1ec2;" horiz-adv-x="1357" 
d="M1227 0l16 496h-57q-25 -230 -129 -336q-101 -107 -293 -107h-293v660h65q152 0 203 -51q49 -54 49 -195v-80h56v688h-56v-71q0 -82 -39 -158q-37 -78 -223 -78h-55v616h260q209 0 293 -102q80 -100 98 -287h53l-14 451h-1108v-49h190v-1348h-190v-49h1174zM893 1766v31
q0 33 11 48q5 7 23.5 16t50.5 23q25 12 45.5 29t36.5 40q32 43 32 113q0 76 -42 137q-43 63 -132 63q-76 0 -120 -43q-40 -40 -40 -84q0 -36 17 -56q21 -20 52 -20q28 0 46 21q16 16 16 36q0 17 -10 37q-9 19 -9 33q0 20 10.5 30t24.5 10q35 0 48 -40q7 -22 10.5 -52.5
t3.5 -70.5q0 -65 -10 -102q-9 -36 -44 -55q-35 -16 -55 -36q-17 -20 -17 -65v-43h52zM485 1548h117l92 213l94 -213h117l-189 375h-45z" />
    <glyph glyph-name="uni1EC4" unicode="&#x1ec4;" horiz-adv-x="1357" 
d="M1227 0l16 496h-57q-25 -230 -129 -336q-101 -107 -293 -107h-293v660h65q152 0 203 -51q49 -54 49 -195v-80h56v688h-56v-71q0 -82 -39 -158q-37 -78 -223 -78h-55v616h260q209 0 293 -102q80 -100 98 -287h53l-14 451h-1108v-49h190v-1348h-190v-49h1174zM1097 2139
l-51 25q-17 -47 -43 -72q-27 -23 -54 -23q-51 0 -139 45q-90 43 -149 43q-76 0 -115 -67q-41 -70 -74 -156l51 -24q19 47 43 71q27 23 56 23q49 0 137 -45q88 -43 149 -43q74 0 115 67q41 70 74 156zM485 1548h117l92 213l94 -213h117l-189 375h-45z" />
    <glyph glyph-name="uni1EC6" unicode="&#x1ec6;" horiz-adv-x="1357" 
d="M1227 0l16 496h-57q-25 -230 -129 -336q-101 -107 -293 -107h-293v660h65q152 0 203 -51q49 -54 49 -195v-80h56v688h-56v-71q0 -82 -39 -158q-37 -78 -223 -78h-55v616h260q209 0 293 -102q80 -100 98 -287h53l-14 451h-1108v-49h190v-1348h-190v-49h1174zM653 -122
q-41 0 -74 -33t-33 -78q0 -47 33 -78q31 -33 76 -33t76 33q32 31 32 78q0 45 -32.5 78t-77.5 33zM485 1548h117l92 213l94 -213h117l-189 375h-45z" />
    <glyph glyph-name="Igrave" unicode="&#xcc;" horiz-adv-x="704" 
d="M483 49v1348h188v49h-606v-49h188v-1348h-188v-49h606v49h-188zM462 1552q-102 316 -116 340q-17 31 -52 31h-92q-74 0 -74 -51v-8q11 -54 281 -312h53z" />
    <glyph glyph-name="Iacute" unicode="&#xcd;" horiz-adv-x="704" 
d="M483 49v1348h188v49h-606v-49h188v-1348h-188v-49h606v49h-188zM266 1552h53q270 258 281 312l2 12q0 41 -70 47h-92q-41 0 -58 -31q-14 -24 -116 -340z" />
    <glyph glyph-name="uni1EC8" unicode="&#x1ec8;" horiz-adv-x="704" 
d="M483 49v1348h188v49h-606v-49h188v-1348h-188v-49h606v49h-188zM374 1521v31q0 33 12 48q5 7 23.5 16t49.5 23q26 12 46.5 29t36.5 40q31 43 31 113q0 76 -41 137q-44 63 -133 63q-76 0 -119 -43q-41 -40 -41 -84q0 -36 18 -56q20 -20 51 -20q29 0 47 21q15 16 15 36
q0 17 -10 37q-9 19 -9 33q0 20 11 30t24 10q36 0 49 -40q6 -22 9.5 -52.5t3.5 -70.5q0 -65 -10 -102q-8 -36 -43 -55q-35 -16 -55 -36q-18 -20 -18 -65v-43h52z" />
    <glyph glyph-name="Itilde" unicode="&#x128;" horiz-adv-x="704" 
d="M483 49v1348h188v49h-606v-49h188v-1348h-188v-49h606v49h-188zM728 1837l-52 25q-16 -47 -43 -72q-26 -23 -53 -23q-51 0 -139 45q-90 43 -150 43q-75 0 -114 -67q-41 -70 -74 -156l51 -24q19 47 43 71q27 23 55 23q50 0 138 -45q88 -43 149 -43q74 0 115 67
q41 70 74 156z" />
    <glyph glyph-name="uni1ECA" unicode="&#x1eca;" horiz-adv-x="704" 
d="M483 49v1348h188v49h-606v-49h188v-1348h-188v-49h606v49h-188zM366 -122q-41 0 -73.5 -33t-32.5 -78q0 -47 32 -78q31 -33 76 -33t76 33q33 31 33 78q0 45 -33 78t-78 33z" />
    <glyph glyph-name="Ograve" unicode="&#xd2;" 
d="M1111 743v-45q0 -340 -75 -499q-74 -162 -289 -162t-291 162q-76 159 -76 499v45q0 342 76 502q76 162 291 162t291 -162q73 -164 73 -502zM1376 721q0 334 -170 541q-168 204 -457 204t-461 -204q-172 -209 -172 -541t170 -539q168 -205 459 -205q289 0 461 205
q170 207 170 539zM851 1552q-102 316 -117 340q-16 31 -51 31h-92q-74 0 -74 -51v-8q11 -54 281 -312h53z" />
    <glyph glyph-name="Oacute" unicode="&#xd3;" 
d="M1111 743v-45q0 -340 -75 -499q-74 -162 -289 -162t-291 162q-76 159 -76 499v45q0 342 76 502q76 162 291 162t291 -162q73 -164 73 -502zM1376 721q0 334 -170 541q-168 204 -457 204t-461 -204q-172 -209 -172 -541t170 -539q168 -205 459 -205q289 0 461 205
q170 207 170 539zM655 1552h53q270 258 280 312l2 12q0 41 -69 47h-92q-41 0 -58 -31q-14 -24 -116 -340z" />
    <glyph glyph-name="uni1ECE" unicode="&#x1ece;" 
d="M1111 743v-45q0 -340 -75 -499q-74 -162 -289 -162t-291 162q-76 159 -76 499v45q0 342 76 502q76 162 291 162t291 -162q73 -164 73 -502zM1376 721q0 334 -170 541q-168 204 -457 204t-461 -204q-172 -209 -172 -541t170 -539q168 -205 459 -205q289 0 461 205
q170 207 170 539zM751 1521v31q0 33 12 48q5 7 23 16t50 23q26 12 46 29t37 40q31 43 31 113q0 76 -41 137q-44 63 -133 63q-76 0 -119 -43q-41 -40 -41 -84q0 -36 18 -56q20 -20 51 -20q28 0 46 21q16 16 16 36q0 17 -10 37q-9 19 -9 33q0 20 11 30t24 10q36 0 49 -40
q6 -22 9.5 -52.5t3.5 -70.5q0 -65 -10 -102q-9 -36 -44 -55q-34 -16 -54 -36q-18 -20 -18 -65v-43h52z" />
    <glyph glyph-name="Otilde" unicode="&#xd5;" 
d="M1111 743v-45q0 -340 -75 -499q-74 -162 -289 -162t-291 162q-76 159 -76 499v45q0 342 76 502q76 162 291 162t291 -162q73 -164 73 -502zM1376 721q0 334 -170 541q-168 204 -457 204t-461 -204q-172 -209 -172 -541t170 -539q168 -205 459 -205q289 0 461 205
q170 207 170 539zM1060 1837l-51 25q-16 -47 -43 -72q-27 -23 -53 -23q-52 0 -140 45q-90 43 -149 43q-76 0 -115 -67q-41 -70 -74 -156l52 -24q18 47 43 71q26 23 55 23q49 0 137 -45q88 -43 150 -43q73 0 114 67q41 70 74 156z" />
    <glyph glyph-name="uni1ECC" unicode="&#x1ecc;" 
d="M1111 743v-45q0 -340 -75 -499q-74 -162 -289 -162t-291 162q-76 159 -76 499v45q0 342 76 502q76 162 291 162t291 -162q73 -164 73 -502zM1376 721q0 334 -170 541q-168 204 -457 204t-461 -204q-172 -209 -172 -541t170 -539q168 -205 459 -205q289 0 461 205
q170 207 170 539zM744 -122q-41 0 -74 -33t-33 -78q0 -47 33 -78q31 -33 76 -33t76 33q32 31 32 78q0 45 -32.5 78t-77.5 33z" />
    <glyph glyph-name="Ocircumflex" unicode="&#xd4;" 
d="M1111 743v-45q0 -340 -75 -499q-74 -162 -289 -162t-291 162q-76 159 -76 499v45q0 342 76 502q76 162 291 162t291 -162q73 -164 73 -502zM1376 721q0 334 -170 541q-168 204 -457 204t-461 -204q-172 -209 -172 -541t170 -539q168 -205 459 -205q289 0 461 205
q170 207 170 539zM556 1548h117l92 213l94 -213h117l-188 375h-45z" />
    <glyph glyph-name="uni1ED2" unicode="&#x1ed2;" 
d="M1111 743v-45q0 -340 -75 -499q-74 -162 -289 -162t-291 162q-76 159 -76 499v45q0 342 76 502q76 162 291 162t291 -162q73 -164 73 -502zM1376 721q0 334 -170 541q-168 204 -457 204t-461 -204q-172 -209 -172 -541t170 -539q168 -205 459 -205q289 0 461 205
q170 207 170 539zM993 1826q-102 316 -117 340q-16 31 -51 31h-92q-74 0 -74 -51v-8q11 -54 281 -312h53zM556 1548h117l92 213l94 -213h117l-188 375h-45z" />
    <glyph glyph-name="uni1ED0" unicode="&#x1ed0;" 
d="M1111 743v-45q0 -340 -75 -499q-74 -162 -289 -162t-291 162q-76 159 -76 499v45q0 342 76 502q76 162 291 162t291 -162q73 -164 73 -502zM1376 721q0 334 -170 541q-168 204 -457 204t-461 -204q-172 -209 -172 -541t170 -539q168 -205 459 -205q289 0 461 205
q170 207 170 539zM890 1816h53q270 258 280 312l2 12q0 41 -69 47h-92q-41 0 -58 -31q-14 -24 -116 -340zM556 1548h117l92 213l94 -213h117l-188 375h-45z" />
    <glyph glyph-name="uni1ED4" unicode="&#x1ed4;" 
d="M1111 743v-45q0 -340 -75 -499q-74 -162 -289 -162t-291 162q-76 159 -76 499v45q0 342 76 502q76 162 291 162t291 -162q73 -164 73 -502zM1376 721q0 334 -170 541q-168 204 -457 204t-461 -204q-172 -209 -172 -541t170 -539q168 -205 459 -205q289 0 461 205
q170 207 170 539zM940 1786v31q0 33 12 48q5 7 23 16t50 23q26 12 46 29t37 40q31 43 31 113q0 76 -41 137q-44 63 -133 63q-76 0 -119 -43q-41 -40 -41 -84q0 -36 18 -56q20 -20 51 -20q28 0 46 21q16 16 16 36q0 17 -10 37q-9 19 -9 33q0 20 11 30t24 10q36 0 49 -40
q6 -22 9.5 -52.5t3.5 -70.5q0 -65 -10 -102q-9 -36 -44 -55q-34 -16 -54 -36q-18 -20 -18 -65v-43h52zM556 1548h116l92 213l95 -213h116l-188 375h-45z" />
    <glyph glyph-name="uni1ED6" unicode="&#x1ed6;" 
d="M1111 743v-45q0 -340 -75 -499q-74 -162 -289 -162t-291 162q-76 159 -76 499v45q0 342 76 502q76 162 291 162t291 -162q73 -164 73 -502zM1376 721q0 334 -170 541q-168 204 -457 204t-461 -204q-172 -209 -172 -541t170 -539q168 -205 459 -205q289 0 461 205
q170 207 170 539zM1155 2158l-51 25q-16 -47 -43 -72q-27 -23 -53 -23q-52 0 -140 45q-90 43 -149 43q-76 0 -115 -67q-41 -70 -74 -156l52 -24q18 47 43 71q26 23 55 23q49 0 137 -45q88 -43 150 -43q73 0 114 67q41 70 74 156zM556 1548h117l92 213l94 -213h117l-188 375
h-45z" />
    <glyph glyph-name="uni1ED8" unicode="&#x1ed8;" 
d="M1111 743v-45q0 -340 -75 -499q-74 -162 -289 -162t-291 162q-76 159 -76 499v45q0 342 76 502q76 162 291 162t291 -162q73 -164 73 -502zM1376 721q0 334 -170 541q-168 204 -457 204t-461 -204q-172 -209 -172 -541t170 -539q168 -205 459 -205q289 0 461 205
q170 207 170 539zM744 -122q-41 0 -74 -33t-33 -78q0 -47 33 -78q31 -33 76 -33t76 33q32 31 32 78q0 45 -32.5 78t-77.5 33zM556 1548h116l92 213l95 -213h116l-188 375h-45z" />
    <glyph glyph-name="Ugrave" unicode="&#xd9;" horiz-adv-x="1515" 
d="M1210 395q0 -198 -88 -274q-90 -78 -299 -78q-205 0 -285 82q-77 84 -77 291v981h204v49h-610v-49h178v-981q0 -260 121 -350q119 -89 428 -89q272 0 383 99q109 98 109 352v969h182v49h-453v-49h207v-1002zM905 1552q-102 316 -117 340q-16 31 -51 31h-92q-74 0 -74 -51
v-8q10 -54 281 -312h53z" />
    <glyph glyph-name="Uacute" unicode="&#xda;" horiz-adv-x="1515" 
d="M1210 395q0 -198 -88 -274q-90 -78 -299 -78q-205 0 -285 82q-77 84 -77 291v981h204v49h-610v-49h178v-981q0 -260 121 -350q119 -89 428 -89q272 0 383 99q109 98 109 352v969h182v49h-453v-49h207v-1002zM708 1552h54q270 258 280 312l2 12q0 41 -69 47h-93
q-41 0 -57 -31q-14 -24 -117 -340z" />
    <glyph glyph-name="uni1EE6" unicode="&#x1ee6;" horiz-adv-x="1515" 
d="M1210 395q0 -198 -88 -274q-90 -78 -299 -78q-205 0 -285 82q-77 84 -77 291v981h204v49h-610v-49h178v-981q0 -260 121 -350q119 -89 428 -89q272 0 383 99q109 98 109 352v969h182v49h-453v-49h207v-1002zM836 1521v31q0 33 11 48q5 7 23.5 16t50.5 23q25 12 45.5 29
t36.5 40q32 43 32 113q0 76 -42 137q-43 63 -132 63q-76 0 -120 -43q-40 -40 -40 -84q0 -36 17 -56q21 -20 52 -20q28 0 46 21q16 16 16 36q0 17 -10 37q-9 19 -9 33q0 20 10.5 30t24.5 10q35 0 48 -40q6 -22 10 -52.5t4 -70.5q0 -65 -11 -102q-8 -36 -43 -55
q-35 -16 -55 -36q-17 -20 -17 -65v-43h52z" />
    <glyph glyph-name="Utilde" unicode="&#x168;" horiz-adv-x="1515" 
d="M1210 395q0 -198 -88 -274q-90 -78 -299 -78q-205 0 -285 82q-77 84 -77 291v981h204v49h-610v-49h178v-981q0 -260 121 -350q119 -89 428 -89q272 0 383 99q109 98 109 352v969h182v49h-453v-49h207v-1002zM1172 1837l-51 25q-17 -47 -43 -72q-27 -23 -54 -23
q-51 0 -139 45q-90 43 -149 43q-76 0 -115 -67q-41 -70 -74 -156l51 -24q19 47 43 71q27 23 56 23q49 0 137 -45q88 -43 149 -43q74 0 115 67q41 70 74 156z" />
    <glyph glyph-name="uni1EE4" unicode="&#x1ee4;" horiz-adv-x="1515" 
d="M1210 395q0 -198 -88 -274q-90 -78 -299 -78q-205 0 -285 82q-77 84 -77 291v981h204v49h-610v-49h178v-981q0 -260 121 -350q119 -89 428 -89q272 0 383 99q109 98 109 352v969h182v49h-453v-49h207v-1002zM744 -122q-41 0 -73.5 -33t-32.5 -78q0 -47 32 -78
q31 -33 76 -33t76 33q33 31 33 78q0 45 -33 78t-78 33z" />
    <glyph glyph-name="Uhorn" unicode="&#x1af;" horiz-adv-x="1515" 
d="M1270 1446h-266v-49h206v-1002q0 -198 -88 -274q-90 -78 -299 -78q-205 0 -284 82q-78 84 -78 291v981h205v49h-611v-49h178v-981q0 -260 121 -350q119 -89 428 -89q273 0 383 99q109 98 109 352v635h-4v190q84 50 141 128q65 90 65 190q0 83 -41 130q-39 49 -100 49
q-44 0 -80 -33q-32 -32 -32 -86q0 -42 34 -69q33 -27 77 -27q19 0 38.5 11.5t26.5 19.5q3 -17 3 -30q0 -44 -29 -104q-30 -65 -103 -124v138z" />
    <glyph glyph-name="uni1EEA" unicode="&#x1eea;" horiz-adv-x="1515" 
d="M905 1552q-102 316 -117 340q-16 31 -51 31h-92q-74 0 -74 -51v-8q10 -54 281 -312h53zM1270 1446h-266v-49h206v-1002q0 -198 -88 -274q-90 -78 -299 -78q-205 0 -284 82q-78 84 -78 291v981h205v49h-611v-49h178v-981q0 -260 121 -350q119 -89 428 -89q273 0 383 99
q109 98 109 352v635h-4v190q84 50 141 128q65 90 65 190q0 83 -41 130q-39 49 -100 49q-44 0 -80 -33q-32 -32 -32 -86q0 -42 34 -69q33 -27 77 -27q19 0 38.5 11.5t26.5 19.5q3 -17 3 -30q0 -44 -29 -104q-30 -65 -103 -124v138z" />
    <glyph glyph-name="uni1EE8" unicode="&#x1ee8;" horiz-adv-x="1515" 
d="M708 1552h54q270 258 280 312l2 12q0 41 -69 47h-93q-41 0 -57 -31q-14 -24 -117 -340zM1270 1446h-266v-49h206v-1002q0 -198 -88 -274q-90 -78 -299 -78q-205 0 -284 82q-78 84 -78 291v981h205v49h-611v-49h178v-981q0 -260 121 -350q119 -89 428 -89q273 0 383 99
q109 98 109 352v635h-4v190q84 50 141 128q65 90 65 190q0 83 -41 130q-39 49 -100 49q-44 0 -80 -33q-32 -32 -32 -86q0 -42 34 -69q33 -27 77 -27q19 0 38.5 11.5t26.5 19.5q3 -17 3 -30q0 -44 -29 -104q-30 -65 -103 -124v138z" />
    <glyph glyph-name="uni1EEC" unicode="&#x1eec;" horiz-adv-x="1515" 
d="M836 1521v31q0 33 11 48q6 7 24 16t50 23q25 12 45.5 29t37.5 40q31 43 31 113q0 76 -41 137q-44 63 -133 63q-76 0 -119 -43q-41 -40 -41 -84q0 -36 17 -56q21 -20 52 -20q28 0 46 21q16 16 16 36q0 17 -10 37q-9 19 -9 33q0 20 10.5 30t24.5 10q35 0 49 -40
q6 -22 9.5 -52.5t3.5 -70.5q0 -65 -10 -102q-9 -36 -44 -55q-34 -16 -55 -36q-17 -20 -17 -65v-43h52zM1270 1446h-266v-49h206v-1002q0 -198 -88 -274q-90 -78 -299 -78q-205 0 -284 82q-78 84 -78 291v981h205v49h-611v-49h178v-981q0 -260 121 -350q119 -89 428 -89
q273 0 383 99q109 98 109 352v635h-4v190q84 50 141 128q65 90 65 190q0 83 -41 130q-39 49 -100 49q-44 0 -80 -33q-32 -32 -32 -86q0 -42 34 -69q33 -27 77 -27q19 0 38.5 11.5t26.5 19.5q3 -17 3 -30q0 -44 -29 -104q-30 -65 -103 -124v138z" />
    <glyph glyph-name="uni1EEE" unicode="&#x1eee;" horiz-adv-x="1515" 
d="M1172 1837l-51 25q-17 -47 -43 -72q-27 -23 -53 -23q-52 0 -140 45q-90 43 -149 43q-76 0 -115 -67q-41 -70 -74 -156l52 -24q18 47 43 71q26 23 55 23q49 0 137 -45q88 -43 150 -43q73 0 114 67q41 70 74 156zM1270 1446h-266v-49h206v-1002q0 -198 -88 -274
q-90 -78 -299 -78q-205 0 -284 82q-78 84 -78 291v981h205v49h-611v-49h178v-981q0 -260 121 -350q119 -89 428 -89q273 0 383 99q109 98 109 352v635h-4v190q84 50 141 128q65 90 65 190q0 83 -41 130q-39 49 -100 49q-44 0 -80 -33q-32 -32 -32 -86q0 -42 34 -69
q33 -27 77 -27q19 0 38.5 11.5t26.5 19.5q3 -17 3 -30q0 -44 -29 -104q-30 -65 -103 -124v138z" />
    <glyph glyph-name="uni1EF0" unicode="&#x1ef0;" horiz-adv-x="1515" 
d="M744 -122q-41 0 -73.5 -33t-32.5 -78q0 -47 33 -78q30 -33 75 -33q46 0 76 33q33 31 33 78q0 45 -32.5 78t-78.5 33zM1270 1446h-266v-49h206v-1002q0 -198 -88 -274q-90 -78 -299 -78q-205 0 -284 82q-78 84 -78 291v981h205v49h-611v-49h178v-981q0 -260 121 -350
q119 -89 428 -89q273 0 383 99q109 98 109 352v635h-4v190q84 50 141 128q65 90 65 190q0 83 -41 130q-39 49 -100 49q-44 0 -80 -33q-32 -32 -32 -86q0 -42 34 -69q33 -27 77 -27q19 0 38.5 11.5t26.5 19.5q3 -17 3 -30q0 -44 -29 -104q-30 -65 -103 -124v138z" />
    <glyph glyph-name="Ohorn" unicode="&#x1a0;" 
d="M1111 743v-45q0 -340 -75 -499q-74 -162 -289 -162t-291 162q-76 159 -76 499v45q0 342 76 502q76 162 291 162t291 -162q73 -164 73 -502zM1306 1381q65 90 65 190q0 83 -41 130q-39 49 -99 49q-44 0 -80 -33q-33 -32 -33 -86q0 -42 34 -69q33 -27 77 -27
q20 0 39.5 11.5t25.5 19.5q3 -17 3 -30q0 -44 -29 -104q-30 -65 -103 -125q-161 159 -416 159q-289 0 -461 -204q-172 -209 -172 -541t170 -539q168 -205 459 -205q289 0 461 205q170 207 170 539q0 334 -170 541q-5 6 -9 11q63 45 109 108z" />
    <glyph glyph-name="uni1EDC" unicode="&#x1edc;" 
d="M1111 743v-45q0 -340 -75 -499q-74 -162 -289 -162t-291 162q-76 159 -76 499v45q0 342 76 502q76 162 291 162t291 -162q73 -164 73 -502zM851 1552q-102 316 -117 340q-16 31 -51 31h-92q-74 0 -74 -51v-8q11 -54 281 -312h53zM1307 1381q65 90 65 190q0 83 -41 130
q-39 49 -100 49q-44 0 -80 -33q-32 -32 -32 -86q0 -42 34 -69q33 -27 77 -27q19 0 38.5 11.5t26.5 19.5q3 -17 3 -30q0 -44 -29 -104q-30 -65 -104 -125q-161 159 -416 159q-289 0 -461 -204q-172 -209 -172 -541t170 -539q168 -205 459 -205q289 0 461 205q170 207 170 539
q0 334 -170 541q-5 5 -9 11q63 45 110 108z" />
    <glyph glyph-name="uni1EDA" unicode="&#x1eda;" 
d="M1111 743v-45q0 -340 -75 -499q-74 -162 -289 -162t-291 162q-76 159 -76 499v45q0 342 76 502q76 162 291 162t291 -162q73 -164 73 -502zM655 1552h53q270 258 280 312l2 12q0 41 -69 47h-92q-41 0 -58 -31q-14 -24 -116 -340zM1307 1381q65 90 65 190q0 83 -41 130
q-39 49 -100 49q-44 0 -80 -33q-32 -32 -32 -86q0 -42 34 -69q33 -27 77 -27q19 0 38.5 11.5t26.5 19.5q3 -17 3 -30q0 -44 -29 -104q-30 -65 -104 -125q-161 159 -416 159q-289 0 -461 -204q-172 -209 -172 -541t170 -539q168 -205 459 -205q289 0 461 205q170 207 170 539
q0 334 -170 541q-5 5 -9 11q63 45 110 108z" />
    <glyph glyph-name="uni1EDE" unicode="&#x1ede;" 
d="M1111 743v-45q0 -340 -76 -499q-73 -162 -288 -162q-216 0 -291 162q-76 159 -76 499v45q0 342 76 502q75 162 291 162q215 0 290 -162q74 -164 74 -502zM751 1521v31q0 33 11 48q6 7 24 16t50 23q25 12 45.5 29t37.5 40q31 43 31 113q0 76 -41 137q-44 63 -133 63
q-76 0 -119 -43q-41 -40 -41 -84q0 -36 17 -56q21 -20 52 -20q28 0 46 21q16 16 16 36q0 17 -10 37q-9 19 -9 33q0 20 10.5 30t24.5 10q35 0 49 -40q6 -22 9.5 -52.5t3.5 -70.5q0 -65 -10 -102q-9 -36 -44 -55q-34 -16 -55 -36q-17 -20 -17 -65v-43h52zM1306 1381
q65 90 65 190q0 83 -41 130q-39 49 -100 49q-44 0 -80 -33q-32 -32 -32 -86q0 -42 34 -69q33 -27 77 -27q19 0 38.5 11.5t26.5 19.5q3 -17 3 -30q0 -44 -29 -104q-30 -65 -104 -125q-161 159 -415 159q-289 0 -461 -204q-172 -209 -172 -541t170 -539q168 -205 458 -205
q289 0 461 205q170 207 170 539q0 334 -170 541q-5 5 -9 11q63 45 110 108z" />
    <glyph glyph-name="uni1EE0" unicode="&#x1ee0;" 
d="M1111 743v-45q0 -340 -75 -499q-74 -162 -289 -162t-291 162q-76 159 -76 499v45q0 342 76 502q76 162 291 162t291 -162q73 -164 73 -502zM1060 1837l-51 25q-16 -47 -43 -72q-27 -23 -53 -23q-52 0 -140 45q-90 43 -149 43q-76 0 -115 -67q-41 -70 -74 -156l52 -24
q18 47 43 71q26 23 55 23q49 0 137 -45q88 -43 150 -43q73 0 114 67q41 70 74 156zM1307 1381q65 90 65 190q0 83 -41 130q-39 49 -100 49q-44 0 -80 -33q-32 -32 -32 -86q0 -42 34 -69q33 -27 77 -27q19 0 38.5 11.5t26.5 19.5q3 -17 3 -30q0 -44 -29 -104
q-30 -65 -104 -125q-161 159 -415 159q-289 0 -461 -204q-172 -209 -172 -541t170 -539q168 -205 458 -205q289 0 461 205q170 207 170 539q0 334 -170 541q-5 5 -9 11q63 45 110 108z" />
    <glyph glyph-name="uni1EE2" unicode="&#x1ee2;" 
d="M1111 743v-45q0 -340 -76 -499q-73 -162 -288 -162q-216 0 -291 162q-76 159 -76 499v45q0 342 76 502q75 162 291 162q215 0 290 -162q74 -164 74 -502zM743 -122q-41 0 -73.5 -33t-32.5 -78q0 -47 33 -78q30 -33 75 -33q46 0 76 33q33 31 33 78q0 45 -32.5 78t-78.5 33
zM1306 1381q65 90 65 190q0 83 -41 130q-39 49 -100 49q-44 0 -80 -33q-32 -32 -32 -86q0 -42 34 -69q33 -27 77 -27q19 0 38.5 11.5t26.5 19.5q3 -17 3 -30q0 -44 -29 -104q-30 -65 -104 -125q-161 159 -415 159q-289 0 -461 -204q-172 -209 -172 -541t170 -539
q168 -205 458 -205q289 0 461 205q170 207 170 539q0 334 -170 541q-5 5 -9 11q63 45 110 108z" />
    <glyph glyph-name="Ygrave" unicode="&#x1ef2;" horiz-adv-x="1220" 
d="M780 1397h209l-268 -588l-289 588h213v49h-647v-49h160l358 -670v-678h-190v-49h608v49h-191v682l314 666h164v49h-441v-49zM652 1892q-16 31 -57 31h-92q-70 -6 -70 -47l2 -12q11 -54 281 -312h53q-102 316 -117 340z" />
    <glyph glyph-name="Yacute" unicode="&#xdd;" horiz-adv-x="1220" 
d="M780 1397h209l-268 -588l-289 588h213v49h-647v-49h160l358 -670v-678h-190v-49h608v49h-191v682l314 666h164v49h-441v-49zM565 1552h54q270 258 280 312l2 12q0 41 -69 47h-93q-41 0 -57 -31q-14 -24 -117 -340z" />
    <glyph glyph-name="uni1EF6" unicode="&#x1ef6;" horiz-adv-x="1220" 
d="M780 1397h209l-268 -588l-289 588h213v49h-647v-49h160l358 -670v-678h-190v-49h608v49h-191v682l314 666h164v49h-441v-49zM722 1521v31q0 33 12 48q5 7 23 16t50 23q26 12 46 29t37 40q31 43 31 113q0 76 -41 137q-44 63 -133 63q-76 0 -119 -43q-41 -40 -41 -84
q0 -36 18 -56q20 -20 51 -20q28 0 46 21q16 16 16 36q0 17 -10 37q-9 19 -9 33q0 20 10.5 30t24.5 10q35 0 49 -40q6 -22 9.5 -52.5t3.5 -70.5q0 -65 -10 -102q-9 -36 -44 -55q-34 -16 -54 -36q-18 -20 -18 -65v-43h52z" />
    <glyph glyph-name="uni1EF8" unicode="&#x1ef8;" horiz-adv-x="1220" 
d="M780 1397h209l-268 -588l-289 588h213v49h-647v-49h160l358 -670v-678h-190v-49h608v49h-191v682l314 666h164v49h-441v-49zM1013 1837l-51 25q-16 -47 -43 -72q-27 -23 -53 -23q-51 0 -140 45q-90 43 -149 43q-76 0 -115 -67q-41 -70 -73 -156l51 -24q18 47 43 71
q26 23 55 23q49 0 137 -45q88 -43 150 -43q73 0 114 67q41 70 74 156z" />
    <glyph glyph-name="uni1EF4" unicode="&#x1ef4;" horiz-adv-x="1220" 
d="M780 1397h209l-268 -588l-289 588h213v49h-647v-49h160l358 -670v-678h-190v-49h608v49h-191v682l314 666h164v49h-441v-49zM622 -122q-40 0 -73 -33t-33 -78q0 -47 33 -78q30 -33 76 -33q45 0 75 33q33 31 33 78q0 45 -32.5 78t-78.5 33z" />
    <glyph glyph-name="agrave" unicode="&#xe0;" horiz-adv-x="1054" 
d="M614 528q0 -186 -61 -333q-60 -146 -160 -146q-70 0 -94 92q-23 97 -23 234q0 174 33 260q16 45 45 62.5t68 39.5q32 21 79.5 34t78 18.5t34.5 5.5v-267zM602 141q16 -71 59 -106q47 -35 156 -35h162v49h-45q-74 0 -96.5 35t-22.5 121v821q0 221 -84 334
q-80 108 -270 108q-158 0 -246 -65q-86 -68 -84 -180q4 -78 92 -78h12q47 0 69.5 24.5t22.5 67.5v14q0 90 35 129q33 37 113 37q78 0 108 -76q31 -77 31 -231v-236q-100 -38 -196 -59q-50 -10 -94 -20.5t-85 -20.5q-90 -22 -139 -123q-49 -102 -49 -266q0 -190 57 -297
q56 -108 191 -108q92 0 170 36q76 37 133 125zM508 1509q-49 158 -78 242t-37 98q-16 31 -53 31h-92q-74 0 -74 -51v-8q12 -56 280 -312h54z" />
    <glyph glyph-name="aacute" unicode="&#xe1;" horiz-adv-x="1054" 
d="M614 528q0 -186 -61 -333q-60 -146 -160 -146q-70 0 -94 92q-23 97 -23 234q0 174 33 260q16 45 45 62.5t68 39.5q32 21 79.5 34t78 18.5t34.5 5.5v-267zM602 141q16 -71 59 -106q47 -35 156 -35h162v49h-45q-74 0 -96.5 35t-22.5 121v821q0 221 -84 334
q-80 108 -270 108q-158 0 -246 -65q-86 -68 -84 -180q4 -78 92 -78h12q47 0 69.5 24.5t22.5 67.5v14q0 90 35 129q33 37 113 37q78 0 108 -76q31 -77 31 -231v-236q-100 -38 -196 -59q-50 -10 -94 -20.5t-85 -20.5q-90 -22 -139 -123q-49 -102 -49 -266q0 -190 57 -297
q56 -108 191 -108q92 0 170 36q76 37 133 125zM403 1526h54q270 258 280 311l2 12q0 41 -70 47h-92q-41 0 -57 -30q-14 -25 -117 -340z" />
    <glyph glyph-name="uni1EA3" unicode="&#x1ea3;" horiz-adv-x="1054" 
d="M651 528q0 -186 -61 -333q-60 -146 -160 -146q-70 0 -94 92q-23 97 -23 234q0 174 33 260q16 45 45 62.5t68 39.5q32 21 79.5 34t78 18.5t34.5 5.5v-267zM639 141q16 -71 59 -106q47 -35 156 -35h162v49h-45q-74 0 -96.5 35t-22.5 121v821q0 221 -84 334
q-80 108 -270 108q-158 0 -246 -65q-86 -68 -84 -180q4 -78 92 -78h12q47 0 69.5 24.5t22.5 67.5v14q0 90 35 129q33 37 113 37q78 0 108 -76q31 -77 31 -231v-236q-100 -38 -196 -59q-50 -10 -94 -20.5t-85 -20.5q-90 -22 -139 -123q-49 -102 -49 -266q0 -190 57 -297
q56 -108 191 -108q92 0 170 36q76 37 133 125zM496 1521v31q0 33 11 48q5 7 23.5 16t50.5 23q25 12 45.5 29t37.5 40q31 43 31 113q0 76 -41 137q-44 63 -133 63q-76 0 -119 -43q-41 -40 -41 -84q0 -36 17 -56q21 -20 52 -20q28 0 46 21q16 16 16 36q0 17 -10 37
q-9 19 -9 33q0 20 10.5 30t24.5 10q35 0 49 -40q6 -22 9.5 -52.5t3.5 -70.5q0 -65 -10 -102q-9 -36 -44 -55q-34 -16 -55 -36q-17 -20 -17 -65v-43h52z" />
    <glyph glyph-name="atilde" unicode="&#xe3;" horiz-adv-x="1054" 
d="M614 528q0 -186 -61 -333q-60 -146 -160 -146q-70 0 -94 92q-23 97 -23 234q0 174 33 260q16 45 45 62.5t68 39.5q32 21 79.5 34t78 18.5t34.5 5.5v-267zM602 141q16 -71 59 -106q47 -35 156 -35h162v49h-45q-74 0 -96.5 35t-22.5 121v821q0 221 -84 334
q-80 108 -270 108q-158 0 -246 -65q-86 -68 -84 -180q4 -78 92 -78h12q47 0 69.5 24.5t22.5 67.5v14q0 90 35 129q33 37 113 37q78 0 108 -76q31 -77 31 -231v-236q-100 -38 -196 -59q-50 -10 -94 -20.5t-85 -20.5q-90 -22 -139 -123q-49 -102 -49 -266q0 -190 57 -297
q56 -108 191 -108q92 0 170 36q76 37 133 125zM786 1747l-51 25q-14 -46 -41 -72q-22 -23 -55 -23q-51 0 -139 43q-91 45 -150 45q-72 0 -115 -67q-20 -35 -38.5 -74t-34.5 -82l51 -24q18 45 42.5 69.5t55.5 24.5q47 0 137 -45q88 -43 150 -43q74 0 115 67q43 70 73 156z
" />
    <glyph glyph-name="uni1EA1" unicode="&#x1ea1;" horiz-adv-x="1054" 
d="M651 528q0 -186 -61 -333q-60 -146 -160 -146q-70 0 -94 92q-23 97 -23 234q0 174 33 260q16 45 45 62.5t68 39.5q32 21 79.5 34t78 18.5t34.5 5.5v-267zM639 141q16 -71 59 -106q47 -35 156 -35h162v49h-45q-74 0 -96.5 35t-22.5 121v821q0 221 -84 334
q-80 108 -270 108q-158 0 -246 -65q-86 -68 -84 -180q4 -78 92 -78h12q47 0 69.5 24.5t22.5 67.5v14q0 90 35 129q33 37 113 37q78 0 108 -76q31 -77 31 -231v-236q-100 -38 -196 -59q-50 -10 -94 -20.5t-85 -20.5q-90 -22 -139 -123q-49 -102 -49 -266q0 -190 57 -297
q56 -108 191 -108q92 0 170 36q76 37 133 125zM508 -122q-41 0 -73.5 -33t-32.5 -78q0 -47 33 -78q30 -33 75 -33q46 0 76 33q33 31 33 78q0 45 -33 78t-78 33z" />
    <glyph glyph-name="acircumflex" unicode="&#xe2;" horiz-adv-x="1054" 
d="M614 528q0 -186 -61 -333q-60 -146 -160 -146q-70 0 -94 92q-23 97 -23 234q0 174 33 260q16 45 45 62.5t68 39.5q32 21 79.5 34t78 18.5t34.5 5.5v-267zM602 141q16 -71 59 -106q47 -35 156 -35h162v49h-45q-74 0 -96.5 35t-22.5 121v821q0 221 -84 334
q-80 108 -270 108q-158 0 -246 -65q-86 -68 -84 -180q4 -78 92 -78h12q47 0 69.5 24.5t22.5 67.5v14q0 90 35 129q33 37 113 37q78 0 108 -76q31 -77 31 -231v-236q-100 -38 -196 -59q-50 -10 -94 -20.5t-85 -20.5q-90 -22 -139 -123q-49 -102 -49 -266q0 -190 57 -297
q56 -108 191 -108q92 0 170 36q76 37 133 125zM235 1528h117l92 213l94 -213h117l-188 375h-45z" />
    <glyph glyph-name="uni1EA7" unicode="&#x1ea7;" horiz-adv-x="1054" 
d="M614 528q0 -186 -61 -333q-60 -146 -160 -146q-70 0 -94 92q-23 97 -23 234q0 174 33 260q16 45 45 62.5t68 39.5q32 21 79.5 34t78 18.5t34.5 5.5v-267zM602 141q16 -71 59 -106q47 -35 156 -35h162v49h-45q-74 0 -96.5 35t-22.5 121v821q0 221 -84 334
q-80 108 -270 108q-158 0 -246 -65q-86 -68 -84 -180q4 -78 92 -78h12q47 0 69.5 24.5t22.5 67.5v14q0 90 35 129q33 37 113 37q78 0 108 -76q31 -77 31 -231v-236q-100 -38 -196 -59q-50 -10 -94 -20.5t-85 -20.5q-90 -22 -139 -123q-49 -102 -49 -266q0 -190 57 -297
q56 -108 191 -108q92 0 170 36q76 37 133 125zM713 1773q-49 158 -78 242t-37 98q-16 31 -53 31h-92q-74 0 -74 -51v-8q12 -56 280 -312h54zM235 1528h117l92 213l94 -213h117l-188 375h-45z" />
    <glyph glyph-name="uni1EA5" unicode="&#x1ea5;" horiz-adv-x="1054" 
d="M614 528q0 -186 -61 -333q-60 -146 -160 -146q-70 0 -94 92q-23 97 -23 234q0 174 33 260q16 45 45 62.5t68 39.5q32 21 79.5 34t78 18.5t34.5 5.5v-267zM602 141q16 -71 59 -106q47 -35 156 -35h162v49h-45q-74 0 -96.5 35t-22.5 121v821q0 221 -84 334
q-80 108 -270 108q-158 0 -246 -65q-86 -68 -84 -180q4 -78 92 -78h12q47 0 69.5 24.5t22.5 67.5v14q0 90 35 129q33 37 113 37q78 0 108 -76q31 -77 31 -231v-236q-100 -38 -196 -59q-50 -10 -94 -20.5t-85 -20.5q-90 -22 -139 -123q-49 -102 -49 -266q0 -190 57 -297
q56 -108 191 -108q92 0 170 36q76 37 133 125zM582 1752h54q270 258 280 311l2 12q0 41 -70 47h-92q-41 0 -57 -30q-14 -25 -117 -340zM235 1528h117l92 213l94 -213h117l-188 375h-45z" />
    <glyph glyph-name="uni1EA9" unicode="&#x1ea9;" horiz-adv-x="1054" 
d="M651 528q0 -186 -61 -333q-60 -146 -160 -146q-70 0 -94 92q-23 97 -23 234q0 174 33 260q16 45 45 62.5t68 39.5q32 21 79.5 34t78 18.5t34.5 5.5v-267zM639 141q16 -71 59 -106q47 -35 156 -35h162v49h-45q-74 0 -96.5 35t-22.5 121v821q0 221 -84 334
q-80 108 -270 108q-158 0 -246 -65q-86 -68 -84 -180q4 -78 92 -78h12q47 0 69.5 24.5t22.5 67.5v14q0 90 35 129q33 37 113 37q78 0 108 -76q31 -77 31 -231v-236q-100 -38 -196 -59q-50 -10 -94 -20.5t-85 -20.5q-90 -22 -139 -123q-49 -102 -49 -266q0 -190 57 -297
q56 -108 191 -108q92 0 170 36q76 37 133 125zM684 1758v31q0 33 11 48q5 7 23.5 16t50.5 23q25 12 45.5 29t37.5 40q31 43 31 113q0 76 -41 137q-44 63 -133 63q-76 0 -119 -43q-41 -40 -41 -84q0 -36 17 -56q21 -20 52 -20q28 0 46 21q16 16 16 36q0 17 -10 37
q-9 19 -9 33q0 20 10.5 30t24.5 10q35 0 49 -40q6 -22 9.5 -52.5t3.5 -70.5q0 -65 -10 -102q-9 -36 -44 -55q-34 -16 -55 -36q-17 -20 -17 -65v-43h52zM282 1528h117l92 213l94 -213h117l-188 375h-45z" />
    <glyph glyph-name="uni1EAB" unicode="&#x1eab;" horiz-adv-x="1054" 
d="M614 528q0 -186 -61 -333q-60 -146 -160 -146q-70 0 -94 92q-23 97 -23 234q0 174 33 260q16 45 45 62.5t68 39.5q32 21 79.5 34t78 18.5t34.5 5.5v-267zM602 141q16 -71 59 -106q47 -35 156 -35h162v49h-45q-74 0 -96.5 35t-22.5 121v821q0 221 -84 334
q-80 108 -270 108q-158 0 -246 -65q-86 -68 -84 -180q4 -78 92 -78h12q47 0 69.5 24.5t22.5 67.5v14q0 90 35 129q33 37 113 37q78 0 108 -76q31 -77 31 -231v-236q-100 -38 -196 -59q-50 -10 -94 -20.5t-85 -20.5q-90 -22 -139 -123q-49 -102 -49 -266q0 -190 57 -297
q56 -108 191 -108q92 0 170 36q76 37 133 125zM833 2115l-51 25q-14 -46 -41 -72q-22 -23 -55 -23q-51 0 -139 43q-91 45 -150 45q-72 0 -115 -67q-20 -35 -38.5 -74t-34.5 -82l51 -24q18 45 42.5 69.5t55.5 24.5q47 0 137 -45q88 -43 150 -43q74 0 115 67q43 70 73 156z
M235 1528h117l92 213l94 -213h117l-188 375h-45z" />
    <glyph glyph-name="uni1EAD" unicode="&#x1ead;" horiz-adv-x="1054" 
d="M651 528q0 -186 -61 -333q-60 -146 -160 -146q-70 0 -94 92q-23 97 -23 234q0 174 33 260q16 45 45 62.5t68 39.5q32 21 79.5 34t78 18.5t34.5 5.5v-267zM639 141q16 -71 59 -106q47 -35 156 -35h162v49h-45q-74 0 -96.5 35t-22.5 121v821q0 221 -84 334
q-80 108 -270 108q-158 0 -246 -65q-86 -68 -84 -180q4 -78 92 -78h12q47 0 69.5 24.5t22.5 67.5v14q0 90 35 129q33 37 113 37q78 0 108 -76q31 -77 31 -231v-236q-100 -38 -196 -59q-50 -10 -94 -20.5t-85 -20.5q-90 -22 -139 -123q-49 -102 -49 -266q0 -190 57 -297
q56 -108 191 -108q92 0 170 36q76 37 133 125zM508 -122q-41 0 -73.5 -33t-32.5 -78q0 -47 33 -78q30 -33 75 -33q46 0 76 33q33 31 33 78q0 45 -33 78t-78 33zM292 1528h117l92 213l94 -213h117l-188 375h-45z" />
    <glyph glyph-name="abreve" unicode="&#x103;" horiz-adv-x="1054" 
d="M614 528q0 -186 -61 -333q-60 -146 -160 -146q-70 0 -94 92q-23 97 -23 234q0 174 33 260q16 45 45 62.5t68 39.5q32 21 79.5 34t78 18.5t34.5 5.5v-267zM602 141q16 -71 59 -106q47 -35 156 -35h162v49h-45q-74 0 -96.5 35t-22.5 121v821q0 221 -84 334
q-80 108 -270 108q-158 0 -246 -65q-86 -68 -84 -180q4 -78 92 -78h12q47 0 69.5 24.5t22.5 67.5v14q0 90 35 129q33 37 113 37q78 0 108 -76q31 -77 31 -231v-236q-100 -38 -196 -59q-50 -10 -94 -20.5t-85 -20.5q-90 -22 -139 -123q-49 -102 -49 -266q0 -190 57 -297
q56 -108 191 -108q92 0 170 36q76 37 133 125zM456 1575q88 0 155 68q66 69 78 211h-68q-24 -72 -65 -101q-39 -26 -100 -26q-58 0 -99 28q-39 25 -65 99h-68q12 -144 80 -211q64 -68 152 -68z" />
    <glyph glyph-name="uni1EB1" unicode="&#x1eb1;" horiz-adv-x="1054" 
d="M614 528q0 -186 -61 -333q-60 -146 -160 -146q-70 0 -94 92q-23 97 -23 234q0 174 33 260q16 45 45 62.5t68 39.5q32 21 79.5 34t78 18.5t34.5 5.5v-267zM602 141q16 -71 59 -106q47 -35 156 -35h162v49h-45q-74 0 -96.5 35t-22.5 121v821q0 221 -84 334
q-80 108 -270 108q-158 0 -246 -65q-86 -68 -84 -180q4 -78 92 -78h12q47 0 69.5 24.5t22.5 67.5v14q0 90 35 129q33 37 113 37q78 0 108 -76q31 -77 31 -231v-236q-100 -38 -196 -59q-50 -10 -94 -20.5t-85 -20.5q-90 -22 -139 -123q-49 -102 -49 -266q0 -190 57 -297
q56 -108 191 -108q92 0 170 36q76 37 133 125zM543 1829q-49 158 -78 242t-37 98q-16 31 -53 31h-92q-74 0 -74 -51v-8q12 -56 280 -312h54zM456 1575q88 0 155 68q66 69 78 211h-68q-24 -72 -65 -101q-39 -26 -100 -26q-58 0 -99 28q-39 25 -65 99h-68q12 -144 80 -211
q64 -68 152 -68z" />
    <glyph glyph-name="uni1EAF" unicode="&#x1eaf;" horiz-adv-x="1054" 
d="M614 528q0 -186 -61 -333q-60 -146 -160 -146q-70 0 -94 92q-23 97 -23 234q0 174 33 260q16 45 45 62.5t68 39.5q32 21 79.5 34t78 18.5t34.5 5.5v-267zM602 141q16 -71 59 -106q47 -35 156 -35h162v49h-45q-74 0 -96.5 35t-22.5 121v821q0 221 -84 334
q-80 108 -270 108q-158 0 -246 -65q-86 -68 -84 -180q4 -78 92 -78h12q47 0 69.5 24.5t22.5 67.5v14q0 90 35 129q33 37 113 37q78 0 108 -76q31 -77 31 -231v-236q-100 -38 -196 -59q-50 -10 -94 -20.5t-85 -20.5q-90 -22 -139 -123q-49 -102 -49 -266q0 -190 57 -297
q56 -108 191 -108q92 0 170 36q76 37 133 125zM402 1809h54q270 258 280 311l2 12q0 41 -70 47h-92q-41 0 -57 -30q-14 -25 -117 -340zM456 1575q88 0 155 68q66 69 78 211h-68q-24 -72 -65 -101q-39 -26 -100 -26q-58 0 -99 28q-39 25 -65 99h-68q12 -144 80 -211
q64 -68 152 -68z" />
    <glyph glyph-name="uni1EB3" unicode="&#x1eb3;" horiz-adv-x="1054" 
d="M651 528q0 -186 -61 -333q-60 -146 -160 -146q-70 0 -94 92q-23 97 -23 234q0 174 33 260q16 45 45 62.5t68 39.5q32 21 79.5 34t78 18.5t34.5 5.5v-267zM639 141q16 -71 59 -106q47 -35 156 -35h162v49h-45q-74 0 -96.5 35t-22.5 121v821q0 221 -84 334
q-80 108 -270 108q-158 0 -246 -65q-86 -68 -84 -180q4 -78 92 -78h12q47 0 69.5 24.5t22.5 67.5v14q0 90 35 129q33 37 113 37q78 0 108 -76q31 -77 31 -231v-236q-100 -38 -196 -59q-50 -10 -94 -20.5t-85 -20.5q-90 -22 -139 -123q-49 -102 -49 -266q0 -190 57 -297
q56 -108 191 -108q92 0 170 36q76 37 133 125zM524 1814v31q0 33 11 48q5 7 23.5 16t50.5 23q25 12 45.5 29t37.5 40q31 43 31 113q0 76 -41 137q-44 63 -133 63q-76 0 -119 -43q-41 -40 -41 -84q0 -36 17 -56q21 -20 52 -20q28 0 46 21q16 16 16 36q0 17 -10 37
q-9 19 -9 33q0 20 10.5 30t24.5 10q35 0 49 -40q6 -22 9.5 -52.5t3.5 -70.5q0 -65 -10 -102q-9 -36 -44 -55q-34 -16 -55 -36q-17 -20 -17 -65v-43h52zM494 1575q88 0 155 68q66 69 78 211h-68q-24 -72 -65 -101q-39 -26 -100 -26q-58 0 -99 28q-39 25 -65 99h-68
q12 -144 80 -211q63 -68 152 -68z" />
    <glyph glyph-name="uni1EB5" unicode="&#x1eb5;" horiz-adv-x="1054" 
d="M614 528q0 -186 -61 -333q-60 -146 -160 -146q-70 0 -94 92q-23 97 -23 234q0 174 33 260q16 45 45 62.5t68 39.5q32 21 79.5 34t78 18.5t34.5 5.5v-267zM602 141q16 -71 59 -106q47 -35 156 -35h162v49h-45q-74 0 -96.5 35t-22.5 121v821q0 221 -84 334
q-80 108 -270 108q-158 0 -246 -65q-86 -68 -84 -180q4 -78 92 -78h12q47 0 69.5 24.5t22.5 67.5v14q0 90 35 129q33 37 113 37q78 0 108 -76q31 -77 31 -231v-236q-100 -38 -196 -59q-50 -10 -94 -20.5t-85 -20.5q-90 -22 -139 -123q-49 -102 -49 -266q0 -190 57 -297
q56 -108 191 -108q92 0 170 36q76 37 133 125zM833 2115l-51 25q-14 -46 -41 -72q-22 -23 -55 -23q-51 0 -139 43q-91 45 -150 45q-72 0 -115 -67q-20 -35 -38.5 -74t-34.5 -82l51 -24q18 45 42.5 69.5t55.5 24.5q47 0 137 -45q88 -43 150 -43q74 0 115 67q43 70 73 156z
M456 1575q88 0 155 68q66 69 78 211h-68q-24 -72 -65 -101q-39 -26 -100 -26q-58 0 -99 28q-39 25 -65 99h-68q12 -144 80 -211q64 -68 152 -68z" />
    <glyph glyph-name="uni1EB7" unicode="&#x1eb7;" horiz-adv-x="1054" 
d="M651 528q0 -186 -61 -333q-60 -146 -160 -146q-70 0 -94 92q-23 97 -23 234q0 174 33 260q16 45 45 62.5t68 39.5q32 21 79.5 34t78 18.5t34.5 5.5v-267zM639 141q16 -71 59 -106q47 -35 156 -35h162v49h-45q-74 0 -96.5 35t-22.5 121v821q0 221 -84 334
q-80 108 -270 108q-158 0 -246 -65q-86 -68 -84 -180q4 -78 92 -78h12q47 0 69.5 24.5t22.5 67.5v14q0 90 35 129q33 37 113 37q78 0 108 -76q31 -77 31 -231v-236q-100 -38 -196 -59q-50 -10 -94 -20.5t-85 -20.5q-90 -22 -139 -123q-49 -102 -49 -266q0 -190 57 -297
q56 -108 191 -108q92 0 170 36q76 37 133 125zM508 -122q-41 0 -73.5 -33t-32.5 -78q0 -47 33 -78q30 -33 75 -33q46 0 76 33q33 31 33 78q0 45 -33 78t-78 33zM495 1575q88 0 155 68q66 69 78 211h-68q-24 -72 -65 -101q-39 -26 -100 -26q-58 0 -99 28q-39 25 -65 99h-68
q12 -144 80 -211q63 -68 152 -68z" />
    <glyph glyph-name="egrave" unicode="&#xe8;" horiz-adv-x="1003" 
d="M950 512l-53 18q-17 -86 -43.5 -166.5t-65.5 -162.5q-78 -160 -197 -160q-141 0 -198 186q-60 189 -60 508v49h615l4 33q0 279 -112.5 465t-288.5 186q-201 0 -326 -211q-123 -213 -123 -536q0 -330 115 -537q112 -204 315 -204q156 0 254 126q96 127 164 406zM333 842
q7 254 45 399q48 170 148 170q92 0 139 -145q45 -142 45 -389v-35h-377zM581 1520q-100 311 -117 340q-16 30 -51 30h-92q-74 0 -74 -51v-8q11 -53 281 -311h53z" />
    <glyph glyph-name="eacute" unicode="&#xe9;" horiz-adv-x="1003" 
d="M950 512l-53 18q-17 -86 -43.5 -166.5t-65.5 -162.5q-78 -160 -197 -160q-141 0 -198 186q-60 189 -60 508v49h615l4 33q0 279 -112.5 465t-288.5 186q-201 0 -326 -211q-123 -213 -123 -536q0 -330 115 -537q112 -204 315 -204q156 0 254 126q96 127 164 406zM333 842
q7 254 45 399q48 170 148 170q92 0 139 -145q45 -142 45 -389v-35h-377zM475 1505h53q272 260 281 312l2 12q0 41 -70 47h-92q-41 0 -58 -31q-16 -33 -116 -340z" />
    <glyph glyph-name="uni1EBB" unicode="&#x1ebb;" horiz-adv-x="1003" 
d="M950 512l-53 18q-17 -86 -43.5 -166.5t-65.5 -162.5q-78 -160 -197 -160q-141 0 -198 186q-60 189 -60 508v49h615l4 33q0 279 -112.5 465t-288.5 186q-201 0 -326 -211q-123 -213 -123 -536q0 -330 115 -537q112 -204 315 -204q156 0 254 126q96 127 164 406zM333 842
q7 254 45 399q48 170 148 170q92 0 139 -145q45 -142 45 -389v-35h-377zM532 1521v31q0 33 12 48q5 7 23.5 16t49.5 23q26 12 46.5 29t36.5 40q31 43 31 113q0 76 -41 137q-44 63 -133 63q-76 0 -119 -43q-41 -40 -41 -84q0 -36 18 -56q20 -20 51 -20q29 0 47 21
q15 16 15 36q0 17 -10 37q-9 19 -9 33q0 20 11 30t24 10q36 0 49 -40q6 -22 9.5 -52.5t3.5 -70.5q0 -65 -10 -102q-8 -36 -43 -55q-35 -16 -55 -36q-18 -20 -18 -65v-43h52z" />
    <glyph glyph-name="uni1EBD" unicode="&#x1ebd;" horiz-adv-x="1003" 
d="M950 512l-53 18q-17 -86 -43.5 -166.5t-65.5 -162.5q-78 -160 -197 -160q-141 0 -198 186q-60 189 -60 508v49h615l4 33q0 279 -112.5 465t-288.5 186q-201 0 -326 -211q-123 -213 -123 -536q0 -330 115 -537q112 -204 315 -204q156 0 254 126q96 127 164 406zM333 842
q7 254 45 399q48 170 148 170q92 0 139 -145q45 -142 45 -389v-35h-377zM899 1747l-51 25q-15 -46 -41 -72q-23 -23 -56 -23q-51 0 -139 43q-90 45 -149 45q-72 0 -115 -67q-21 -35 -39 -74t-35 -82l51 -24q19 45 43.5 69.5t55.5 24.5q47 0 137 -45q88 -43 149 -43
q74 0 115 67q43 70 74 156z" />
    <glyph glyph-name="uni1EB9" unicode="&#x1eb9;" horiz-adv-x="1003" 
d="M950 512l-53 18q-17 -86 -43.5 -166.5t-65.5 -162.5q-78 -160 -197 -160q-141 0 -198 186q-60 189 -60 508v49h615l4 33q0 279 -112.5 465t-288.5 186q-201 0 -326 -211q-123 -213 -123 -536q0 -330 115 -537q112 -204 315 -204q156 0 254 126q96 127 164 406zM333 842
q7 254 45 399q48 170 148 170q92 0 139 -145q45 -142 45 -389v-35h-377zM527 -122q-41 0 -73.5 -33t-32.5 -78q0 -47 32 -78q31 -33 76 -33t76 33q33 31 33 78q0 45 -33 78t-78 33z" />
    <glyph glyph-name="ecircumflex" unicode="&#xea;" horiz-adv-x="1003" 
d="M950 512l-53 18q-17 -86 -43.5 -166.5t-65.5 -162.5q-78 -160 -197 -160q-141 0 -198 186q-60 189 -60 508v49h615l4 33q0 279 -112.5 465t-288.5 186q-201 0 -326 -211q-123 -213 -123 -536q0 -330 115 -537q112 -204 315 -204q156 0 254 126q96 127 164 406zM333 842
q7 254 45 399q48 170 148 170q92 0 139 -145q45 -142 45 -389v-35h-377zM321 1516h116l93 213l94 -213h116l-188 374h-45z" />
    <glyph glyph-name="uni1EC1" unicode="&#x1ec1;" horiz-adv-x="1003" 
d="M950 512l-53 18q-17 -86 -43.5 -166.5t-65.5 -162.5q-78 -160 -197 -160q-141 0 -198 186q-60 189 -60 508v49h615l4 33q0 279 -112.5 465t-288.5 186q-201 0 -326 -211q-123 -213 -123 -536q0 -330 115 -537q112 -204 315 -204q156 0 254 126q96 127 164 406zM333 842
q7 254 45 399q48 170 148 170q92 0 139 -145q45 -142 45 -389v-35h-377zM798 1738q-100 311 -117 340q-16 30 -51 30h-92q-74 0 -74 -51v-8q11 -53 281 -311h53zM321 1516h116l93 213l94 -213h116l-188 374h-45z" />
    <glyph glyph-name="uni1EBF" unicode="&#x1ebf;" horiz-adv-x="1003" 
d="M950 512l-53 18q-17 -86 -43.5 -166.5t-65.5 -162.5q-78 -160 -197 -160q-141 0 -198 186q-60 189 -60 508v49h615l4 33q0 279 -112.5 465t-288.5 186q-201 0 -326 -211q-123 -213 -123 -536q0 -330 115 -537q112 -204 315 -204q156 0 254 126q96 127 164 406zM333 842
q7 254 45 399q48 170 148 170q92 0 139 -145q45 -142 45 -389v-35h-377zM654 1751h53q272 260 281 312l2 12q0 41 -70 47h-92q-41 0 -58 -31q-16 -33 -116 -340zM321 1516h116l93 213l94 -213h116l-188 374h-45z" />
    <glyph glyph-name="uni1EC3" unicode="&#x1ec3;" horiz-adv-x="1003" 
d="M950 512l-53 18q-17 -86 -43.5 -166.5t-65.5 -162.5q-78 -160 -197 -160q-141 0 -198 186q-60 189 -60 508v49h615l4 33q0 279 -112.5 465t-288.5 186q-201 0 -326 -211q-123 -213 -123 -536q0 -330 115 -537q112 -204 315 -204q156 0 254 126q96 127 164 406zM333 842
q7 254 45 399q48 170 148 170q92 0 139 -145q45 -142 45 -389v-35h-377zM721 1710v31q0 33 12 48q5 7 23.5 16t49.5 23q26 12 46.5 29t36.5 40q31 43 31 113q0 76 -41 137q-44 63 -133 63q-76 0 -119 -43q-41 -40 -41 -84q0 -36 18 -56q20 -20 51 -20q29 0 47 21
q15 16 15 36q0 17 -10 37q-9 19 -9 33q0 20 11 30t24 10q36 0 49 -40q6 -22 9.5 -52.5t3.5 -70.5q0 -65 -10 -102q-8 -36 -43 -55q-35 -16 -55 -36q-18 -20 -18 -65v-43h52zM320 1516h117l92 213l94 -213h117l-188 374h-45z" />
    <glyph glyph-name="uni1EC5" unicode="&#x1ec5;" horiz-adv-x="1003" 
d="M950 512l-53 18q-17 -86 -43.5 -166.5t-65.5 -162.5q-78 -160 -197 -160q-141 0 -198 186q-60 189 -60 508v49h615l4 33q0 279 -112.5 465t-288.5 186q-201 0 -326 -211q-123 -213 -123 -536q0 -330 115 -537q112 -204 315 -204q156 0 254 126q96 127 164 406zM333 842
q7 254 45 399q48 170 148 170q92 0 139 -145q45 -142 45 -389v-35h-377zM946 2096l-51 25q-15 -46 -41 -72q-23 -23 -56 -23q-51 0 -139 43q-90 45 -149 45q-72 0 -115 -67q-21 -35 -39 -74t-35 -82l51 -24q19 45 43.5 69.5t55.5 24.5q47 0 137 -45q88 -43 149 -43
q74 0 115 67q43 70 74 156zM320 1516h117l92 213l94 -213h117l-188 374h-45z" />
    <glyph glyph-name="uni1EC7" unicode="&#x1ec7;" horiz-adv-x="1003" 
d="M950 512l-53 18q-17 -86 -43.5 -166.5t-65.5 -162.5q-78 -160 -197 -160q-141 0 -198 186q-60 189 -60 508v49h615l4 33q0 279 -112.5 465t-288.5 186q-201 0 -326 -211q-123 -213 -123 -536q0 -330 115 -537q112 -204 315 -204q156 0 254 126q96 127 164 406zM333 842
q7 254 45 399q48 170 148 170q92 0 139 -145q45 -142 45 -389v-35h-377zM527 -122q-41 0 -73.5 -33t-32.5 -78q0 -47 32 -78q31 -33 76 -33t76 33q33 31 33 78q0 45 -33 78t-78 33zM320 1516h117l92 213l94 -213h117l-188 374h-45z" />
    <glyph glyph-name="igrave" unicode="&#xec;" horiz-adv-x="641" 
d="M430 51v1395l-381 -6v-49h176v-1342h-176v-49h545v51h-164zM426 1526q-98 311 -115 340q-16 30 -53 30h-92q-74 0 -74 -51v-8q12 -55 281 -311h53z" />
    <glyph glyph-name="iacute" unicode="&#xed;" horiz-adv-x="641" 
d="M430 51v1395l-381 -6v-49h176v-1342h-176v-49h545v51h-164zM256 1509h53q275 263 281 312l2 12q0 41 -70 47h-92q-39 0 -57 -31q-17 -28 -117 -340z" />
    <glyph glyph-name="uni1EC9" unicode="&#x1ec9;" horiz-adv-x="641" 
d="M430 51v1395l-381 -6v-49h176v-1342h-176v-49h545v51h-164zM316 1521v31q0 33 11 48q5 7 23.5 16t50.5 23q25 12 45.5 29t36.5 40q32 43 32 113q0 76 -42 137q-43 63 -132 63q-76 0 -120 -43q-40 -40 -40 -84q0 -36 17 -56q21 -20 52 -20q28 0 46 21q16 16 16 36
q0 17 -10 37q-9 19 -9 33q0 20 10.5 30t24.5 10q35 0 49 -40q6 -22 9.5 -52.5t3.5 -70.5q0 -65 -10 -102q-9 -36 -44 -55q-35 -16 -55 -36q-17 -20 -17 -65v-43h52z" />
    <glyph glyph-name="itilde" unicode="&#x129;" horiz-adv-x="641" 
d="M430 51v1395l-380 -6v-49h176v-1342h-176v-49h544v51h-164zM654 1747l-52 25q-14 -46 -41 -72q-22 -23 -55 -23q-51 0 -139 43q-90 45 -150 45q-71 0 -114 -67q-21 -35 -39.5 -74t-34.5 -82l51 -24q19 45 43.5 69.5t55.5 24.5q47 0 137 -45q88 -43 149 -43q74 0 115 67
q43 70 74 156z" />
    <glyph glyph-name="uni1ECB" unicode="&#x1ecb;" horiz-adv-x="641" 
d="M199 1763q0 -47 36 -84q35 -34 84 -34t86 36q35 35 35 84q0 47 -37 84q-35 35 -84 35t-86 -37q-34 -35 -34 -84zM430 51v1395l-381 -6v-49h176v-1342h-176v-49h545v51h-164zM329 -122q-41 0 -73.5 -33t-32.5 -78q0 -47 33 -78q30 -33 75 -33t76 33q33 31 33 78
q0 45 -33 78t-78 33z" />
    <glyph glyph-name="ograve" unicode="&#xf2;" horiz-adv-x="1087" 
d="M983 725q0 322 -119 532.5t-316 210.5q-194 0 -319 -211q-125 -215 -125 -532q0 -322 119 -532.5t313 -210.5q195 0 320 211q127 213 127 532zM749 690q0 -309 -43 -483t-164 -174t-164 174q-20 88 -30.5 208t-10.5 275v70q0 307 43 483q39 174 162 174q121 0 164 -174
q43 -176 43 -483v-70zM610 1520q-51 157 -79 241t-36 99q-16 30 -53 30h-92q-74 0 -74 -51v-8q10 -53 281 -311h53z" />
    <glyph glyph-name="oacute" unicode="&#xf3;" horiz-adv-x="1087" 
d="M983 725q0 322 -119 532.5t-316 210.5q-194 0 -319 -211q-125 -215 -125 -532q0 -322 119 -532.5t313 -210.5q195 0 320 211q127 213 127 532zM749 690q0 -309 -43 -483t-164 -174t-164 174q-20 88 -30.5 208t-10.5 275v70q0 307 43 483q39 174 162 174q121 0 164 -174
q43 -176 43 -483v-70zM419 1520h54q270 258 280 311l2 12q0 41 -69 47h-93q-43 0 -57 -30q-18 -29 -117 -340z" />
    <glyph glyph-name="uni1ECF" unicode="&#x1ecf;" horiz-adv-x="1087" 
d="M983 725q0 322 -119 532.5t-316 210.5q-194 0 -319 -211q-125 -215 -125 -532q0 -322 119 -532.5t313 -210.5q195 0 320 211q127 213 127 532zM749 690q0 -309 -43 -483t-164 -174t-164 174q-20 88 -30.5 208t-10.5 275v70q0 307 43 483q39 174 162 174q121 0 164 -174
q43 -176 43 -483v-70zM561 1521v31q0 33 12 48q5 7 23.5 16t49.5 23q26 12 46.5 29t36.5 40q31 43 31 113q0 76 -41 137q-44 63 -133 63q-76 0 -119 -43q-41 -40 -41 -84q0 -36 18 -56q20 -20 51 -20q29 0 47 21q15 16 15 36q0 17 -10 37q-9 19 -9 33q0 20 11 30t24 10
q36 0 49 -40q6 -22 9.5 -52.5t3.5 -70.5q0 -65 -10 -102q-8 -36 -43 -55q-35 -16 -55 -36q-18 -20 -18 -65v-43h52z" />
    <glyph glyph-name="otilde" unicode="&#xf5;" horiz-adv-x="1087" 
d="M983 725q0 322 -119 532.5t-316 210.5q-194 0 -319 -211q-125 -215 -125 -532q0 -322 119 -532.5t313 -210.5q195 0 320 211q127 213 127 532zM749 690q0 -309 -43 -483t-164 -174t-164 174q-20 88 -30.5 208t-10.5 275v70q0 307 43 483q39 174 162 174q121 0 164 -174
q43 -176 43 -483v-70zM858 1741l-52 24q-16 -47 -40 -69q-25 -25 -56 -25q-51 0 -139 45q-86 43 -150 43q-71 0 -114 -67q-41 -70 -74 -156l51 -25q19 48 43 72q27 23 56 23q51 0 137 -43q88 -45 149 -45q74 0 115 67q43 70 74 156z" />
    <glyph glyph-name="uni1ECD" unicode="&#x1ecd;" horiz-adv-x="1087" 
d="M983 725q0 322 -119 532.5t-316 210.5q-194 0 -319 -211q-125 -215 -125 -532q0 -322 119 -532.5t313 -210.5q195 0 320 211q127 213 127 532zM749 690q0 -309 -43 -483t-164 -174t-164 174q-20 88 -30.5 208t-10.5 275v70q0 307 43 483q39 174 162 174q121 0 164 -174
q43 -176 43 -483v-70zM541 -122q-41 0 -73.5 -33t-32.5 -78q0 -47 33 -78q30 -33 75 -33t76 33q33 31 33 78q0 45 -33 78t-78 33z" />
    <glyph glyph-name="ocircumflex" unicode="&#xf4;" horiz-adv-x="1087" 
d="M983 725q0 322 -119 532.5t-316 210.5q-194 0 -319 -211q-125 -215 -125 -532q0 -322 119 -532.5t313 -210.5q195 0 320 211q127 213 127 532zM749 690q0 -309 -43 -483t-164 -174t-164 174q-20 88 -30.5 208t-10.5 275v70q0 307 43 483q39 174 162 174q121 0 164 -174
q43 -176 43 -483v-70zM325 1538h117l92 213l94 -213h117l-188 375h-45z" />
    <glyph glyph-name="uni1ED3" unicode="&#x1ed3;" horiz-adv-x="1087" 
d="M983 725q0 322 -119 532.5t-316 210.5q-194 0 -319 -211q-125 -215 -125 -532q0 -322 119 -532.5t313 -210.5q195 0 320 211q127 213 127 532zM749 690q0 -309 -43 -483t-164 -174t-164 174q-20 88 -30.5 208t-10.5 275v70q0 307 43 483q39 174 162 174q121 0 164 -174
q43 -176 43 -483v-70zM789 1776q-51 157 -79 241t-36 99q-16 30 -53 30h-92q-74 0 -74 -51v-8q10 -53 281 -311h53zM326 1538h116l93 213l94 -213h116l-188 375h-45z" />
    <glyph glyph-name="uni1ED1" unicode="&#x1ed1;" horiz-adv-x="1087" 
d="M983 725q0 322 -119 532.5t-316 210.5q-194 0 -319 -211q-125 -215 -125 -532q0 -322 119 -532.5t313 -210.5q195 0 320 211q127 213 127 532zM749 690q0 -309 -43 -483t-164 -174t-164 174q-20 88 -30.5 208t-10.5 275v70q0 307 43 483q39 174 162 174q121 0 164 -174
q43 -176 43 -483v-70zM693 1737h54q270 258 280 311l2 12q0 41 -69 47h-93q-43 0 -57 -30q-18 -29 -117 -340zM326 1538h116l93 213l94 -213h116l-188 375h-45z" />
    <glyph glyph-name="uni1ED5" unicode="&#x1ed5;" horiz-adv-x="1087" 
d="M983 725q0 322 -119 532.5t-316 210.5q-194 0 -319 -211q-125 -215 -125 -532q0 -322 119 -532.5t313 -210.5q195 0 320 211q127 213 127 532zM749 690q0 -309 -43 -483t-164 -174t-164 174q-20 88 -30.5 208t-10.5 275v70q0 307 43 483q39 174 162 174q121 0 164 -174
q43 -176 43 -483v-70zM731 1747v31q0 33 12 48q5 7 23.5 16t49.5 23q26 12 46.5 29t36.5 40q31 43 31 113q0 76 -41 137q-44 63 -133 63q-76 0 -119 -43q-41 -40 -41 -84q0 -36 18 -56q20 -20 51 -20q29 0 47 21q15 16 15 36q0 17 -10 37q-9 19 -9 33q0 20 11 30t24 10
q36 0 49 -40q6 -22 9.5 -52.5t3.5 -70.5q0 -65 -10 -102q-8 -36 -43 -55q-35 -16 -55 -36q-18 -20 -18 -65v-43h52zM326 1538h116l93 213l94 -213h116l-188 375h-45z" />
    <glyph glyph-name="uni1ED7" unicode="&#x1ed7;" horiz-adv-x="1087" 
d="M983 725q0 322 -119 532.5t-316 210.5q-194 0 -319 -211q-125 -215 -125 -532q0 -322 119 -532.5t313 -210.5q195 0 320 211q127 213 127 532zM749 690q0 -309 -43 -483t-164 -174t-164 174q-20 88 -30.5 208t-10.5 275v70q0 307 43 483q39 174 162 174q121 0 164 -174
q43 -176 43 -483v-70zM953 2147l-52 24q-16 -47 -40 -69q-25 -25 -56 -25q-51 0 -139 45q-86 43 -150 43q-71 0 -114 -67q-41 -70 -74 -156l51 -25q19 48 43 72q27 23 56 23q51 0 137 -43q88 -45 149 -45q74 0 115 67q43 70 74 156zM326 1538h116l93 213l94 -213h116
l-188 375h-45z" />
    <glyph glyph-name="uni1ED9" unicode="&#x1ed9;" horiz-adv-x="1087" 
d="M983 725q0 322 -119 532.5t-316 210.5q-194 0 -319 -211q-125 -215 -125 -532q0 -322 119 -532.5t313 -210.5q195 0 320 211q127 213 127 532zM749 690q0 -309 -43 -483t-164 -174t-164 174q-20 88 -30.5 208t-10.5 275v70q0 307 43 483q39 174 162 174q121 0 164 -174
q43 -176 43 -483v-70zM541 -122q-41 0 -73.5 -33t-32.5 -78q0 -47 33 -78q30 -33 75 -33t76 33q33 31 33 78q0 45 -33 78t-78 33zM326 1538h116l93 213l94 -213h116l-188 375h-45z" />
    <glyph glyph-name="glyph216" unicode="&#xf9;" horiz-adv-x="1218" 
d="M1001 1448l-390 -8v-49h183l4 -320v-485q0 -234 -72 -389q-72 -152 -182 -152q-90 0 -119 127q-12 64 -19.5 154t-7.5 206v723l2 193l-360 -8v-49h156l4 -320v-600q0 -227 67 -358q66 -133 199 -133q106 0 190 51q86 53 138 145l4 -184l377 8v51h-174v1397zM636 1493
q-100 311 -117 340q-16 31 -51 31h-92q-74 0 -74 -52v-8q10 -53 281 -311h53z" />
    <glyph glyph-name="glyph217" unicode="&#xfa;" horiz-adv-x="1218" 
d="M1001 1448l-390 -8v-49h183l4 -320v-485q0 -234 -72 -389q-72 -152 -182 -152q-90 0 -119 127q-12 64 -19.5 154t-7.5 206v723l2 193l-360 -8v-49h156l4 -320v-600q0 -227 67 -358q66 -133 199 -133q106 0 190 51q86 53 138 145l4 -184l377 8v51h-174v1397zM486 1532h54
q272 260 280 311l2 12q0 41 -69 48h-92q-41 0 -58 -31q-16 -33 -117 -340z" />
    <glyph glyph-name="uni1EE7" unicode="&#x1ee7;" horiz-adv-x="1218" 
d="M1001 1448l-390 -8v-49h183l4 -320v-485q0 -234 -72 -389q-72 -152 -182 -152q-90 0 -119 127q-12 64 -19.5 154t-7.5 206v723l2 193l-360 -8v-49h156l4 -320v-600q0 -227 67 -358q66 -133 199 -133q106 0 190 51q86 53 138 145l4 -184l377 8v51h-174v1397zM560 1521v31
q0 33 12 48q5 7 23.5 16t49.5 23q26 12 46.5 29t36.5 40q31 43 31 113q0 76 -41 137q-44 63 -133 63q-76 0 -119 -43q-41 -40 -41 -84q0 -36 18 -56q20 -20 51 -20q29 0 47 21q15 16 15 36q0 17 -10 37q-9 19 -9 33q0 20 11 30t24 10q36 0 49 -40q6 -22 9.5 -52.5t3.5 -70.5
q0 -65 -10 -102q-8 -36 -43 -55q-35 -16 -55 -36q-18 -20 -18 -65v-43h52z" />
    <glyph glyph-name="utilde" unicode="&#x169;" horiz-adv-x="1218" 
d="M1001 1448l-390 -8v-49h183l4 -320v-485q0 -234 -72 -389q-72 -152 -182 -152q-90 0 -119 127q-12 64 -19.5 154t-7.5 206v723l2 193l-360 -8v-49h156l4 -320v-600q0 -227 67 -358q66 -133 199 -133q106 0 190 51q86 53 138 145l4 -184l377 8v51h-174v1397zM923 1760
l-51 24q-17 -47 -41 -69q-25 -25 -56 -25q-51 0 -139 45q-86 43 -150 43q-71 0 -114 -67q-41 -70 -74 -156l51 -25q19 48 43 72q27 23 56 23q51 0 137 -43q88 -45 149 -45q74 0 115 67q43 70 74 156z" />
    <glyph glyph-name="uni1EE5" unicode="&#x1ee5;" horiz-adv-x="1218" 
d="M1001 1448l-390 -8v-49h183l4 -320v-485q0 -234 -72 -389q-72 -152 -182 -152q-90 0 -119 127q-12 64 -19.5 154t-7.5 206v723l2 193l-360 -8v-49h156l4 -320v-600q0 -227 67 -358q66 -133 199 -133q106 0 190 51q86 53 138 145l4 -184l377 8v51h-174v1397zM615 -122
q-41 0 -73.5 -33t-32.5 -78q0 -47 33 -78q30 -33 75 -33t76 33q33 31 33 78q0 45 -33 78t-78 33z" />
    <glyph glyph-name="uhorn" unicode="&#x1b0;" horiz-adv-x="1218" 
d="M1001 1448l-390 -8v-49h183l4 -320v-485q0 -234 -72 -389q-72 -152 -182 -152q-90 0 -119 127q-12 64 -19.5 154t-7.5 206v723l2 193l-360 -8v-49h156l4 -320v-600q0 -227 67 -358q66 -133 199 -133q106 0 190 51q86 53 138 145l4 -184l377 8v51h-174v1397zM1023 1712
q-44 0 -80 -33q-33 -32 -33 -86q0 -42 34 -69q33 -27 77 -27q20 0 39.5 11.5t25.5 19.5q4 -17 4 -30q0 -44 -30 -104q-39 -85 -152 -160l23 -34q101 53 166.5 143t65.5 190q0 83 -41 130q-39 49 -99 49z" />
    <glyph glyph-name="uni1EEB" unicode="&#x1eeb;" horiz-adv-x="1218" 
d="M636 1493q-100 311 -117 340q-16 31 -51 31h-92q-74 0 -74 -52v-8q10 -53 281 -311h53zM1099 1343q65 90 65 190q0 83 -41 130q-39 49 -99 49q-44 0 -80 -33q-33 -32 -33 -86q0 -42 34 -69q33 -27 77 -27q20 0 39.5 11.5t25.5 19.5q3 -17 3 -30q0 -44 -29 -104
q-20 -44 -60 -85v139l-389 -8v-49h183l4 -320v-485q0 -234 -72 -389q-72 -152 -182 -152q-90 0 -119 127q-12 64 -19.5 154t-7.5 206v723l2 193l-360 -8v-49h156l4 -320v-600q0 -227 67 -358q66 -133 199 -133q106 0 190 51q86 53 138 145l4 -184l377 8v51h-175v1193
q56 42 98 99z" />
    <glyph glyph-name="uni1EE9" unicode="&#x1ee9;" horiz-adv-x="1218" 
d="M486 1532h54q272 260 280 311l2 12q0 41 -69 48h-92q-41 0 -58 -31q-16 -33 -117 -340zM1099 1343q65 90 65 190q0 83 -41 130q-39 49 -99 49q-44 0 -80 -33q-33 -32 -33 -86q0 -42 34 -69q33 -27 77 -27q20 0 39.5 11.5t25.5 19.5q3 -17 3 -30q0 -44 -29 -104
q-20 -44 -60 -85v139l-389 -8v-49h183l4 -320v-485q0 -234 -72 -389q-72 -152 -182 -152q-90 0 -119 127q-12 64 -19.5 154t-7.5 206v723l2 193l-360 -8v-49h156l4 -320v-600q0 -227 67 -358q66 -133 199 -133q106 0 190 51q86 53 138 145l4 -184l377 8v51h-175v1193
q56 42 98 99z" />
    <glyph glyph-name="uni1EED" unicode="&#x1eed;" horiz-adv-x="1218" 
d="M560 1521v31q0 33 12 48q5 7 23.5 16t49.5 23q26 12 46.5 29t36.5 40q31 43 31 113q0 76 -41 137q-44 63 -133 63q-76 0 -119 -43q-41 -40 -41 -84q0 -36 18 -56q20 -20 51 -20q29 0 47 21q15 16 15 36q0 17 -10 37q-9 19 -9 33q0 20 11 30t24 10q36 0 49 -40
q6 -22 9.5 -52.5t3.5 -70.5q0 -65 -10 -102q-8 -36 -43 -55q-35 -16 -55 -36q-18 -20 -18 -65v-43h52zM1098 1343q65 90 65 190q0 83 -41 130q-39 49 -99 49q-44 0 -80 -33q-33 -32 -33 -86q0 -42 34 -69q33 -27 77 -27q20 0 39.5 11.5t25.5 19.5q3 -17 3 -30
q0 -44 -29 -104q-20 -44 -60 -85v139l-389 -8v-49h183l4 -320v-485q0 -234 -72 -389q-72 -152 -182 -152q-90 0 -119 127q-12 64 -19.5 154t-7.5 206v723l2 193l-360 -8v-49h156l4 -320v-600q0 -227 67 -358q66 -133 199 -133q106 0 190 51q86 53 138 145l4 -184l377 8v51
h-175v1193q56 42 98 99z" />
    <glyph glyph-name="uni1EEF" unicode="&#x1eef;" horiz-adv-x="1218" 
d="M923 1760l-52 24q-16 -47 -40 -69q-25 -25 -56 -25q-51 0 -139 45q-86 43 -150 43q-71 0 -114 -67q-41 -70 -74 -156l51 -25q19 48 43 72q27 23 56 23q51 0 137 -43q88 -45 149 -45q74 0 115 67q43 70 74 156zM1098 1343q65 90 65 190q0 83 -41 130q-39 49 -99 49
q-44 0 -80 -33q-33 -32 -33 -86q0 -42 34 -69q33 -27 77 -27q20 0 39.5 11.5t25.5 19.5q3 -17 3 -30q0 -44 -29 -104q-20 -44 -60 -85v139l-389 -8v-49h183l4 -320v-485q0 -234 -72 -389q-72 -152 -182 -152q-90 0 -119 127q-12 64 -19.5 154t-7.5 206v723l2 193l-360 -8
v-49h156l4 -320v-600q0 -227 67 -358q66 -133 199 -133q106 0 190 51q86 53 138 145l4 -184l377 8v51h-175v1193q56 42 98 99z" />
    <glyph glyph-name="uni1EF1" unicode="&#x1ef1;" horiz-adv-x="1218" 
d="M615 -122q-41 0 -73.5 -33t-32.5 -78q0 -47 33 -78q30 -33 75 -33t76 33q33 31 33 78q0 45 -33 78t-78 33zM1098 1343q65 90 65 190q0 83 -41 130q-39 49 -99 49q-44 0 -80 -33q-33 -32 -33 -86q0 -42 34 -69q33 -27 77 -27q20 0 39.5 11.5t25.5 19.5q3 -17 3 -30
q0 -44 -29 -104q-20 -44 -60 -85v139l-389 -8v-49h183l4 -320v-485q0 -234 -72 -389q-72 -152 -182 -152q-90 0 -119 127q-12 64 -19.5 154t-7.5 206v723l2 193l-360 -8v-49h156l4 -320v-600q0 -227 67 -358q66 -133 199 -133q106 0 190 51q86 53 138 145l4 -184l377 8v51
h-175v1193q56 42 98 99z" />
    <glyph glyph-name="ohorn" unicode="&#x1a1;" horiz-adv-x="1087" 
d="M749 690q0 -309 -43 -483t-164 -174t-164 174q-20 88 -30.5 208t-10.5 275v70q0 307 43 483q39 174 162 174q121 0 164 -174q43 -176 43 -483v-70zM921 1343q65 90 65 190q0 83 -41 130q-39 49 -99 49q-44 0 -80 -33q-33 -32 -33 -86q0 -42 34 -69q33 -27 77 -27
q20 0 39.5 11.5t25.5 19.5q3 -17 3 -30q0 -44 -29 -104q-19 -41 -55 -80q-112 154 -280 154q-194 0 -319 -211q-125 -215 -125 -532q0 -322 119 -532.5t313 -210.5q195 0 320 211q127 213 127 532q0 322 -119 533q-4 6 -8 13q36 32 65 72z" />
    <glyph glyph-name="uni1EDD" unicode="&#x1edd;" horiz-adv-x="1087" 
d="M749 690q0 -309 -43 -483t-164 -174t-164 174q-20 88 -30.5 208t-10.5 275v70q0 307 43 483q39 174 162 174q121 0 164 -174q43 -176 43 -483v-70zM610 1520q-51 157 -79 241t-36 99q-16 30 -53 30h-92q-74 0 -74 -51v-8q10 -53 281 -311h53zM921 1343q65 90 65 190
q0 83 -41 130q-39 49 -99 49q-44 0 -80 -33q-33 -32 -33 -86q0 -42 34 -69q33 -27 77 -27q20 0 39.5 11.5t25.5 19.5q3 -17 3 -30q0 -44 -29 -104q-19 -41 -55 -80q-112 154 -280 154q-194 0 -319 -211q-125 -215 -125 -532q0 -322 119 -532.5t313 -210.5q195 0 320 211
q127 213 127 532q0 322 -119 533q-4 6 -8 13q36 32 65 72z" />
    <glyph glyph-name="uni1EDB" unicode="&#x1edb;" horiz-adv-x="1087" 
d="M749 690q0 -309 -43 -483t-164 -174t-164 174q-20 88 -30.5 208t-10.5 275v70q0 307 43 483q39 174 162 174q121 0 164 -174q43 -176 43 -483v-70zM419 1520h54q270 258 280 311l2 12q0 41 -69 47h-93q-43 0 -57 -30q-18 -29 -117 -340zM921 1343q65 90 65 190
q0 83 -41 130q-39 49 -99 49q-44 0 -80 -33q-33 -32 -33 -86q0 -42 34 -69q33 -27 77 -27q20 0 39.5 11.5t25.5 19.5q3 -17 3 -30q0 -44 -29 -104q-19 -41 -55 -80q-112 154 -280 154q-194 0 -319 -211q-125 -215 -125 -532q0 -322 119 -532.5t313 -210.5q195 0 320 211
q127 213 127 532q0 322 -119 533q-4 6 -8 13q36 32 65 72z" />
    <glyph glyph-name="uni1EDF" unicode="&#x1edf;" horiz-adv-x="1087" 
d="M749 690q0 -309 -43 -483t-164 -174t-164 174q-20 88 -30.5 208t-10.5 275v70q0 307 43 483q39 174 162 174q121 0 164 -174q43 -176 43 -483v-70zM561 1521v31q0 33 12 48q5 7 23.5 16t49.5 23q26 12 46.5 29t36.5 40q31 43 31 113q0 76 -41 137q-44 63 -133 63
q-76 0 -119 -43q-41 -40 -41 -84q0 -36 18 -56q20 -20 51 -20q29 0 47 21q15 16 15 36q0 17 -10 37q-9 19 -9 33q0 20 11 30t24 10q36 0 49 -40q6 -22 9.5 -52.5t3.5 -70.5q0 -65 -10 -102q-8 -36 -43 -55q-35 -16 -55 -36q-18 -20 -18 -65v-43h52zM921 1343q65 90 65 190
q0 83 -41 130q-39 49 -99 49q-44 0 -80 -33q-33 -32 -33 -86q0 -42 34 -69q33 -27 77 -27q20 0 39.5 11.5t25.5 19.5q3 -17 3 -30q0 -44 -29 -104q-19 -41 -55 -80q-112 154 -280 154q-194 0 -319 -211q-125 -215 -125 -532q0 -322 119 -532.5t313 -210.5q195 0 320 211
q127 213 127 532q0 322 -119 533q-4 6 -8 13q36 32 65 72z" />
    <glyph glyph-name="uni1EE1" unicode="&#x1ee1;" horiz-adv-x="1087" 
d="M749 690q0 -309 -43 -483t-164 -174t-164 174q-20 88 -30.5 208t-10.5 275v70q0 307 43 483q39 174 162 174q121 0 164 -174q43 -176 43 -483v-70zM867 1929l-52 24q-16 -47 -40 -69q-25 -25 -56 -25q-51 0 -139 45q-86 43 -150 43q-71 0 -114 -67q-41 -70 -74 -156
l51 -25q19 48 43 72q27 23 56 23q51 0 137 -43q88 -45 149 -45q74 0 115 67q43 70 74 156zM921 1343q65 90 65 190q0 83 -41 130q-39 49 -99 49q-44 0 -80 -33q-33 -32 -33 -86q0 -42 34 -69q33 -27 77 -27q20 0 39.5 11.5t25.5 19.5q3 -17 3 -30q0 -44 -29 -104
q-19 -41 -55 -80q-112 154 -280 154q-194 0 -319 -211q-125 -215 -125 -532q0 -322 119 -532.5t313 -210.5q195 0 320 211q127 213 127 532q0 322 -119 533q-4 6 -8 13q36 32 65 72z" />
    <glyph glyph-name="uni1EE3" unicode="&#x1ee3;" horiz-adv-x="1087" 
d="M749 690q0 -309 -43 -483t-164 -174t-164 174q-20 88 -30.5 208t-10.5 275v70q0 307 43 483q39 174 162 174q121 0 164 -174q43 -176 43 -483v-70zM541 -122q-41 0 -73.5 -33t-32.5 -78q0 -47 33 -78q30 -33 75 -33t76 33q33 31 33 78q0 45 -33 78t-78 33zM921 1343
q65 90 65 190q0 83 -41 130q-39 49 -99 49q-44 0 -80 -33q-33 -32 -33 -86q0 -42 34 -69q33 -27 77 -27q20 0 39.5 11.5t25.5 19.5q3 -17 3 -30q0 -44 -29 -104q-19 -41 -55 -80q-112 154 -280 154q-194 0 -319 -211q-125 -215 -125 -532q0 -322 119 -532.5t313 -210.5
q195 0 320 211q127 213 127 532q0 322 -119 533q-4 6 -8 13q36 32 65 72z" />
    <glyph glyph-name="ygrave" unicode="&#x1ef3;" horiz-adv-x="1056" 
d="M627 1389h166l-172 -867l-242 867h172v51h-551v-51h147q54 -166 102 -329t95 -325t94 -321.5t97 -321.5l-60 -289q-39 -100 -78 -143q-37 -39 -71 -39q-35 0 -54 25q-16 26 -16 71q0 56 -20 82q-17 25 -66 29q-45 -2 -69.5 -30.5t-24.5 -80.5q0 -73 53 -120
q51 -43 127 -43q115 0 180 77q62 74 96 185l326 1573h158v51h-389v-51zM636 1493q-100 311 -117 340q-16 31 -51 31h-92q-74 0 -74 -52v-8q10 -53 281 -311h53z" />
    <glyph glyph-name="glyph234" unicode="&#xfd;" horiz-adv-x="1056" 
d="M627 1389h166l-172 -867l-242 867h172v51h-551v-51h147q54 -166 102 -329t95 -325t94 -321.5t97 -321.5l-60 -289q-39 -100 -78 -143q-37 -39 -71 -39q-35 0 -54 25q-16 26 -16 71q0 56 -20 82q-17 25 -66 29q-45 -2 -69.5 -30.5t-24.5 -80.5q0 -73 53 -120
q51 -43 127 -43q115 0 180 77q62 74 96 185l326 1573h158v51h-389v-51zM486 1532h54q272 260 280 311l2 12q0 41 -69 48h-92q-41 0 -58 -31q-16 -33 -117 -340z" />
    <glyph glyph-name="uni1EF7" unicode="&#x1ef7;" horiz-adv-x="1056" 
d="M627 1389h166l-172 -867l-242 867h172v51h-551v-51h147q54 -166 102 -329t95 -325t94 -321.5t97 -321.5l-60 -289q-39 -100 -78 -143q-37 -39 -71 -39q-35 0 -54 25q-16 26 -16 71q0 56 -20 82q-17 25 -66 29q-45 -2 -69.5 -30.5t-24.5 -80.5q0 -73 53 -120
q51 -43 127 -43q115 0 180 77q62 74 96 185l326 1573h158v51h-389v-51zM561 1521v31q0 33 12 48q5 7 23.5 16t49.5 23q26 12 46.5 29t36.5 40q31 43 31 113q0 76 -41 137q-44 63 -133 63q-76 0 -119 -43q-41 -40 -41 -84q0 -36 18 -56q20 -20 51 -20q29 0 47 21q15 16 15 36
q0 17 -10 37q-9 19 -9 33q0 20 11 30t24 10q36 0 49 -40q6 -22 9.5 -52.5t3.5 -70.5q0 -65 -10 -102q-8 -36 -43 -55q-35 -16 -55 -36q-18 -20 -18 -65v-43h52z" />
    <glyph glyph-name="uni1EF9" unicode="&#x1ef9;" horiz-adv-x="1056" 
d="M627 1389h166l-172 -867l-242 867h172v51h-551v-51h147q54 -166 102 -329t95 -325t94 -321.5t97 -321.5l-60 -289q-39 -100 -78 -143q-37 -39 -71 -39q-35 0 -54 25q-16 26 -16 71q0 56 -20 82q-17 25 -66 29q-45 -2 -69.5 -30.5t-24.5 -80.5q0 -73 53 -120
q51 -43 127 -43q115 0 180 77q62 74 96 185l326 1573h158v51h-389v-51zM867 1844l-52 24q-16 -47 -40 -69q-25 -25 -56 -25q-51 0 -139 45q-86 43 -150 43q-71 0 -114 -67q-41 -70 -74 -156l51 -25q19 48 43 72q27 23 56 23q51 0 137 -43q88 -45 149 -45q74 0 115 67
q43 70 74 156z" />
    <glyph glyph-name="uni1EF5" unicode="&#x1ef5;" horiz-adv-x="1056" 
d="M627 1389h166l-172 -867l-242 867h172v51h-551v-51h147q54 -166 102 -329t95 -325t94 -321.5t97 -321.5l-60 -289q-39 -100 -78 -143q-37 -39 -71 -39q-35 0 -54 25q-16 26 -16 71q0 56 -20 82q-17 25 -66 29q-45 -2 -69.5 -30.5t-24.5 -80.5q0 -73 53 -120
q51 -43 127 -43q115 0 180 77q62 74 96 185l326 1573h158v51h-389v-51zM692 -122q-41 0 -73.5 -33t-32.5 -78q0 -47 33 -78q30 -33 75 -33t76 33q33 31 33 78q0 45 -33 78t-78 33z" />
    <glyph glyph-name="divide" unicode="&#xf7;" horiz-adv-x="1706" 
 />
    <glyph glyph-name="ugrave" horiz-adv-x="582" 
 />
    <glyph glyph-name="uacute" horiz-adv-x="580" 
 />
    <glyph glyph-name="yacute" horiz-adv-x="629" 
 />
    <glyph glyph-name="Ccaron" unicode="&#x10c;" horiz-adv-x="1274" 
 />
    <glyph glyph-name="ccaron" unicode="&#x10d;" horiz-adv-x="922" 
 />
    <glyph glyph-name="Dslash" unicode="&#x110;" horiz-adv-x="1556" 
d="M464 799v590h309q211 0 305 -175q95 -170 95 -495q0 -309 -96.5 -485.5t-290.5 -176.5h-322v668h391v74h-391zM34 799v-74h203v-676h-191v-49h776q330 0 469 209q138 205 138 516q0 324 -142 524q-141 197 -491 197h-750v-47l191 2v-602h-203z" />
    <glyph glyph-name="dcroat" unicode="&#x111;" horiz-adv-x="1128" 
d="M721 676q0 -273 -47 -449q-47 -172 -146 -172q-116 0 -155 185q-19 92 -29 217t-10 284q0 303 41 486q20 90 41.5 139t77.5 49q53 0 106 -49t76 -137q45 -172 45 -518v-35zM467 1563v-58h252v-216q-52 119 -109 149q-55 30 -141 30q-172 0 -268 -219q-95 -215 -95 -528
q0 -320 99 -528q94 -209 260 -209q74 0 147 43q72 41 109 133v-160h369v49h-164v1456h117v58h-117v67h-2v203l-199 -61l-1 -142h-3v-67h-254z" />
    <glyph glyph-name="quoteleft" unicode="&#x2018;" horiz-adv-x="485" 
d="M288 803q49 0 90 41t41 100q0 62 -41 96q-38 33 -92 33q-22 0 -51 -14q-27 -12 -37 -27l-2 35q-2 35 9.5 72t33.5 78q55 102 180 186l-24 43q-131 -64 -211 -180q-80 -115 -80 -240q0 -84 43 -154q39 -69 141 -69z" />
    <glyph glyph-name="quoteright" unicode="&#x2019;" horiz-adv-x="485" 
d="M238 1462q-68 0 -109 -41q-41 -37 -41 -96q0 -63 41 -100q35 -33 78 -33h8q25 0 57 14q29 13 37 27l2 -37q2 -74 -47 -158q-57 -98 -176 -174l27 -45q116 60 204 176q86 119 86 242q0 96 -49 162q-45 63 -118 63z" />
    <glyph glyph-name="quotedblleft" unicode="&#x201c;" horiz-adv-x="890" 
d="M704 803q49 0 90 41t41 100q0 62 -41 96q-38 33 -92 33q-22 0 -51 -14q-27 -12 -37 -27l-2 35q-2 35 9.5 72t33.5 78q55 102 180 186l-24 43q-131 -64 -211 -180q-80 -115 -80 -240q0 -84 43 -154q39 -69 141 -69zM278 803q49 0 90 41t41 100q0 62 -41 96q-38 33 -92 33
q-22 0 -51 -14q-27 -12 -37 -27l-2 35q-2 35 9.5 72t33.5 78q55 102 180 186l-24 43q-131 -64 -211 -180q-80 -115 -80 -240q0 -84 43 -154q39 -69 141 -69z" />
    <glyph glyph-name="quotedblright" unicode="&#x201d;" horiz-adv-x="890" 
d="M652 1462q-67 0 -108 -41q-41 -37 -41 -96q0 -63 41 -100q35 -33 78 -33h8q25 0 57 14q29 13 37 27l2 -37q2 -74 -47 -158q-57 -98 -176 -174l27 -45q116 60 204 176q86 119 86 242q0 96 -49 162q-45 63 -119 63zM227 1462q-68 0 -109 -41q-41 -37 -41 -96q0 -63 41 -100
q35 -33 78 -33h8q25 0 57 14q29 13 37 27l2 -37q2 -74 -47 -158q-57 -98 -176 -174l27 -45q116 60 204 176q86 119 86 242q0 96 -49 162q-45 63 -118 63z" />
    <glyph glyph-name="ellipsis" unicode="&#x2026;" horiz-adv-x="1945" 
d="M876 260q-53 0 -98 -41q-41 -41 -41 -98q0 -58 41 -98q45 -41 98 -41q58 0 99 41q41 38 41 98q0 59 -41 98q-41 41 -99 41zM1556 260q-53 0 -98 -41q-41 -41 -41 -98q0 -58 41 -98q45 -41 98 -41q58 0 98 41q41 38 41 98q0 59 -41 98q-40 41 -98 41zM194 260
q-53 0 -98 -41q-41 -41 -41 -98q0 -58 41 -98q45 -41 98 -41q58 0 99 41q41 38 41 98q0 59 -41 98q-41 41 -99 41z" />
  </font>
</defs>
</svg>
