<?xml version="1.0" standalone="no"?>
<!DOCTYPE svg PUBLIC "-//W3C//DTD SVG 20010904//EN"
 "http://www.w3.org/TR/2001/REC-SVG-20010904/DTD/svg10.dtd">
<svg version="1.0" xmlns="http://www.w3.org/2000/svg"
 width="512.000000pt" height="512.000000pt" viewBox="0 0 512.000000 512.000000"
 preserveAspectRatio="xMidYMid meet">
<metadata>
Created by potrace 1.11, written by Peter Selinger 2001-2013
</metadata>
<g transform="translate(0.000000,512.000000) scale(0.100000,-0.100000)"
fill="#000000" stroke="none">
<path d="M2362 5049 c-327 -32 -580 -101 -857 -233 -561 -269 -991 -725 -1235
-1311 -38 -93 -96 -268 -106 -325 -3 -14 -9 -38 -14 -55 -17 -56 -41 -207 -55
-346 -9 -85 -9 -345 0 -434 4 -44 8 -91 10 -105 1 -14 5 -45 9 -70 4 -25 10
-58 12 -75 13 -82 71 -294 111 -405 126 -348 318 -653 578 -915 84 -84 174
-166 221 -200 15 -11 39 -30 53 -41 125 -103 455 -280 649 -348 128 -45 303
-91 402 -106 41 -6 86 -13 100 -16 168 -28 582 -22 726 11 12 2 39 7 60 11 96
14 348 85 429 119 282 122 489 239 634 360 189 157 293 260 413 410 75 93 187
255 219 317 8 14 33 62 56 106 115 219 227 566 250 777 3 28 7 53 9 56 5 10
18 235 17 324 0 88 -10 265 -17 305 -3 14 -7 47 -11 74 -8 68 -31 173 -61 286
-129 487 -432 956 -827 1278 -350 287 -804 484 -1232 537 -27 4 -63 9 -80 12
-49 8 -384 10 -463 2z m498 -204 c19 -3 73 -13 120 -21 429 -76 836 -283 1155
-586 132 -126 327 -363 368 -448 4 -8 23 -42 42 -75 165 -282 269 -606 303
-945 13 -132 7 -426 -12 -550 -32 -215 -97 -444 -172 -608 -19 -41 -34 -75
-34 -76 0 -11 -113 -207 -163 -281 -135 -203 -320 -399 -522 -552 -206 -156
-416 -267 -660 -348 -92 -31 -279 -76 -367 -89 -21 -3 -62 -9 -90 -13 -29 -5
-152 -8 -273 -7 -230 0 -371 17 -555 65 -825 218 -1468 882 -1659 1714 -42
182 -56 314 -56 530 0 206 17 356 60 535 2 8 6 29 10 45 49 215 180 506 325
720 219 324 531 596 885 771 111 54 295 129 345 139 8 2 41 10 72 20 31 9 70
18 85 21 15 3 35 7 45 10 29 9 131 24 203 30 39 4 72 8 75 11 6 6 429 -4 470
-12z"/>
<path d="M1522 4121 c-4 -11 -7 -610 -6 -1330 1 -1200 2 -1312 17 -1329 9 -10
74 -57 144 -106 142 -97 233 -160 409 -285 66 -46 130 -88 144 -94 22 -8 70
18 429 233 223 133 416 248 430 256 15 8 40 23 56 33 17 10 104 62 195 116 91
53 181 107 200 120 19 12 140 84 268 160 129 76 240 148 247 159 17 27 17 758
-1 776 -5 5 -71 29 -145 51 -73 23 -161 49 -194 59 -33 10 -186 57 -340 105
-154 47 -287 88 -295 90 -8 2 -89 27 -180 55 -235 73 -424 128 -428 125 -2 -2
23 -61 56 -132 56 -119 85 -182 149 -323 115 -252 104 -235 174 -268 35 -16
87 -40 114 -52 65 -29 132 -60 224 -102 l75 -34 -35 -21 c-19 -11 -97 -53
-174 -93 -77 -40 -176 -92 -220 -115 -44 -23 -138 -73 -210 -110 -71 -38 -179
-95 -239 -127 -60 -32 -113 -58 -118 -58 -4 0 -8 60 -9 133 -7 1368 -12 1864
-18 1876 -7 11 -477 179 -689 245 -17 6 -24 3 -30 -13z"/>
</g>
</svg>
